<?xml version="1.0" standalone="no"?>
<!DOCTYPE svg PUBLIC "-//W3C//DTD SVG 20010904//EN"
 "http://www.w3.org/TR/2001/REC-SVG-20010904/DTD/svg10.dtd">
<svg version="1.0" xmlns="http://www.w3.org/2000/svg"
 width="1280.000000pt" height="1280.000000pt" viewBox="0 0 1280.000000 1280.000000"
 preserveAspectRatio="xMidYMid meet">
<metadata>
Created by potrace 1.11, written by Peter Selinger 2001-2013
</metadata>
<g transform="translate(0.000000,1280.000000) scale(0.100000,-0.100000)"
fill="#000000" stroke="none">
<path d="M3927 12165 c-10 -7 -38 -16 -62 -20 -25 -3 -50 -12 -57 -19 -7 -7
-25 -16 -40 -19 -15 -4 -33 -14 -42 -22 -8 -8 -22 -15 -30 -15 -9 0 -16 -4
-16 -10 0 -5 -5 -10 -11 -10 -28 0 -138 -88 -224 -180 -33 -35 -76 -80 -95
-100 -19 -20 -42 -46 -50 -59 -8 -12 -27 -36 -42 -53 -15 -17 -31 -41 -34 -52
-4 -12 -20 -37 -35 -56 -16 -19 -29 -42 -29 -51 0 -9 -8 -27 -18 -40 -25 -32
-62 -111 -62 -132 0 -9 -4 -19 -10 -22 -5 -3 -10 -15 -10 -26 0 -10 -4 -19 -9
-19 -5 0 -11 -10 -14 -22 -12 -52 -48 -174 -57 -193 -6 -11 -11 -36 -12 -55
-1 -19 -5 -39 -8 -45 -7 -10 -15 -41 -26 -95 -2 -14 -5 -45 -5 -70 0 -25 -5
-48 -10 -51 -6 -3 -11 -40 -12 -82 -1 -43 -5 -77 -9 -77 -5 0 -8 -103 -8 -230
0 -126 4 -230 8 -230 4 0 9 -42 10 -92 1 -51 3 -100 5 -108 2 -8 7 -26 10 -40
4 -14 9 -45 12 -70 6 -51 10 -71 55 -255 33 -137 89 -327 99 -335 3 -3 7 -15
9 -27 2 -12 11 -39 22 -60 10 -21 16 -41 14 -44 -2 -4 3 -19 11 -35 7 -15 11
-32 8 -38 -3 -6 -3 -8 2 -4 9 8 35 -36 35 -58 0 -8 5 -14 10 -14 6 0 10 -7 10
-15 0 -8 27 -67 60 -131 33 -63 58 -119 55 -124 -3 -6 1 -7 9 -4 10 4 16 1 16
-7 0 -8 13 -34 29 -58 17 -25 27 -49 24 -54 -3 -6 -1 -7 5 -3 11 7 35 -26 27
-38 -3 -3 -2 -4 1 -1 9 6 55 -65 49 -76 -3 -5 1 -6 9 -3 11 4 16 0 16 -10 0
-9 4 -16 8 -16 10 0 37 -50 34 -62 -1 -5 4 -7 11 -5 6 1 11 -4 9 -11 -1 -8 1
-11 6 -8 11 7 52 -39 52 -59 0 -8 6 -14 13 -12 6 1 11 -4 10 -10 -2 -7 2 -13
8 -13 5 0 7 -5 3 -12 -5 -7 -3 -8 5 -3 13 8 58 -33 53 -48 -1 -5 1 -6 6 -3 14
8 65 -51 57 -65 -5 -8 -4 -10 3 -5 7 4 12 3 12 -3 0 -6 7 -8 15 -4 9 3 15 2
14 -3 -4 -24 2 -36 16 -30 11 4 19 -3 25 -19 5 -14 12 -25 15 -25 4 0 3 6 0
13 -4 6 6 -1 22 -18 16 -16 37 -35 48 -41 11 -7 19 -19 19 -28 -1 -9 2 -16 7
-16 5 0 9 8 9 18 0 14 2 15 9 2 6 -8 7 -19 4 -25 -3 -5 0 -4 8 3 11 10 17 8
34 -7 62 -60 85 -76 69 -48 -4 6 2 3 14 -7 12 -11 22 -16 22 -12 0 3 18 -5 39
-18 21 -14 42 -22 45 -19 3 3 14 -4 25 -15 20 -24 36 -29 26 -9 -4 6 2 2 14
-11 12 -14 22 -19 26 -11 5 7 14 4 29 -9 27 -25 51 -39 43 -25 -4 6 0 14 9 17
8 3 13 2 10 -3 -7 -11 22 -23 36 -14 7 3 8 1 4 -5 -5 -8 1 -12 14 -12 14 0 19
-4 14 -12 -4 -7 -4 -10 1 -6 4 4 15 2 23 -5 13 -10 14 -9 7 2 -6 11 -4 13 11
7 32 -13 55 -15 49 -5 -4 5 -10 7 -14 4 -5 -2 -16 2 -26 9 -17 12 -17 13 1 11
11 0 25 -4 32 -9 6 -4 12 -4 12 0 0 4 12 -6 27 -22 l26 -29 -17 28 c-12 19
-13 26 -4 25 7 -2 16 -9 19 -17 4 -11 8 -10 22 3 9 10 17 14 17 9 0 -5 -5 -14
-12 -21 -7 -7 -10 -12 -6 -12 14 0 74 24 79 32 3 6 9 2 12 -7 5 -10 3 -14 -5
-9 -6 4 -8 3 -5 -4 4 -5 16 -8 27 -5 17 5 18 8 8 22 -10 13 -10 14 2 4 8 -7
22 -13 31 -13 10 0 20 6 23 13 3 6 3 1 0 -12 -4 -15 -2 -21 4 -17 6 3 12 1 14
-6 3 -7 7 -5 11 6 4 9 3 15 -1 12 -5 -3 -9 1 -9 8 0 7 6 13 13 13 7 0 11 -4 8
-9 -3 -4 -1 -8 5 -8 5 0 12 6 14 13 3 7 6 5 6 -5 1 -10 -3 -18 -9 -18 -5 0
-10 -5 -10 -11 0 -8 5 -8 15 1 8 7 15 18 15 25 0 7 8 19 17 26 9 8 14 9 11 4
-10 -16 5 -35 30 -40 15 -3 19 0 15 12 -4 10 -8 11 -13 3 -5 -9 -9 -8 -12 2
-6 13 2 15 79 19 13 1 20 5 17 10 -3 5 2 6 11 3 12 -5 13 -10 4 -20 -6 -8 -16
-11 -22 -7 -6 4 -7 1 -3 -6 13 -20 47 17 42 46 -3 13 -1 21 5 18 5 -4 6 -11 3
-17 -4 -6 -1 -8 7 -6 8 3 13 11 11 17 -1 7 2 10 7 7 5 -3 7 -15 4 -25 -6 -22
12 -37 23 -20 4 8 3 9 -4 5 -7 -4 -12 -1 -12 8 0 9 8 13 25 12 14 -2 31 4 37
12 9 11 9 14 1 9 -6 -4 -14 -3 -17 2 -4 5 -2 12 3 15 5 4 12 2 16 -3 9 -15 44
-9 38 6 -4 9 0 11 11 7 9 -3 13 -11 9 -17 -3 -6 -1 -7 6 -3 6 4 9 12 6 17 -4
5 -2 9 3 9 4 0 17 8 28 18 25 21 44 26 44 9 0 -8 3 -7 9 3 6 8 7 18 5 22 -3 4
0 8 5 8 6 0 11 4 11 10 0 5 11 21 26 35 14 14 22 30 18 37 -4 7 -3 8 4 4 7 -4
12 -1 12 6 0 10 3 9 9 -2 11 -16 4 -33 -9 -25 -4 3 -10 -2 -14 -10 -3 -8 -1
-17 3 -20 5 -3 12 2 15 11 3 9 11 12 18 8 7 -4 10 -3 5 1 -4 5 5 21 19 36 27
29 25 52 -4 43 -14 -5 -14 -4 -3 4 10 7 21 7 32 1 24 -12 29 -11 26 4 -1 6 4
11 11 9 8 -1 11 2 7 8 -6 9 8 14 28 11 5 -1 6 3 2 9 -3 6 -10 8 -14 6 -3 -3
-7 4 -7 14 0 10 3 17 7 14 4 -2 9 -1 12 3 2 5 2 3 1 -4 -4 -17 13 -26 19 -11
2 7 0 22 -6 33 -8 16 -7 18 4 8 18 -17 29 -16 29 3 0 8 -4 12 -10 9 -6 -3 -10
-1 -10 4 0 14 13 14 26 1 6 -6 15 -5 24 1 13 9 13 10 -2 6 -9 -3 -19 1 -22 9
-3 8 -2 13 3 9 12 -7 41 5 41 17 0 6 -8 4 -17 -3 -14 -12 -16 -12 -8 0 6 11 4
13 -8 8 -11 -4 -14 -2 -10 9 4 10 9 12 18 4 17 -14 35 6 35 39 0 5 8 12 17 15
15 6 15 4 -2 -14 -10 -11 -15 -20 -10 -20 4 0 2 -6 -4 -14 -9 -11 -9 -16 1
-22 7 -4 10 -4 6 0 -4 5 2 23 12 41 14 25 16 35 6 46 -6 8 -10 13 -7 12 10 -6
30 20 24 31 -3 6 3 3 14 -7 16 -14 23 -15 29 -6 4 7 3 10 -3 6 -6 -4 -13 -1
-16 7 -3 8 1 17 9 20 8 3 13 2 10 -2 -3 -5 1 -9 9 -9 10 0 11 5 4 19 -6 12 -6
18 0 18 6 0 7 7 4 17 -4 11 -3 14 5 9 8 -5 12 0 12 13 0 12 5 21 11 21 5 0 7
-6 3 -12 -4 -7 2 -4 14 6 23 20 30 32 12 21 -5 -3 -10 -2 -10 4 0 5 -6 11 -12
14 -7 2 -4 3 8 1 12 -2 21 2 21 10 0 8 -6 12 -12 10 -6 -3 -12 1 -12 9 0 9 8
12 22 9 13 -2 26 2 30 9 6 8 4 11 -7 7 -8 -4 -21 -2 -29 3 -11 7 -11 9 -1 9 7
0 10 5 7 10 -4 6 -1 9 7 8 8 -2 12 5 10 17 -2 16 -1 17 7 5 6 -9 6 -19 1 -25
-7 -8 -5 -12 5 -12 8 0 12 4 9 9 -3 4 3 8 13 9 16 0 16 1 -2 9 -14 6 -15 9 -5
10 10 0 8 4 -6 13 -20 11 -20 13 -6 27 14 13 15 12 9 -3 -3 -9 -2 -17 3 -17
12 0 14 36 3 43 -5 2 -2 2 5 1 6 -2 12 1 12 7 0 6 6 7 13 3 8 -5 8 -2 -2 9 -7
9 -10 17 -5 17 4 0 -1 7 -12 16 -18 14 -18 15 4 4 13 -6 22 -7 22 -1 0 5 -6
12 -12 14 -8 3 -7 6 4 6 22 1 30 15 22 36 -5 13 -8 14 -15 3 -6 -9 -9 -9 -9
-1 0 17 17 25 25 12 5 -7 12 -3 22 10 13 19 12 23 -1 37 -9 8 -16 20 -16 25 0
6 7 3 16 -5 17 -18 28 -21 20 -7 -4 5 -3 11 1 14 5 2 3 2 -4 1 -15 -4 -25 24
-11 32 7 4 8 3 4 -4 -4 -7 -5 -12 -2 -12 3 0 10 9 16 20 8 15 8 20 -1 18 -6
-2 -12 6 -13 18 -2 11 3 21 10 21 7 0 10 -6 7 -14 -3 -7 1 -13 8 -13 7 0 9 3
6 7 -4 3 1 12 11 20 9 8 11 12 5 8 -7 -3 -21 -1 -30 5 -17 10 -16 10 2 8 11
-2 20 3 20 10 0 7 7 17 15 23 12 8 12 9 -5 7 -12 -2 -21 4 -23 15 -2 9 2 17 8
17 6 0 8 -4 5 -10 -3 -5 -2 -10 2 -10 5 0 14 10 22 23 13 20 13 21 -2 8 -15
-12 -17 -11 -17 12 0 14 -5 27 -12 29 -7 3 -5 7 6 11 9 4 15 3 11 -2 -3 -5 -2
-12 3 -15 13 -8 11 28 -2 36 -7 5 -7 11 3 20 10 10 12 10 7 1 -10 -19 -1 -16
15 4 8 9 9 14 3 10 -7 -4 -15 0 -18 9 -5 12 -1 14 17 9 l22 -7 -22 16 c-21 16
-22 56 -1 56 5 0 5 -8 -1 -18 -7 -13 -6 -19 2 -19 7 0 12 14 13 31 0 17 4 40
8 51 6 19 6 19 -4 0 -6 -12 -21 -27 -33 -35 -19 -12 -21 -11 -10 2 7 8 9 19 5
23 -4 5 -2 5 5 2 6 -4 16 6 24 26 17 45 17 49 2 79 -7 15 -9 29 -4 32 5 3 7
19 5 36 -2 16 0 30 4 30 11 0 8 -51 -3 -70 -5 -9 1 -7 13 4 23 20 30 32 12 21
-5 -3 -10 -2 -10 4 0 5 6 12 13 14 9 4 9 6 -1 6 -8 1 -10 6 -5 14 12 20 12 34
-3 34 -7 0 -10 -5 -7 -11 3 -6 2 -7 -2 -3 -16 14 -14 36 3 30 10 -3 7 3 -7 15
l-25 20 30 -4 c27 -4 27 -4 6 6 -13 5 -20 14 -17 20 12 19 16 60 6 60 -6 0 -8
-8 -6 -18 2 -11 -3 -19 -11 -19 -9 0 -11 4 -4 12 6 7 5 16 -3 25 -10 10 -9 11
2 5 11 -6 13 -4 7 10 -5 15 -4 16 9 5 14 -12 15 -11 4 13 -7 15 -17 24 -23 20
-6 -4 -2 3 8 15 21 24 36 31 17 8 -7 -8 -8 -16 -4 -19 5 -3 13 6 20 19 7 15 7
22 1 18 -7 -5 -9 3 -6 20 4 22 3 24 -9 14 -8 -6 -13 -7 -12 -2 1 5 0 11 -1 14
-6 13 -6 59 0 55 9 -5 4 51 -6 67 -10 16 -13 58 -4 58 3 0 10 -3 16 -7 5 -5 1
0 -10 10 -14 13 -20 31 -19 58 0 21 -3 39 -8 39 -4 0 -6 13 -4 30 2 16 0 32
-5 35 -4 3 -7 13 -6 23 2 9 -2 20 -8 24 -8 5 -7 8 2 8 6 0 12 5 12 11 0 5 -5
7 -12 3 -7 -4 -8 -3 -4 5 6 8 12 9 20 2 9 -8 13 -7 13 4 0 7 -3 14 -6 13 -24
-2 -33 3 -24 15 11 13 13 46 4 45 -20 -2 -31 3 -26 12 4 6 11 8 16 5 5 -3 6 1
3 9 -3 9 -12 16 -18 16 -7 0 -13 7 -13 15 0 8 4 12 9 9 4 -3 8 0 8 5 0 6 -4
11 -10 11 -5 0 -10 5 -10 11 0 5 4 8 8 5 5 -3 9 2 9 10 0 10 -7 14 -20 10 -18
-4 -18 -4 0 16 10 12 13 18 6 15 -6 -4 -14 -3 -18 3 -6 10 9 15 30 10 6 -1 6
2 2 7 -5 4 -14 8 -20 8 -7 0 -11 11 -9 24 2 20 0 22 -13 11 -13 -11 -14 -10
-9 3 3 8 0 25 -6 37 -17 31 -21 62 -8 54 7 -4 8 -2 4 5 -4 6 -2 20 5 29 11 13
8 12 -9 -2 -12 -11 -22 -17 -23 -15 0 2 -2 16 -3 31 -1 22 1 25 13 15 12 -10
12 -9 1 10 -8 12 -18 19 -22 17 -9 -6 -11 8 -8 45 1 16 -2 21 -10 16 -9 -6 -9
-3 -2 11 7 14 6 24 -3 37 -10 13 -14 15 -18 5 -3 -7 -5 -2 -6 12 0 14 -1 33
-1 43 -1 9 -5 15 -11 12 -13 -9 -11 9 4 24 10 10 9 11 -4 6 -10 -4 -20 -1 -25
6 -5 8 -3 10 7 4 7 -5 4 4 -9 19 -12 16 -22 37 -22 47 0 11 -5 19 -11 19 -8 0
-7 6 2 17 10 11 10 14 2 9 -8 -4 -13 -1 -13 9 0 10 -5 13 -12 9 -7 -4 -10 -4
-6 1 4 4 3 14 -3 22 -9 10 -8 13 2 14 8 0 5 4 -6 9 -11 5 -14 9 -7 9 6 1 12 6
12 12 0 5 -4 8 -9 4 -6 -3 -15 4 -21 15 -6 11 -8 20 -5 20 2 0 -3 9 -13 20 -9
12 -17 26 -17 33 -1 7 -7 11 -15 9 -11 -3 -11 0 1 14 12 15 12 17 0 9 -11 -6
-13 -4 -8 7 3 10 -5 27 -23 45 -22 22 -26 31 -17 43 6 8 7 12 2 7 -12 -10 -45
22 -45 45 0 10 -5 18 -12 18 -6 0 -9 3 -5 6 3 3 -5 16 -19 28 -14 11 -26 31
-27 43 0 12 -4 21 -7 21 -18 -2 -23 4 -10 12 12 8 10 10 -9 10 -20 0 -22 2
-11 15 11 13 10 14 -6 9 -10 -4 -16 -4 -13 0 4 4 -3 18 -15 31 -11 13 -36 40
-54 60 -18 20 -29 41 -26 47 4 6 3 8 -4 4 -12 -7 -44 33 -36 46 3 5 0 7 -7 6
-7 -2 -18 7 -24 20 -7 13 -15 23 -19 23 -3 -1 -6 1 -6 4 0 2 -20 24 -45 47
-24 23 -41 46 -38 52 3 5 1 6 -4 3 -13 -8 -85 58 -75 68 4 5 2 5 -4 2 -6 -4
-22 5 -34 18 -13 14 -29 25 -37 25 -7 0 -13 4 -13 9 0 6 -18 20 -40 32 -22 13
-40 26 -40 31 0 4 -7 8 -15 8 -8 0 -15 5 -15 10 0 6 -7 10 -15 10 -8 0 -15 4
-15 9 0 5 -10 13 -22 16 -21 6 -131 57 -198 90 -14 7 -46 16 -72 20 -26 4 -53
14 -59 22 -10 11 -14 11 -20 1 -7 -10 -9 -10 -9 0 0 9 -59 12 -260 12 -201 0
-260 -3 -260 -12 0 -10 -2 -10 -8 -1 -5 8 -12 8 -25 -2z m2129 -2892 c-2 -9
-10 -17 -19 -19 -11 -1 -14 2 -10 9 4 7 8 15 9 20 1 4 2 10 3 13 3 13 19 -8
17 -23z m-63 -357 c4 -10 1 -13 -9 -9 -15 6 -19 23 -5 23 5 0 11 -7 14 -14z
m-41 -180 c7 4 8 2 4 -5 -9 -13 -26 -5 -25 12 0 9 2 8 6 -1 2 -6 10 -9 15 -6z
m-426 -708 c-5 -35 -36 -52 -36 -20 0 14 2 15 10 2 5 -8 10 -12 11 -7 1 4 3
12 4 17 1 6 3 12 4 15 2 11 9 4 7 -7z m-46 -73 c0 -1 -10 -10 -22 -21 -14 -12
-18 -13 -10 -3 6 9 10 18 7 21 -3 2 2 5 10 5 8 0 15 -1 15 -2z m-90 -50 c0 -2
-10 -9 -22 -15 -22 -11 -22 -10 -4 4 21 17 26 19 26 11z m-40 -45 c0 -5 -2
-10 -4 -10 -3 0 -8 5 -11 10 -3 6 -1 10 4 10 6 0 11 -4 11 -10z m-30 -20 c5 9
9 8 13 -3 4 -10 0 -14 -11 -13 -9 2 -17 8 -18 15 -2 8 -1 8 3 0 4 -8 7 -8 13
1z m-30 -25 c0 -1 -7 -8 -15 -15 -13 -11 -14 -10 -9 5 6 14 4 16 -6 10 -8 -5
-11 -4 -6 3 5 9 36 7 36 -3z m-46 -21 c3 -8 2 -12 -4 -9 -6 3 -10 10 -10 16 0
14 7 11 14 -7z m-34 -14 c0 -5 -5 -10 -11 -10 -5 0 -7 5 -4 10 3 6 8 10 11 10
2 0 4 -4 4 -10z m-60 -34 c0 -3 -4 -8 -10 -11 -5 -3 -10 -1 -10 4 0 6 5 11 10
11 6 0 10 -2 10 -4z m-760 -10 c0 -3 -4 -8 -10 -11 -5 -3 -10 -1 -10 4 0 6 5
11 10 11 6 0 10 -2 10 -4z m117 -43 c0 -10 -4 -10 -16 -1 -9 7 -18 13 -20 15
-2 1 5 1 16 0 11 0 20 -7 20 -14z"/>
<path d="M8300 12169 c0 -5 -5 -7 -10 -4 -6 4 -16 2 -23 -3 -7 -6 -32 -13 -57
-17 -25 -4 -48 -11 -51 -17 -3 -5 -10 -10 -15 -10 -5 0 -13 -2 -19 -4 -64 -18
-85 -27 -85 -32 0 -7 -17 -15 -87 -42 -18 -7 -38 -19 -44 -26 -6 -8 -27 -22
-45 -30 -19 -9 -51 -31 -71 -50 -20 -19 -40 -34 -44 -34 -4 0 -31 -24 -60 -53
-30 -29 -63 -59 -74 -67 -37 -28 -263 -296 -276 -327 -4 -13 -12 -23 -17 -23
-4 0 -16 -15 -27 -32 -10 -18 -27 -41 -36 -52 -10 -10 -30 -43 -44 -72 -15
-30 -32 -60 -38 -67 -19 -21 -37 -56 -37 -72 0 -8 -4 -15 -8 -15 -12 0 -162
-319 -162 -344 0 -8 -4 -18 -10 -21 -5 -3 -10 -15 -10 -26 0 -10 -4 -19 -10
-19 -5 0 -10 -10 -10 -22 0 -20 -24 -110 -40 -153 -27 -69 -32 -88 -32 -110 0
-14 -4 -25 -9 -25 -5 0 -9 -18 -9 -40 0 -22 -4 -40 -10 -40 -5 0 -10 -17 -10
-37 0 -21 -6 -50 -14 -64 -7 -15 -14 -46 -15 -70 -2 -51 -6 -75 -15 -109 -4
-14 -9 -50 -11 -80 -3 -30 -10 -89 -15 -130 -18 -135 -20 -152 -13 -163 10
-17 12 -157 2 -163 -12 -7 -11 -111 1 -119 6 -3 10 -30 10 -60 0 -30 5 -57 10
-60 8 -5 7 -11 -1 -21 -9 -11 -9 -21 0 -40 6 -15 9 -35 6 -45 -3 -10 -1 -28 5
-39 15 -27 20 -55 21 -107 1 -24 6 -43 11 -43 6 0 7 -7 4 -16 -4 -9 -1 -23 5
-30 6 -8 9 -28 7 -45 -3 -20 0 -33 9 -36 7 -3 13 -14 13 -25 0 -23 21 -100 30
-108 3 -3 6 -9 7 -15 2 -10 20 -65 33 -100 5 -11 22 -50 40 -87 18 -37 28 -72
24 -79 -4 -8 -3 -9 4 -5 7 4 12 1 12 -8 0 -9 5 -16 10 -16 6 0 10 -7 10 -15 0
-8 3 -15 8 -15 4 0 14 -14 21 -32 8 -18 26 -45 40 -61 14 -16 25 -33 24 -38
-2 -5 2 -9 8 -9 5 0 7 -4 4 -10 -3 -5 -1 -10 5 -10 6 0 8 -5 4 -12 -4 -7 -3
-8 4 -4 11 7 35 -26 27 -38 -3 -3 -2 -4 2 -1 5 4 27 -17 64 -62 5 -7 6 -13 2
-14 -4 0 2 -4 14 -9 16 -7 21 -14 16 -26 -4 -12 -3 -15 6 -10 14 9 51 -20 51
-41 0 -8 5 -11 10 -8 6 3 10 -4 11 -17 0 -13 3 -17 6 -11 3 10 9 9 20 -3 13
-12 13 -18 4 -24 -10 -5 -9 -9 4 -13 9 -4 13 -3 10 3 -11 17 11 11 28 -8 10
-10 14 -22 10 -27 -5 -4 -3 -5 3 -2 6 4 30 -6 52 -23 22 -16 43 -26 47 -22 3
3 3 -2 -1 -13 -7 -18 -6 -19 10 -6 15 12 17 12 14 0 -2 -8 3 -13 10 -11 8 1
11 -2 6 -9 -5 -9 -2 -10 10 -6 11 5 15 3 10 -5 -5 -8 -2 -9 9 -5 10 4 22 -1
29 -11 16 -21 55 -52 45 -36 -4 8 2 11 17 10 13 0 22 -5 19 -10 -3 -4 4 -5 16
-1 13 4 21 2 21 -5 0 -6 -4 -8 -10 -5 -5 3 -10 1 -10 -4 0 -15 13 -14 29 2 11
10 13 10 7 0 -4 -7 -2 -13 4 -13 6 0 8 -6 4 -12 -4 -8 -3 -10 2 -5 5 5 9 13 9
18 0 5 4 8 10 7 5 -2 9 -9 7 -15 -2 -8 3 -10 13 -7 8 3 12 11 9 16 -4 6 1 6
13 -1 11 -6 22 -8 25 -6 3 3 5 -2 5 -10 0 -11 -3 -12 -14 -3 -10 8 -17 8 -26
-1 -9 -10 -8 -11 7 -5 11 4 17 3 14 -2 -4 -5 7 -10 23 -10 16 -1 29 3 29 8 0
5 -6 6 -12 2 -8 -4 -8 -2 1 7 10 11 15 11 18 1 3 -6 9 -10 14 -6 5 3 9 0 9 -5
0 -6 -5 -11 -11 -11 -5 0 -7 -5 -3 -11 5 -8 10 -6 18 7 6 11 18 20 26 22 10 3
9 -3 -5 -19 l-20 -22 23 14 c12 8 22 18 22 24 0 5 5 3 10 -5 9 -13 11 -13 21
0 8 12 9 9 3 -10 -6 -23 -6 -24 11 -10 17 14 17 13 11 -10 -5 -17 -4 -21 2
-11 6 8 17 11 25 8 11 -4 14 1 12 18 -1 14 2 22 6 19 5 -3 9 -12 9 -20 0 -8 5
-14 11 -14 5 0 7 4 4 10 -3 5 0 7 9 4 8 -3 12 -13 10 -22 -5 -14 -4 -14 6 1
12 19 35 13 23 -6 -5 -9 -3 -9 8 0 14 11 19 13 40 13 5 0 7 5 3 11 -5 8 -9 8
-14 -1 -5 -9 -9 -9 -14 -1 -4 6 -12 9 -17 6 -5 -3 -6 1 -2 10 3 9 9 12 12 7 3
-5 13 -9 21 -9 8 -1 30 -4 48 -7 20 -4 32 -2 32 4 0 6 -4 8 -10 5 -6 -4 -7 1
-4 12 5 16 4 16 -10 -1 -9 -11 -16 -15 -16 -9 0 6 7 16 15 23 12 10 16 9 21
-4 3 -9 11 -13 17 -9 6 4 8 -1 5 -14 -3 -13 0 -20 9 -20 8 0 11 7 7 19 -3 10
-1 18 5 18 5 0 12 -8 14 -17 4 -17 5 -17 6 0 0 9 6 17 11 17 6 0 10 -8 11 -17
0 -14 2 -15 6 -3 6 15 53 63 53 54 0 -3 -5 -15 -11 -27 -7 -12 -8 -19 -4 -15
5 4 15 2 24 -5 14 -11 15 -10 1 7 -14 18 -13 19 4 13 16 -6 17 -5 6 8 -14 16
-12 17 40 19 19 1 38 -3 42 -8 4 -6 11 -6 20 1 7 6 16 12 21 12 11 1 13 9 3
18 -6 5 -6 2 -1 -7 5 -8 5 -12 0 -8 -4 4 -14 3 -22 -3 -7 -6 -13 -7 -13 -3 0
5 9 15 20 22 12 7 18 17 15 22 -3 6 1 7 10 3 12 -4 13 -8 5 -13 -8 -5 -3 -9
11 -13 13 -4 25 -4 28 -2 2 3 -2 5 -10 5 -12 0 -12 2 1 10 9 6 20 5 29 -3 12
-9 13 -9 7 1 -4 6 -2 12 3 12 6 0 11 5 11 11 0 6 -5 7 -12 2 -20 -12 -48 -14
-48 -4 0 6 9 8 19 6 11 -2 25 3 32 11 6 8 18 14 26 14 8 0 11 5 7 13 -4 6 -4
9 1 5 4 -4 15 -2 24 4 12 10 12 8 -1 -8 -10 -11 -18 -25 -18 -30 0 -5 5 -2 10
6 9 13 11 13 21 0 9 -13 10 -12 5 3 -6 20 4 22 24 5 12 -11 12 -10 2 3 -6 9
-8 20 -4 24 4 5 0 5 -8 0 -12 -6 -13 -5 -3 5 11 12 16 11 29 -6 8 -10 12 -13
8 -5 -3 7 0 17 7 22 23 14 32 10 18 -8 -13 -16 -12 -17 3 -5 18 15 13 46 -6
35 -21 -14 -35 -11 -28 5 4 10 7 12 10 4 3 -9 9 -8 25 3 12 8 26 15 32 15 5 0
3 -5 -5 -10 -13 -8 -13 -11 -1 -22 8 -7 11 -8 8 -2 -9 15 13 32 36 29 9 -2 15
1 12 5 -3 5 -14 7 -25 5 -21 -4 -36 10 -21 19 5 4 12 2 15 -2 4 -7 30 -8 55
-3 2 1 -2 7 -8 15 -10 12 -8 17 9 26 11 6 26 8 33 4 9 -6 9 -5 0 7 -10 12 -8
15 8 16 11 1 17 -2 14 -7 -3 -5 -1 -12 5 -15 6 -4 9 -1 8 7 -2 7 3 12 10 10 8
-1 11 2 7 8 -3 6 -12 7 -18 4 -7 -4 -9 -4 -5 1 4 4 3 14 -3 22 -9 9 -8 13 0
13 6 0 11 -4 11 -9 0 -5 7 -11 15 -15 13 -5 14 -2 4 17 -11 20 -11 21 4 8 19
-15 23 -1 5 17 -9 9 -7 13 5 17 9 3 24 7 33 10 8 3 12 10 8 16 -4 8 -3 9 5 5
8 -5 9 -12 2 -20 -5 -6 -6 -18 -2 -25 10 -16 19 3 16 37 -1 15 4 22 16 22 10
0 21 5 24 10 4 6 12 7 18 3 7 -4 6 0 -2 10 -7 9 -10 17 -6 17 4 0 2 6 -4 14
-9 11 -9 16 0 22 7 4 9 3 6 -3 -4 -6 0 -14 9 -17 8 -3 12 -11 8 -17 -4 -8 -3
-9 5 -5 7 5 8 13 2 24 -7 13 -2 24 24 48 24 21 33 38 30 52 -2 12 1 24 6 28 5
3 9 2 8 -3 -3 -19 2 -25 14 -14 10 8 14 7 14 -4 0 -8 -4 -12 -8 -10 -3 3 -12
-2 -18 -9 -8 -10 -9 -16 -1 -21 5 -3 10 1 10 9 0 9 5 15 12 13 7 -1 13 5 13
13 0 8 7 14 14 12 7 -1 10 2 7 7 -4 5 1 14 10 19 13 7 14 13 5 30 -12 22 2 41
15 21 4 -8 3 -9 -4 -5 -18 11 -14 0 6 -15 9 -7 14 -9 9 -4 -4 4 1 17 10 28 11
13 12 17 4 12 -11 -6 -13 -4 -8 9 4 10 7 20 7 24 0 3 7 -3 15 -14 15 -18 15
-18 8 0 -4 13 -3 17 5 12 8 -5 10 -1 5 10 -5 12 -3 15 6 9 10 -6 11 -3 2 14
-10 17 -9 21 4 21 10 0 13 -5 9 -12 -4 -7 -3 -9 1 -5 16 14 14 40 -3 54 -10 8
-2 7 18 -3 29 -14 33 -15 22 -2 -10 13 -10 17 3 22 8 3 15 11 15 17 0 8 -6 7
-17 -2 -16 -12 -17 -12 -6 2 7 9 11 19 8 22 -3 4 -2 5 2 2 3 -3 13 1 22 8 14
11 14 10 2 -5 -9 -12 -10 -18 -2 -18 6 0 11 4 11 10 0 5 5 9 11 7 6 -1 14 5
16 13 3 12 2 12 -5 2 -7 -10 -11 -10 -22 3 -11 13 -10 18 4 34 10 11 14 26 10
37 -3 10 4 6 15 -11 l22 -30 -5 28 c-3 19 -1 27 7 24 7 -2 12 -9 12 -14 0 -6
3 -14 7 -18 3 -4 5 1 4 10 -1 10 -11 24 -22 33 -18 14 -18 14 4 9 12 -3 22 -2
22 3 0 12 -30 21 -42 13 -7 -3 -8 -1 -4 6 5 7 16 9 29 5 20 -6 21 -5 7 12 -14
18 -14 18 3 5 16 -13 20 -12 35 4 9 10 11 14 3 10 -10 -6 -12 -2 -6 14 5 17 3
20 -12 15 -14 -5 -13 -3 4 10 12 9 29 13 40 10 16 -6 16 -5 -2 9 -18 15 -18
16 -2 17 11 0 17 6 15 18 -2 9 2 16 9 15 7 -2 10 4 6 13 -4 11 -9 12 -16 5 -6
-6 -16 -11 -21 -11 -6 0 -3 5 6 10 10 6 15 19 13 30 -2 11 -1 18 4 16 4 -3 13
-1 21 5 11 6 11 9 2 9 -8 0 -6 8 7 22 11 11 18 24 16 28 -3 4 3 14 13 21 15
13 16 12 3 -3 -11 -15 -11 -18 0 -18 8 0 5 -6 -7 -16 -18 -15 -18 -15 2 -5 17
8 21 17 18 42 -3 26 -1 29 10 20 10 -8 16 -9 21 -1 4 6 1 9 -7 8 -8 -2 -12 4
-10 17 3 16 1 18 -9 8 -16 -16 -29 -17 -29 -3 0 6 5 9 12 8 7 -2 13 3 14 10 1
6 2 17 3 22 0 6 6 10 12 10 8 0 8 -5 -1 -15 -8 -9 -9 -15 -2 -15 17 0 25 20
13 34 -8 9 -7 18 3 31 10 14 15 15 21 5 5 -8 4 -11 -2 -7 -6 4 -14 0 -17 -8
-4 -13 -2 -14 15 -5 11 6 17 16 13 22 -4 5 0 14 7 19 12 7 11 9 -1 9 -12 0
-12 2 -2 9 11 7 11 9 -1 14 -11 4 -15 0 -12 -14 2 -10 0 -19 -6 -19 -7 0 -7
29 1 50 2 3 2 9 1 13 -1 5 3 6 9 2 6 -3 14 3 18 14 4 11 11 21 17 23 5 2 8 11
7 21 -3 18 21 49 32 42 3 -3 2 1 -4 7 -13 15 -13 31 -1 23 6 -3 8 6 5 21 -3
19 -1 24 8 18 7 -4 10 -3 5 1 -4 5 1 18 10 29 12 13 12 16 3 9 -22 -16 -45 30
-24 48 8 6 11 15 8 20 -3 5 1 6 9 3 8 -3 18 0 23 7 4 8 3 10 -4 5 -7 -4 -12
-3 -12 3 0 6 -8 8 -17 5 -14 -5 -15 -4 -4 4 8 6 21 8 30 5 9 -2 5 3 -9 12 -24
16 -24 16 -3 12 13 -3 26 0 30 5 3 6 2 9 -3 5 -5 -3 -18 1 -29 10 -19 13 -18
14 9 7 20 -5 27 -3 22 4 -3 6 2 16 11 22 17 11 17 11 1 6 -10 -3 -18 -2 -19 2
0 4 -2 20 -4 37 -2 16 -1 25 3 20 14 -20 41 -16 39 5 -1 11 -5 20 -10 20 -5 0
-6 -7 -3 -16 6 -14 4 -15 -9 -4 -13 11 -13 15 -3 22 10 6 10 10 -2 18 -9 6
-10 10 -3 10 6 0 15 -5 18 -10 8 -13 25 -3 25 13 0 9 -3 8 -8 -1 -6 -9 -12 -5
-21 14 -10 23 -10 25 1 16 10 -7 18 -8 28 0 12 8 12 9 -2 4 -10 -3 -19 -1 -19
4 -5 34 -2 44 11 47 13 4 13 3 0 -6 -12 -8 -11 -10 7 -8 21 1 21 3 6 19 -8 10
-21 15 -27 11 -7 -4 -6 -1 1 8 10 12 10 18 0 29 -6 7 0 5 15 -5 15 -9 25 -22
21 -28 -3 -6 -1 -7 6 -3 9 6 9 11 1 21 -7 8 -9 18 -6 24 4 5 -1 17 -10 25 -14
15 -13 16 8 16 l23 1 -25 15 c-18 11 -19 14 -5 9 15 -5 17 -3 8 6 -6 6 -9 18
-6 27 5 11 3 13 -7 7 -9 -5 -11 -4 -6 4 4 6 12 9 17 6 13 -9 11 9 -3 24 -11
10 -9 11 6 5 18 -7 18 -6 2 19 -10 15 -13 28 -7 31 5 3 8 21 7 39 -2 17 1 38
7 45 6 8 5 17 -3 27 -14 17 0 21 17 4 8 -8 13 -8 18 0 3 6 3 10 -2 9 -4 -2 -9
2 -11 7 -2 6 -11 18 -19 28 -14 15 -11 21 9 18 4 0 5 6 2 14 -4 8 -1 15 7 15
7 0 9 3 6 6 -4 4 -13 1 -21 -5 -11 -10 -14 -9 -12 1 1 7 5 18 9 25 4 6 1 14
-5 16 -7 3 2 4 20 2 18 -2 30 0 27 5 -3 5 -12 7 -19 4 -7 -3 -19 3 -27 12 -13
15 -11 16 11 10 19 -6 21 -5 10 3 -8 6 -11 11 -6 11 5 0 1 10 -10 22 -10 12
-13 18 -6 14 7 -4 12 -1 12 9 0 10 -5 13 -12 9 -9 -5 -9 -2 1 9 11 14 11 20 1
32 -15 18 -7 19 23 4 20 -9 21 -9 4 5 -10 8 -18 17 -18 20 3 19 0 27 -7 22
-10 -6 -9 30 1 40 12 13 7 24 -10 25 -15 0 -15 2 2 9 11 5 14 9 8 9 -8 1 -13
14 -13 32 0 20 -4 28 -12 23 -7 -4 -8 -3 -4 4 4 6 14 8 23 5 11 -4 14 -2 11 8
-3 8 -12 13 -20 11 -17 -3 -20 38 -3 50 6 4 1 8 -10 9 l-20 0 20 9 c18 8 18 9
2 9 -10 1 -15 6 -12 11 3 6 0 10 -7 10 -10 0 -10 2 -1 8 8 5 9 13 3 22 -6 8
-10 20 -9 25 0 6 6 -1 13 -15 8 -14 12 -28 10 -32 -2 -3 0 -9 5 -12 20 -13 4
41 -19 63 -17 17 -20 23 -7 18 21 -8 22 -1 2 19 -8 8 -11 22 -8 31 5 12 3 14
-8 8 -11 -7 -11 -5 1 10 8 10 10 16 4 12 -19 -11 -25 21 -6 33 15 10 14 11 -5
7 -15 -3 -20 -1 -16 9 3 8 9 11 14 8 5 -3 6 2 3 10 -3 9 -11 16 -18 16 -6 0
-4 5 4 10 12 8 12 10 1 10 -11 0 -11 3 -1 15 11 13 10 14 -5 9 -12 -5 -16 -4
-12 3 4 6 2 13 -3 15 -6 2 -13 12 -15 23 -2 11 -4 21 -5 23 -7 8 -5 29 4 41 9
12 7 13 -6 9 -17 -7 -19 7 -4 31 7 10 5 12 -4 6 -16 -10 -29 12 -24 42 3 15 0
22 -8 21 -7 -2 -12 3 -10 10 1 7 -4 20 -12 27 -8 8 -13 26 -12 39 2 14 -3 27
-11 30 -8 3 -11 10 -8 16 3 5 1 10 -4 10 -6 0 -11 6 -11 13 0 7 -6 19 -12 26
-7 6 -13 17 -13 24 -1 7 -7 11 -14 9 -7 -1 -10 1 -7 6 6 11 -16 62 -26 62 -5
0 -8 7 -8 15 0 8 -6 15 -12 15 -9 0 -8 4 2 10 13 8 12 10 -4 10 -11 0 -17 3
-13 6 6 6 -11 29 -50 70 -14 13 -19 25 -13 29 16 10 1 25 -17 18 -11 -4 -14
-3 -9 5 4 7 3 12 -3 12 -5 0 -13 9 -16 20 -4 11 -10 18 -14 15 -5 -2 -21 12
-37 32 -16 19 -39 45 -51 56 -12 11 -20 24 -17 29 3 5 2 7 -3 6 -4 -1 -28 17
-53 40 -25 23 -50 42 -57 42 -6 0 -13 3 -15 8 -5 12 -86 72 -97 72 -6 0 -11 5
-11 10 0 6 -8 10 -19 10 -10 0 -24 7 -31 15 -7 8 -27 17 -46 21 -19 3 -34 10
-34 14 0 9 -33 22 -67 26 -35 4 -63 15 -63 25 0 5 -110 9 -270 9 -183 0 -270
-3 -270 -11z m1585 -2297 c-3 -3 -11 0 -18 7 -9 10 -8 11 6 5 10 -3 15 -9 12
-12z m-60 -272 c3 -5 1 -10 -4 -10 -6 0 -11 5 -11 10 0 6 2 10 4 10 3 0 8 -4
11 -10z m-42 -196 c1 -4 -6 -8 -15 -10 -14 -2 -15 1 -5 17 11 17 14 16 20 -7z
m-13 -49 c-7 -8 -8 -20 -4 -27 5 -10 4 -10 -6 -1 -10 9 -10 15 -2 26 7 8 8 18
4 22 -4 5 -1 5 6 1 10 -6 10 -11 2 -21z m-25 -95 c3 -6 -1 -7 -9 -4 -18 7 -21
14 -7 14 6 0 13 -4 16 -10z m-180 -430 c3 -5 1 -10 -4 -10 -6 0 -11 5 -11 10
0 6 2 10 4 10 3 0 8 -4 11 -10z m-44 -97 c13 -17 13 -17 -6 -3 -11 8 -22 16
-24 17 -2 2 0 3 6 3 6 0 17 -8 24 -17z m-111 -153 c0 -5 -5 -10 -11 -10 -5 0
-7 5 -4 10 3 6 8 10 11 10 2 0 4 -4 4 -10z m-75 -100 c3 -5 1 -10 -4 -10 -6 0
-11 5 -11 10 0 6 2 10 4 10 3 0 8 -4 11 -10z m-10 -51 c-4 -5 -12 -9 -18 -8
-9 0 -8 2 1 6 6 2 9 10 6 15 -4 7 -2 8 5 4 6 -4 9 -12 6 -17z m-35 -19 c0 -5
-5 -10 -11 -10 -5 0 -7 5 -4 10 3 6 8 10 11 10 2 0 4 -4 4 -10z m-46 -101
c-10 -11 -20 -17 -23 -13 -3 3 2 10 12 15 9 6 15 15 12 20 -4 5 -11 6 -17 3
-7 -4 -8 -2 -4 5 6 9 11 9 22 0 13 -10 12 -14 -2 -30z m-160 -165 c3 -8 2 -12
-4 -9 -6 3 -10 10 -10 16 0 14 7 11 14 -7z m-54 -24 c0 -5 -5 -10 -11 -10 -5
0 -7 5 -4 10 3 6 8 10 11 10 2 0 4 -4 4 -10z m-180 -181 c0 -5 -4 -9 -8 -9 -5
0 -9 7 -9 15 0 8 4 12 9 9 4 -3 8 -9 8 -15z m-69 -32 c-10 -9 -11 -8 -5 6 3
10 9 15 12 12 3 -3 0 -11 -7 -18z m-1131 -147 c0 -5 -2 -10 -4 -10 -3 0 -8 5
-11 10 -3 6 -1 10 4 10 6 0 11 -4 11 -10z m840 -10 c0 -5 -2 -10 -4 -10 -3 0
-8 5 -11 10 -3 6 -1 10 4 10 6 0 11 -4 11 -10z m-130 -34 c0 -2 -7 -7 -16 -10
-8 -3 -12 -2 -9 4 6 10 25 14 25 6z m-320 -41 c7 -9 8 -15 2 -15 -5 0 -12 7
-16 15 -3 8 -4 15 -2 15 2 0 9 -7 16 -15z m80 5 c0 -5 -5 -10 -11 -10 -5 0 -7
5 -4 10 3 6 8 10 11 10 2 0 4 -4 4 -10z"/>
<path d="M9715 11320 c3 -5 8 -10 11 -10 2 0 4 5 4 10 0 6 -5 10 -11 10 -5 0
-7 -4 -4 -10z"/>
<path d="M5570 11281 c0 -6 4 -13 10 -16 6 -3 7 1 4 9 -7 18 -14 21 -14 7z"/>
<path d="M9783 11133 c0 -9 4 -10 14 -2 7 6 13 12 13 14 0 1 -6 2 -13 2 -8 0
-14 -6 -14 -14z"/>
<path d="M9797 11089 c7 -7 15 -10 18 -7 3 3 -2 9 -12 12 -14 6 -15 5 -6 -5z"/>
<path d="M9838 10943 c7 -3 16 -2 19 1 4 3 -2 6 -13 5 -11 0 -14 -3 -6 -6z"/>
<path d="M9885 10700 c-3 -5 -1 -10 4 -10 6 0 11 5 11 10 0 6 -2 10 -4 10 -3
0 -8 -4 -11 -10z"/>
<path d="M9908 10603 c7 -3 16 -2 19 1 4 3 -2 6 -13 5 -11 0 -14 -3 -6 -6z"/>
<path d="M9900 10536 c0 -2 8 -10 18 -17 15 -13 16 -12 3 4 -13 16 -21 21 -21
13z"/>
<path d="M9915 10431 c-3 -5 -2 -12 3 -15 5 -3 9 1 9 9 0 17 -3 19 -12 6z"/>
<path d="M9905 10290 c-3 -6 1 -7 9 -4 18 7 21 14 7 14 -6 0 -13 -4 -16 -10z"/>
<path d="M5993 10275 c0 -8 4 -12 9 -9 5 3 6 10 3 15 -9 13 -12 11 -12 -6z"/>
<path d="M9900 10236 c0 -3 9 -10 20 -16 11 -6 20 -8 20 -6 0 3 -9 10 -20 16
-11 6 -20 8 -20 6z"/>
<path d="M9913 10148 c-11 -19 -11 -58 0 -65 6 -3 7 -1 3 5 -4 7 -1 12 6 12
10 0 10 2 -1 9 -11 7 -11 9 0 14 12 5 12 6 0 6 -11 1 -11 4 -1 16 7 8 10 15 7
15 -3 0 -9 -6 -14 -12z"/>
<path d="M6013 10095 c0 -8 4 -12 9 -9 4 3 8 9 8 15 0 5 -4 9 -8 9 -5 0 -9 -7
-9 -15z"/>
<path d="M9909 10043 c-13 -16 -12 -17 4 -4 9 7 17 15 17 17 0 8 -8 3 -21 -13z"/>
<path d="M6025 10041 c-3 -5 -2 -12 3 -15 5 -3 9 1 9 9 0 17 -3 19 -12 6z"/>
<path d="M6026 9998 c3 -4 9 -8 15 -8 5 0 9 4 9 8 0 5 -7 9 -15 9 -8 0 -12 -4
-9 -9z"/>
<path d="M9895 9960 c-3 -6 1 -7 9 -4 18 7 21 14 7 14 -6 0 -13 -4 -16 -10z"/>
<path d="M6036 9927 c3 -10 9 -15 12 -12 3 3 0 11 -7 18 -10 9 -11 8 -5 -6z"/>
<path d="M6043 9855 c0 -8 4 -12 8 -9 4 2 10 -2 12 -8 4 -8 6 -9 6 -2 1 6 -5
17 -12 23 -10 8 -14 7 -14 -4z"/>
<path d="M9835 9630 c-3 -6 1 -7 9 -4 18 7 21 14 7 14 -6 0 -13 -4 -16 -10z"/>
<path d="M9796 9467 c-18 -13 -18 -14 0 -21 10 -4 15 -4 11 0 -4 4 -2 13 4 21
15 17 8 17 -15 0z"/>
<path d="M6070 9319 c0 -5 5 -7 10 -4 6 3 10 8 10 11 0 2 -4 4 -10 4 -5 0 -10
-5 -10 -11z"/>
<path d="M9724 9208 c-10 -13 -15 -20 -10 -16 5 4 16 2 25 -5 14 -10 14 -10 3
5 -10 13 -10 17 0 21 7 2 10 7 7 11 -3 3 -14 -4 -25 -16z"/>
<path d="M9594 8895 c-10 -8 -14 -15 -8 -15 5 0 19 7 30 15 10 8 14 15 8 15
-5 0 -19 -7 -30 -15z"/>
<path d="M9442 8608 c-16 -16 -15 -33 1 -19 8 6 17 8 21 4 4 -4 4 0 0 10 -7
20 -7 20 -22 5z"/>
<path d="M1495 8500 c-3 -6 -21 -10 -40 -10 -19 0 -37 -4 -40 -10 -3 -5 -19
-10 -35 -10 -16 0 -32 -4 -35 -10 -3 -5 -15 -10 -26 -10 -10 0 -19 -4 -19 -10
0 -5 -6 -10 -14 -10 -19 0 -136 -62 -136 -72 0 -4 -6 -8 -14 -8 -28 0 -212
-193 -270 -282 -31 -48 -56 -92 -56 -97 0 -5 -4 -11 -8 -13 -10 -3 -64 -116
-112 -233 -15 -34 -49 -139 -53 -160 -2 -11 -7 -27 -10 -35 -3 -8 -8 -28 -12
-45 -3 -16 -11 -48 -17 -70 -15 -51 -23 -781 -9 -810 5 -11 12 -42 15 -70 7
-65 21 -140 36 -190 6 -22 13 -50 15 -61 1 -12 8 -31 14 -42 6 -11 11 -30 11
-41 0 -12 4 -29 9 -39 5 -9 17 -44 26 -77 21 -76 36 -117 47 -129 4 -6 8 -20
8 -32 0 -13 5 -26 10 -29 6 -3 10 -15 10 -26 0 -10 5 -19 10 -19 6 0 10 -8 10
-18 0 -10 13 -44 30 -77 16 -33 30 -67 30 -77 0 -9 5 -18 11 -20 7 -2 12 -18
13 -35 0 -17 4 -29 7 -28 9 6 39 -33 39 -50 0 -8 5 -15 11 -15 5 0 8 -4 5 -8
-3 -5 6 -20 20 -35 14 -15 22 -27 19 -27 -6 0 -2 -6 41 -75 14 -22 27 -48 31
-57 3 -10 9 -18 14 -18 5 0 9 -10 9 -22 0 -12 3 -19 6 -15 3 3 12 0 19 -6 9
-9 10 -16 2 -25 -6 -7 -6 -12 -1 -10 5 2 20 -8 33 -21 19 -19 21 -25 10 -33
-11 -7 -10 -8 3 -6 9 2 17 -1 17 -7 0 -5 9 -12 20 -17 12 -4 21 -16 21 -28 0
-12 4 -19 9 -16 5 3 14 -8 21 -24 7 -16 21 -32 32 -36 11 -3 17 -8 15 -10 -3
-3 13 -22 34 -43 22 -21 39 -41 39 -44 0 -11 62 -67 73 -67 6 0 7 -3 4 -6 -3
-4 5 -15 18 -26 14 -11 25 -27 25 -36 0 -15 2 -15 10 -2 9 13 10 13 10 0 0 -9
-6 -22 -12 -30 -7 -8 -3 -6 10 4 19 17 22 17 22 3 0 -10 6 -14 14 -11 9 4 13
-2 11 -20 -2 -15 1 -24 6 -20 5 3 7 11 3 17 -3 7 0 5 8 -3 7 -8 25 -21 40 -29
17 -9 24 -19 21 -29 -4 -9 -2 -13 4 -9 17 11 42 -3 36 -19 -3 -10 0 -12 10 -8
8 3 18 0 23 -7 5 -8 3 -10 -6 -4 -9 6 -11 4 -6 -4 5 -7 14 -10 21 -8 6 3 24
-6 38 -19 14 -13 33 -24 42 -24 14 0 20 -12 16 -34 -1 -5 6 -3 15 5 16 12 17
12 12 -3 -5 -12 -1 -16 18 -13 14 1 22 0 20 -3 -3 -2 2 -11 10 -19 8 -8 12
-18 10 -22 -3 -4 5 -8 17 -8 20 -2 20 -1 5 8 -10 6 -18 15 -18 20 0 6 7 3 16
-6 9 -9 22 -14 30 -11 7 3 18 -2 24 -9 7 -8 16 -12 21 -9 5 3 12 -2 15 -10 3
-9 11 -13 18 -9 6 4 5 -1 -3 -10 -8 -10 -11 -20 -7 -24 3 -3 6 -2 6 4 0 22 42
22 62 0 11 -12 17 -17 14 -10 -4 6 -2 15 4 18 6 4 10 3 9 -2 -4 -26 1 -35 15
-24 11 9 16 9 22 0 4 -8 3 -9 -4 -5 -18 11 -14 0 5 -15 11 -10 14 -10 9 -1 -4
6 -2 12 3 12 6 0 11 -4 11 -9 0 -5 7 -11 15 -15 13 -4 14 -2 5 14 -9 16 -8 18
5 14 8 -4 16 -10 16 -15 1 -5 2 -13 3 -18 0 -5 5 -13 10 -18 5 -5 6 -3 2 5
-10 17 4 15 28 -5 12 -10 18 -14 14 -9 -4 5 -2 16 5 25 10 14 10 14 -4 3 -14
-10 -18 -10 -23 3 -3 9 -11 13 -17 9 -8 -5 -9 -3 -4 5 5 9 10 10 18 2 15 -15
30 -14 21 2 -4 6 2 4 14 -6 12 -11 26 -16 33 -11 8 5 10 3 4 -6 -6 -10 -4 -12
8 -7 22 8 32 -10 15 -31 -12 -15 -11 -16 5 -3 11 8 15 21 12 32 -4 11 -2 19 5
19 6 0 9 -3 6 -8 -2 -4 2 -18 10 -32 7 -14 13 -19 14 -11 0 11 3 11 18 0 15
-13 16 -12 3 3 -7 10 -17 15 -22 12 -5 -3 -9 -1 -9 4 0 20 27 19 39 0 7 -11
15 -17 18 -14 4 3 12 1 20 -5 9 -9 13 -8 13 0 0 6 -4 12 -10 12 -5 1 -14 2
-19 3 -5 0 -13 5 -18 10 -5 5 -3 6 5 2 7 -4 15 -1 18 8 3 9 11 13 16 10 7 -4
7 -9 0 -13 -6 -3 0 -11 14 -18 21 -10 23 -9 14 8 -8 15 -7 17 5 13 8 -4 15
-10 15 -15 0 -5 10 -9 23 -9 12 0 33 0 47 -1 13 0 31 -5 40 -12 13 -10 13 -10
2 5 -12 15 -10 16 20 14 18 -2 32 -8 31 -15 -2 -6 2 -11 7 -11 9 0 14 14 11
33 0 4 4 7 9 7 6 0 10 -4 10 -8 0 -4 9 -8 19 -9 15 -1 18 3 14 15 -5 13 -4 15
8 7 18 -13 38 -12 67 3 18 10 22 10 22 0 0 -7 8 -1 18 15 10 15 22 24 25 20 4
-3 7 0 7 7 0 9 5 7 14 -5 8 -11 12 -24 8 -30 -3 -5 3 -3 14 5 29 22 30 24 12
17 -22 -8 -33 9 -12 17 9 4 24 1 33 -6 9 -7 5 1 -9 17 -14 17 -17 23 -6 15 16
-12 20 -12 30 2 11 16 13 15 26 -2 12 -17 14 -16 41 13 17 18 29 25 29 18 0
-8 3 -11 6 -8 4 4 2 13 -4 20 -7 8 -9 16 -6 20 9 9 35 -4 28 -14 -8 -14 6 -11
21 4 9 10 10 19 3 31 -7 12 -6 21 2 29 9 9 11 7 8 -8 -2 -14 3 -20 19 -21 12
-1 20 3 17 8 -3 4 -11 5 -17 1 -8 -4 -7 -1 1 9 7 9 9 18 3 20 -5 1 -2 10 7 18
14 13 15 13 10 -1 -3 -9 -2 -22 3 -30 7 -12 10 -12 21 0 10 10 10 12 1 7 -9
-5 -12 0 -11 18 1 13 7 24 13 23 5 -1 11 5 11 13 1 8 2 19 3 24 0 5 7 3 15 -3
10 -8 16 -9 21 -1 3 5 2 10 -4 10 -11 0 -9 26 4 37 4 4 6 3 2 -2 -8 -15 8 -38
27 -41 9 -1 14 2 10 7 -3 5 -9 7 -13 5 -4 -3 -8 1 -8 9 0 10 5 11 18 4 14 -7
17 -6 14 4 -3 7 1 21 9 32 14 19 15 18 10 -10 -3 -16 -2 -27 1 -23 4 3 7 13 9
21 1 8 8 23 16 33 9 11 10 15 2 10 -15 -9 -15 -4 -1 28 7 14 19 28 27 31 12 4
12 1 -3 -15 -15 -16 -16 -23 -6 -33 10 -9 11 -8 5 7 -6 15 -4 17 6 11 8 -5 11
-4 7 2 -8 12 17 36 26 26 4 -3 7 -1 7 6 0 8 -7 11 -15 7 -8 -3 -15 -1 -15 4 0
9 14 14 32 11 5 0 7 5 5 12 -1 7 6 11 18 9 12 -2 16 0 9 5 -17 12 -22 48 -11
69 6 10 11 26 12 34 0 8 6 14 13 13 6 -2 12 2 12 7 0 6 5 10 11 10 8 0 8 -5
-1 -15 -7 -8 -17 -12 -23 -8 -6 4 -8 0 -4 -9 3 -9 -1 -25 -9 -36 -10 -15 -11
-23 -3 -28 8 -4 9 -3 5 5 -4 6 0 14 8 17 9 3 13 10 10 15 -3 5 0 9 6 9 6 0 9
4 5 9 -3 5 5 17 17 25 12 9 17 16 11 16 -6 0 -9 9 -5 22 3 14 2 19 -7 14 -6
-4 -9 -11 -7 -15 3 -4 -5 -8 -16 -8 -21 -2 -21 -2 1 13 12 9 18 21 14 27 -3 7
3 3 15 -7 12 -11 25 -16 29 -13 3 4 2 7 -4 7 -6 0 -13 9 -16 21 -4 14 -10 18
-19 13 -7 -4 -9 -3 -5 1 12 14 40 15 54 3 9 -7 13 -7 13 1 0 6 -5 11 -11 11
-8 0 -8 4 0 14 6 8 10 20 9 27 -2 8 2 13 9 12 7 -2 10 6 8 17 -2 11 0 22 6 25
5 4 6 17 3 31 -4 15 -2 24 6 24 6 0 9 -4 5 -9 -3 -5 -1 -12 4 -15 5 -4 8 2 6
11 -1 10 2 24 8 31 6 7 6 12 1 11 -18 -3 -34 1 -34 10 0 5 7 8 16 7 9 0 19 5
21 12 3 6 0 12 -7 12 -6 0 -8 -4 -5 -10 4 -6 -1 -7 -11 -3 -15 5 -14 7 2 16
28 15 28 15 14 32 -9 11 -10 19 -3 26 8 8 13 7 18 -2 5 -8 4 -10 -3 -5 -7 4
-12 3 -12 -2 0 -6 6 -12 14 -15 11 -4 13 1 10 19 -3 19 -1 24 8 18 7 -4 10 -4
6 1 -4 4 -3 14 2 20 12 14 2 48 -10 40 -5 -3 -12 0 -16 6 -4 7 -3 9 3 6 6 -4
16 0 23 8 7 8 17 12 24 8 6 -4 5 1 -3 10 -10 12 -10 21 -3 30 12 14 4 31 -18
40 -12 4 -11 6 3 6 9 1 17 8 17 17 0 14 2 15 18 3 15 -13 16 -12 3 4 -12 15
-12 19 5 32 13 11 14 13 3 10 -9 -3 -22 2 -30 11 -13 15 -11 16 11 10 19 -6
21 -5 10 3 -8 6 -11 11 -6 11 5 0 1 10 -10 22 -10 12 -13 18 -6 14 7 -4 12 -1
12 9 0 10 -5 13 -12 9 -9 -5 -9 -2 1 9 11 14 11 20 0 34 -12 15 -12 16 3 10
10 -3 22 1 30 11 11 13 11 14 -1 7 -11 -6 -13 -4 -8 8 3 9 2 19 -3 22 -5 3 -7
12 -4 20 4 8 10 12 15 9 5 -3 6 2 3 10 -6 15 -18 20 -37 17 -5 -1 -6 3 -2 8 3
6 12 8 20 4 8 -3 15 -1 15 5 0 5 -7 12 -15 16 -21 8 -19 21 8 34 12 6 16 11 9
11 -7 1 -11 5 -7 10 3 5 1 12 -4 16 -6 3 -8 -4 -6 -15 2 -11 0 -18 -5 -15 -9
6 -8 24 3 42 6 9 3 11 -10 7 -10 -3 -7 2 7 11 19 12 21 15 6 13 -11 -2 -20 4
-21 15 -2 9 1 15 6 11 5 -3 9 2 9 10 0 8 -4 18 -10 21 -6 4 -5 11 3 19 6 8 16
11 21 8 5 -3 6 0 2 6 -4 6 -14 8 -24 5 -15 -6 -14 -3 2 16 20 22 20 22 0 15
-17 -7 -17 -6 -5 9 7 9 9 17 3 17 -14 0 -22 39 -10 47 7 4 8 1 3 -7 -5 -9 -4
-11 3 -6 17 10 15 26 -2 26 -8 0 -18 4 -21 10 -3 6 1 7 9 4 21 -8 20 0 -1 22
-17 17 -17 17 5 12 12 -3 22 -3 22 2 0 4 -8 10 -18 12 -19 5 -23 32 -9 55 4 6
2 15 -4 19 -8 5 -9 3 -4 -7 8 -12 6 -12 -8 0 -23 18 -11 34 16 20 l22 -12 -20
20 c-11 11 -24 18 -30 15 -5 -3 -4 2 4 11 9 11 10 17 2 17 -6 0 -11 5 -11 11
0 5 4 8 8 5 4 -2 14 0 22 6 13 8 12 9 -2 5 -22 -8 -30 3 -15 21 10 13 8 14
-13 7 -25 -7 -25 -7 -5 10 11 9 15 14 8 11 -6 -4 -14 -2 -18 4 -3 5 2 10 12
11 13 0 12 3 -7 11 -24 10 -24 10 -5 18 16 7 17 9 3 9 -9 1 -20 5 -23 11 -3 6
1 7 10 4 11 -5 14 -2 9 10 -3 9 -11 13 -17 9 -6 -3 -7 -1 -3 5 4 7 2 12 -5 12
-7 0 -4 7 7 16 10 8 14 13 8 10 -7 -3 -15 1 -18 10 -3 8 -2 12 3 9 5 -3 13 0
17 6 4 7 3 9 -3 6 -14 -9 -41 24 -38 46 2 10 -3 34 -11 53 -8 19 -11 34 -8 34
4 0 2 6 -5 13 -8 10 -7 17 2 27 10 10 8 12 -7 6 -14 -5 -17 -2 -12 9 3 8 0 15
-6 15 -6 0 -5 6 3 17 8 10 9 14 2 10 -6 -4 -14 -3 -18 3 -3 5 -1 10 4 10 6 0
11 4 11 10 0 5 -6 7 -14 4 -17 -6 -29 23 -14 32 7 5 8 2 3 -6 -5 -9 -4 -11 4
-6 6 4 9 12 5 17 -3 5 -10 7 -16 3 -5 -3 -8 2 -7 12 4 23 -19 67 -31 59 -14
-9 -4 26 11 36 10 8 9 9 -8 4 -17 -5 -20 -2 -16 13 2 10 -3 24 -11 31 -9 8
-16 19 -16 25 0 18 -24 66 -32 66 -5 0 -8 5 -8 11 0 5 6 7 13 4 6 -4 2 2 -9
12 -12 11 -25 30 -29 44 -4 13 -13 31 -20 39 -7 8 -16 26 -20 40 -4 14 -19 40
-33 59 -22 30 -23 36 -12 55 11 18 11 19 -1 10 -11 -9 -17 -9 -27 2 -7 8 -8
14 -3 14 6 0 -1 11 -15 25 -14 14 -33 43 -43 65 -10 22 -21 37 -26 32 -4 -4
-5 1 -2 10 4 11 2 17 -6 15 -7 -1 -11 4 -9 11 1 6 -3 12 -10 12 -6 0 -8 3 -5
7 4 3 -2 13 -13 20 -11 8 -18 19 -15 24 4 5 1 9 -5 9 -6 0 -8 4 -5 10 4 6 -1
7 -11 3 -11 -4 -15 -2 -11 4 4 6 -14 31 -38 56 -25 25 -45 48 -45 51 0 4 -15
21 -32 38 -18 18 -32 39 -30 46 2 10 -2 13 -12 9 -9 -4 -16 -3 -16 2 0 5 -27
35 -59 67 -33 32 -57 62 -55 66 3 5 2 7 -3 6 -13 -5 -93 64 -93 80 0 9 -3 13
-6 9 -5 -5 -44 22 -119 81 -36 29 -136 92 -144 92 -6 0 -11 5 -11 10 0 6 -9
10 -20 10 -11 0 -20 3 -20 8 0 8 -49 32 -67 32 -7 0 -13 5 -13 10 0 6 -9 10
-19 10 -11 0 -23 5 -26 10 -3 6 -17 10 -30 10 -13 0 -27 5 -30 10 -3 6 -17 10
-31 10 -13 0 -24 5 -24 10 0 6 -15 10 -34 10 -19 0 -38 5 -41 10 -3 6 -26 10
-51 10 -24 0 -44 4 -44 9 0 13 -417 13 -425 1z m1960 -1520 c3 -5 1 -10 -4
-10 -6 0 -11 5 -11 10 0 6 2 10 4 10 3 0 8 -4 11 -10z m216 -1158 c-7 -13 -7
-22 0 -29 6 -6 4 -15 -8 -24 -16 -13 -17 -12 -5 3 10 12 10 17 1 20 -9 3 -9 9
0 26 6 12 14 22 17 22 2 0 0 -8 -5 -18z m-27 -224 c-5 -7 -2 -9 9 -5 11 4 14
2 10 -9 -4 -11 -9 -12 -19 -3 -12 10 -11 29 2 29 3 0 2 -5 -2 -12z m4 -94 c-1
-5 -9 -9 -16 -10 -10 -2 -11 1 -1 12 12 14 24 13 17 -2z m-2 -36 c4 -7 3 -8
-4 -4 -7 4 -12 2 -12 -4 0 -6 -5 -8 -11 -4 -8 4 -7 9 2 15 18 11 17 11 25 -3z
m-6 -68 c0 -9 -31 -30 -44 -30 -3 0 2 9 11 20 19 21 33 26 33 10z m-70 -220
c0 -4 -7 -11 -16 -14 -13 -5 -14 -4 -6 7 7 8 8 18 4 22 -4 5 -1 5 6 1 6 -4 12
-11 12 -16z m-15 -40 c-3 -5 -11 -10 -16 -10 -6 0 -7 5 -4 10 3 6 11 10 16 10
6 0 7 -4 4 -10z m-32 -37 c-5 -12 -3 -14 7 -8 9 6 11 4 5 -4 -5 -9 -11 -9 -17
-3 -6 6 -7 15 -4 21 11 17 16 13 9 -6z m-103 -242 c0 -5 -8 -15 -17 -22 -16
-12 -17 -12 -6 2 7 9 10 19 6 22 -3 4 -1 7 5 7 7 0 12 -4 12 -9z m-130 -151
c0 -5 -2 -10 -4 -10 -3 0 -8 5 -11 10 -3 6 -1 10 4 10 6 0 11 -4 11 -10z
m-180 -190 c0 -5 -2 -10 -4 -10 -3 0 -8 5 -11 10 -3 6 -1 10 4 10 6 0 11 -4
11 -10z m-75 -46 c-16 -24 -18 -25 -27 -10 -5 10 -7 20 -4 23 3 4 6 1 6 -5 0
-20 18 -13 25 9 4 11 9 18 12 15 3 -3 -2 -17 -12 -32z m-266 -98 c-3 -3 -11 5
-18 17 -13 21 -12 21 5 5 10 -10 16 -20 13 -22z m46 24 c13 11 18 11 28 0 9
-10 9 -11 -1 -5 -8 4 -21 0 -30 -9 -16 -14 -19 -13 -31 7 -13 20 -13 21 2 8
14 -11 20 -11 32 -1z m-222 -34 c21 4 21 4 2 -5 -12 -5 -27 -5 -38 1 -9 5 -22
6 -27 3 -6 -3 -7 1 -4 9 5 14 9 14 26 2 10 -8 29 -12 41 -10z m41 8 c5 -14 4
-15 -9 -4 -17 14 -19 20 -6 20 5 0 12 -7 15 -16z m52 -4 c0 -12 -4 -16 -9 -11
-5 5 -6 14 -3 20 10 15 12 14 12 -9z m44 10 c0 -5 -2 -10 -4 -10 -3 0 -8 5
-11 10 -3 6 -1 10 4 10 6 0 11 -4 11 -10z"/>
<path d="M10860 8500 c0 -5 -15 -10 -34 -10 -19 0 -37 -6 -39 -12 -4 -10 -6
-10 -6 0 -1 8 -6 9 -18 3 -10 -5 -38 -14 -63 -21 -25 -7 -53 -16 -62 -21 -10
-5 -27 -9 -37 -9 -11 0 -23 -4 -26 -10 -3 -5 -15 -10 -26 -10 -10 0 -19 -4
-19 -10 0 -5 -8 -10 -17 -10 -10 0 -29 -9 -43 -20 -14 -11 -33 -20 -42 -20
-10 0 -18 -4 -18 -10 0 -5 -5 -10 -11 -10 -9 0 -127 -76 -139 -89 -3 -3 -25
-19 -49 -36 -24 -16 -45 -35 -48 -42 -3 -7 -9 -13 -14 -13 -16 0 -283 -272
-328 -333 -23 -32 -49 -61 -57 -64 -8 -3 -14 -9 -14 -14 0 -13 -42 -72 -57
-82 -7 -4 -13 -15 -13 -22 0 -8 -4 -15 -9 -15 -5 0 -11 -8 -15 -17 -3 -10 -21
-38 -40 -63 -19 -25 -35 -51 -35 -57 -1 -7 -5 -13 -9 -13 -5 0 -16 -17 -25
-37 -9 -21 -25 -54 -36 -73 -43 -77 -141 -295 -161 -360 -8 -25 -20 -56 -27
-69 -6 -14 -10 -28 -7 -33 3 -4 0 -8 -5 -8 -6 0 -11 -11 -11 -24 0 -14 -4 -28
-10 -31 -5 -3 -10 -15 -10 -25 0 -10 -5 -20 -11 -22 -5 -2 -11 -18 -11 -36 -1
-17 -5 -32 -10 -32 -4 0 -8 -16 -8 -35 0 -19 -5 -35 -11 -35 -5 0 -9 -8 -8
-17 1 -10 -2 -36 -6 -58 -5 -22 -9 -43 -10 -47 0 -3 -3 -10 -7 -14 -5 -4 -8
-24 -8 -44 0 -20 -5 -41 -10 -46 -6 -6 -11 -32 -13 -60 -2 -27 -7 -55 -11 -62
-4 -7 -9 -44 -11 -81 -1 -38 -5 -73 -9 -80 -10 -16 -10 -462 0 -470 5 -3 10
-35 11 -70 1 -35 6 -67 10 -70 4 -3 9 -26 11 -51 2 -25 7 -46 12 -48 5 -2 7
-9 4 -16 -3 -7 1 -26 7 -42 16 -37 14 -30 23 -94 5 -30 11 -57 15 -60 3 -3 14
-19 24 -37 12 -21 14 -32 6 -35 -8 -3 -6 -10 6 -21 10 -11 15 -26 12 -38 -4
-14 -2 -19 8 -15 12 4 26 -21 28 -54 1 -8 7 -19 14 -23 7 -4 13 -18 13 -29 0
-12 3 -18 7 -15 8 9 54 -84 47 -95 -3 -5 -1 -7 4 -6 6 2 11 -1 13 -7 2 -5 16
-23 32 -38 16 -15 26 -34 23 -42 -3 -10 0 -12 11 -8 12 5 15 2 10 -10 -3 -9
-2 -17 4 -17 6 0 7 -6 3 -12 -4 -7 -4 -10 1 -6 11 10 45 -10 45 -27 0 -8 5
-15 11 -15 5 0 7 -4 4 -10 -3 -5 1 -10 9 -10 9 0 16 -5 16 -11 0 -5 6 -7 13
-3 7 5 6 0 -3 -11 -8 -10 -10 -16 -3 -12 6 4 18 0 26 -8 9 -8 22 -15 29 -15
10 0 9 -3 -2 -10 -12 -8 -11 -10 6 -10 12 0 33 -12 47 -26 14 -14 30 -23 36
-20 5 4 12 -3 16 -14 3 -11 13 -20 21 -20 22 0 28 -2 43 -17 7 -8 19 -12 27
-9 18 7 38 -20 30 -41 -6 -16 -5 -15 13 1 11 10 21 13 25 7 4 -5 2 -12 -4 -16
-5 -3 -10 -12 -10 -18 0 -8 3 -7 9 2 6 8 14 10 22 5 8 -5 19 -9 24 -10 28 -5
41 -10 48 -19 5 -5 6 1 3 15 -3 14 -3 19 0 12 5 -10 9 -10 22 0 14 10 15 10 5
-2 -17 -18 -16 -27 2 -27 8 0 12 4 9 9 -3 4 0 8 5 8 6 0 11 -8 12 -17 0 -14 2
-13 9 5 12 27 20 29 13 2 -3 -12 0 -20 6 -20 7 0 10 4 6 9 -3 5 0 13 6 17 7 4
9 3 6 -2 -3 -6 -2 -16 4 -24 7 -13 9 -12 9 3 0 9 5 17 12 17 6 0 8 -3 5 -6 -3
-4 -2 -15 4 -26 8 -14 14 -17 23 -9 7 6 16 7 21 3 4 -4 2 3 -4 15 -10 19 -9
22 4 17 8 -4 15 -10 15 -15 0 -5 10 -9 23 -9 12 0 33 0 47 -1 13 0 31 -5 40
-12 13 -10 13 -10 2 5 -12 15 -10 16 20 14 18 -2 32 -8 31 -15 -2 -6 2 -11 7
-11 9 0 14 14 11 33 0 4 4 7 9 7 6 0 10 -5 10 -11 0 -5 5 -7 10 -4 6 3 13 -1
16 -10 6 -13 8 -14 15 -3 5 7 9 18 9 23 0 6 -5 3 -10 -5 -5 -8 -10 -10 -10 -5
0 6 5 17 10 25 8 12 10 12 10 1 0 -11 3 -11 16 -1 8 8 14 9 12 3 -2 -6 0 -11
5 -12 20 -3 28 0 23 8 -4 5 2 8 11 7 10 -2 24 4 31 13 11 14 11 13 2 -7 -6
-12 -15 -20 -19 -17 -5 2 -15 -3 -22 -12 -10 -12 -10 -14 -1 -9 7 4 12 2 12
-5 0 -7 6 -5 13 6 8 10 19 15 25 11 7 -4 10 -2 6 7 -3 8 3 20 13 28 17 13 17
13 4 -4 -13 -17 -12 -18 15 -13 16 4 23 3 17 0 -7 -3 -13 -13 -13 -22 0 -13 3
-12 15 5 10 14 22 20 33 17 14 -5 14 -4 2 4 -8 6 -18 8 -22 6 -4 -3 -8 0 -8 5
0 13 2 13 34 1 16 -6 27 -6 31 1 4 5 11 6 17 3 7 -4 8 -2 4 4 -4 7 3 10 23 7
19 -2 31 2 35 11 3 8 2 13 -3 10 -5 -3 -11 1 -15 9 -3 8 0 17 6 21 7 4 8 3 4
-4 -4 -7 -1 -12 8 -12 8 0 17 6 19 13 4 9 6 9 6 0 1 -7 8 -10 19 -7 14 5 14 4
2 -4 -8 -6 -18 -8 -22 -6 -4 3 -8 0 -8 -5 0 -15 12 -14 35 3 11 8 31 12 45 10
14 -2 19 -1 13 2 -15 7 5 52 33 75 14 10 13 6 -4 -18 -12 -17 -22 -35 -22 -40
0 -4 5 -1 10 7 9 13 11 13 21 0 8 -12 9 -9 3 10 -6 23 -6 24 11 10 11 -9 16
-10 11 -3 -4 7 -2 21 4 30 11 17 11 17 6 0 -4 -12 -2 -17 6 -14 7 2 12 11 10
18 -1 8 4 6 13 -5 13 -18 14 -17 10 13 -2 17 0 29 5 26 4 -3 13 2 20 10 14 17
34 10 23 -8 -4 -7 4 -4 19 5 18 12 28 14 36 6 7 -7 10 -5 7 8 -2 11 -4 21 -4
23 -1 2 -9 -3 -20 -13 -17 -15 -19 -15 -32 1 -13 16 -12 17 3 5 10 -8 19 -9
22 -3 3 5 3 11 -1 14 -5 2 -2 2 5 1 7 -2 21 5 32 16 11 11 20 16 20 12 0 -4
-5 -13 -11 -19 -8 -8 -7 -13 2 -18 8 -5 10 -4 5 4 -4 6 0 14 8 17 9 3 13 10
10 15 -7 12 10 11 22 -1 6 -6 10 -3 10 9 0 13 -5 17 -15 13 -14 -5 -14 -4 -1
10 8 9 17 12 18 7 2 -5 8 -9 14 -9 6 0 7 7 4 16 -4 11 1 18 14 21 18 5 24 15
21 36 0 4 4 7 10 7 6 0 9 -7 6 -15 -4 -8 -1 -17 5 -21 6 -4 8 -3 4 4 -3 6 -2
14 4 17 8 5 7 11 -1 21 -17 20 0 17 19 -4 10 -9 14 -13 10 -9 -3 5 1 17 10 28
13 15 19 16 31 6 12 -9 13 -9 8 0 -5 7 1 21 12 32 11 11 16 23 11 26 -5 3 -16
-7 -24 -22 -8 -15 -15 -23 -16 -18 0 22 31 54 47 48 9 -4 14 -2 10 3 -3 6 -1
16 5 24 8 13 9 12 5 -1 -4 -12 1 -16 19 -16 22 -1 23 1 7 12 -15 11 -15 13 5
24 13 7 28 9 34 5 6 -4 8 -3 4 4 -3 5 -3 12 1 15 5 2 3 2 -4 1 -7 -2 -10 3 -6
12 6 17 15 18 32 2 10 -11 11 -9 5 6 -5 13 -4 17 3 13 12 -7 11 31 0 50 -3 5
0 10 7 10 8 0 12 -6 9 -13 -3 -9 2 -12 17 -9 13 2 25 7 29 11 3 4 -1 5 -10 2
-9 -4 -16 -1 -16 7 0 7 7 11 16 8 11 -3 10 0 -3 11 -11 9 -14 16 -7 16 7 0 9
5 5 12 -4 7 -3 8 4 4 7 -4 12 -2 12 3 0 6 4 11 8 11 5 0 9 -7 9 -15 0 -8 -4
-12 -8 -9 -4 2 -11 -1 -14 -7 -5 -7 0 -10 11 -7 13 2 19 12 18 30 0 15 2 26 4
24 5 -6 42 32 42 42 0 5 8 16 19 26 10 9 17 27 15 41 -1 14 2 22 7 19 14 -8
40 16 32 29 -4 6 -1 7 6 3 9 -6 9 -12 -3 -25 -9 -10 -16 -21 -16 -26 0 -4 14
9 32 29 33 39 43 76 24 89 -6 4 4 5 22 2 19 -3 32 -1 32 5 0 6 -4 9 -9 6 -5
-3 -11 3 -14 14 -4 17 -2 18 16 8 12 -6 19 -7 14 -3 -4 5 1 17 10 28 10 11 13
17 7 14 -7 -4 -15 0 -18 9 -3 8 -2 12 4 9 6 -3 10 -1 10 4 0 6 7 11 16 11 13
0 14 3 4 14 -9 12 -7 18 10 33 12 10 28 23 35 30 7 7 16 9 19 5 4 -3 4 2 0 12
-5 14 -4 17 5 12 6 -4 11 -4 10 1 -4 22 2 43 11 38 6 -4 7 1 3 11 -5 13 -3 15
7 9 9 -5 11 -4 6 4 -4 6 -12 8 -18 5 -6 -4 -8 -2 -4 4 3 5 0 13 -6 15 -10 4
-10 6 0 6 7 1 10 6 6 13 -4 6 -3 9 2 5 5 -3 18 2 29 10 19 15 19 15 -10 9 -22
-5 -26 -4 -14 4 9 5 27 11 39 13 16 3 24 11 26 30 1 15 -2 27 -7 27 -5 0 -9 5
-9 11 0 5 5 7 10 4 6 -3 10 -1 10 4 0 6 3 10 8 9 8 -3 12 5 12 23 0 8 -4 8
-14 0 -11 -9 -16 -9 -22 0 -4 7 -3 9 4 5 6 -3 14 -1 17 5 4 5 14 8 23 4 9 -3
13 -3 9 1 -4 4 -1 14 6 22 10 13 9 14 -11 3 -13 -7 -26 -10 -29 -8 -3 3 9 13
26 21 17 9 30 20 30 24 -1 4 -1 14 0 22 1 13 2 13 11 0 6 -9 10 -10 10 -3 0 6
-4 14 -9 18 -12 7 -33 -29 -23 -39 3 -4 -1 -4 -11 -1 -14 6 -15 9 -2 22 8 8
15 19 15 25 0 6 10 8 23 5 21 -6 21 -6 3 8 -17 13 -18 15 -3 15 9 0 17 4 17
10 0 5 -6 7 -13 4 -8 -3 -14 2 -14 10 0 10 8 14 21 12 12 -2 20 -9 18 -16 -1
-6 2 -8 9 -4 9 5 5 13 -10 26 -22 17 -23 57 -1 43 5 -3 10 -1 10 5 0 6 5 8 12
4 7 -5 8 -3 3 6 -4 7 -2 16 6 21 11 7 11 9 1 9 -7 0 -10 5 -7 11 4 5 -1 20
-12 31 -10 12 -13 18 -6 15 6 -4 13 -4 16 0 2 5 2 2 1 -4 -2 -7 2 -13 7 -13 7
0 9 11 7 25 -5 24 5 31 35 26 5 -1 6 3 3 8 -4 5 -19 8 -34 5 l-27 -4 25 14
c14 8 28 12 31 10 3 -2 5 10 3 27 -3 21 0 28 9 24 6 -4 3 1 -7 9 -18 15 -15
21 9 16 6 -1 7 2 2 6 -4 4 1 17 10 28 10 12 14 18 9 14 -14 -12 -40 30 -28 45
6 7 12 17 14 22 1 6 8 10 13 10 6 0 10 5 10 10 0 6 -4 9 -10 7 -5 -2 -4 2 3 9
14 15 17 73 2 64 -5 -3 -10 -2 -10 3 0 6 7 13 16 16 10 4 13 2 8 -7 -5 -8 -2
-7 9 2 18 14 23 26 8 16 -5 -3 -12 -1 -16 5 -4 6 -11 7 -17 4 -7 -4 -8 -2 -4
4 4 6 13 9 20 6 8 -3 17 0 22 7 4 7 3 10 -4 5 -12 -7 -38 32 -28 42 3 3 6 0 6
-8 0 -10 4 -10 18 1 15 13 16 12 3 -3 -9 -12 -10 -18 -2 -18 11 0 15 13 12 38
-1 8 5 24 13 37 15 22 14 24 -4 20 -11 -2 -23 1 -26 7 -4 6 -3 8 3 5 6 -4 16
0 23 8 11 13 10 14 -6 8 -17 -6 -18 -5 -4 12 14 17 13 18 -3 12 -15 -6 -16 -4
-7 13 7 13 7 21 0 25 -7 4 -5 14 5 27 10 16 11 25 4 34 -7 9 -7 19 -1 31 7 12
6 26 -5 46 -10 20 -11 27 -2 21 8 -5 11 -2 6 8 -3 9 0 21 6 28 9 10 8 12 -6 7
-16 -6 -16 -4 -2 23 19 37 19 51 0 26 -8 -11 -15 -16 -15 -10 1 13 27 46 35
44 4 -1 10 1 13 5 4 4 2 6 -3 5 -22 -5 -27 1 -14 17 12 14 12 15 0 9 -10 -7
-12 -3 -6 15 4 16 3 20 -3 11 -7 -11 -10 -11 -15 3 -4 9 -3 14 2 11 5 -3 8 5
7 19 0 14 -5 25 -11 25 -5 0 -3 5 5 10 8 5 11 10 6 10 -5 0 -1 9 9 20 10 11
14 20 9 20 -5 0 -2 5 6 11 13 9 13 10 -1 6 -11 -4 -20 3 -28 19 -6 14 -7 23
-2 20 5 -3 14 1 21 9 11 13 10 14 -4 9 -9 -3 -16 -2 -17 2 0 5 -2 19 -3 32 -2
12 2 22 8 22 6 1 0 10 -14 22 -16 14 -19 19 -7 15 19 -7 24 9 5 16 -10 4 -10
6 0 6 6 1 12 5 12 11 0 5 -7 6 -17 3 -11 -4 -14 -3 -9 6 4 6 3 18 -4 26 -9 10
-8 19 1 37 11 21 11 22 -5 9 -14 -12 -16 -12 -11 1 3 8 -1 30 -9 49 -8 20 -12
46 -9 57 3 13 1 22 -6 22 -7 0 -9 -5 -5 -12 4 -6 3 -8 -3 -5 -11 7 -11 46 0
63 4 7 0 11 -10 10 -23 -2 -27 19 -6 40 16 16 16 17 1 12 -21 -9 -42 14 -27
29 8 8 4 15 -12 27 -13 9 -19 16 -14 16 5 0 4 5 -3 12 -7 7 -12 20 -12 30 0
10 -6 18 -12 18 -9 0 -8 4 2 10 13 8 12 10 -4 10 -11 0 -17 3 -13 6 3 4 -1 13
-9 21 -8 9 -13 22 -10 29 3 8 1 14 -4 14 -6 0 -10 7 -10 16 0 8 -4 12 -10 9
-6 -4 -10 6 -10 22 0 22 -2 25 -10 13 -8 -12 -10 -12 -10 5 0 11 -9 26 -21 33
-17 11 -18 16 -8 28 10 12 9 16 -9 21 -12 3 -22 9 -22 14 0 16 -4 21 -118 135
-63 63 -120 114 -128 114 -8 0 -14 4 -14 8 0 10 -117 72 -136 72 -8 0 -14 5
-14 10 0 6 -8 10 -18 10 -10 0 -22 3 -26 7 -4 4 -19 9 -34 11 -14 2 -32 8 -38
13 -8 7 -14 6 -17 -3 -4 -10 -6 -10 -6 0 -1 6 -11 12 -24 12 -13 0 -29 6 -36
13 -11 10 -14 10 -18 0 -6 -15 -33 -17 -33 -3 0 6 -60 10 -160 10 -100 0 -160
-4 -160 -10 0 -5 -7 -10 -15 -10 -8 0 -15 5 -15 10 0 6 -4 10 -10 10 -5 0 -10
-4 -10 -10z m1363 -1301 c5 -3 2 -9 -5 -12 -9 -3 -14 3 -15 15 -1 11 1 16 5
12 4 -5 11 -12 15 -15z m-8 -348 c3 -5 2 -12 -3 -15 -5 -3 -9 1 -9 9 0 17 3
19 12 6z m9 -226 c-4 -8 -11 -12 -16 -9 -6 4 -5 10 3 15 19 12 19 11 13 -6z
m-19 -25 c3 -5 1 -10 -4 -10 -6 0 -11 5 -11 10 0 6 2 10 4 10 3 0 8 -4 11 -10z
m-50 -299 c3 -6 -5 -15 -17 -21 -21 -10 -22 -10 -5 3 14 11 15 16 5 20 -9 4
-9 6 -1 6 6 1 14 -3 18 -8z m-21 -95 c-3 -7 -12 -13 -21 -13 -14 0 -14 1 1 12
8 7 12 16 8 20 -4 5 -2 5 5 1 7 -4 10 -12 7 -20z m-49 -126 c3 -5 1 -10 -4
-10 -6 0 -11 5 -11 10 0 6 2 10 4 10 3 0 8 -4 11 -10z m-2 -37 c-3 -7 -6 -13
-8 -13 -2 0 -5 6 -8 13 -3 8 1 14 8 14 7 0 11 -6 8 -14z m-134 -329 c4 3 7 -3
7 -13 0 -10 -6 -18 -12 -18 -6 0 -11 12 -11 26 0 14 2 20 4 13 3 -6 8 -10 12
-8z m-69 -149 c-5 -6 -8 -14 -6 -16 3 -2 -3 -15 -13 -28 -13 -17 -18 -19 -18
-7 0 8 6 17 13 20 7 3 11 16 10 29 -2 18 1 24 11 20 9 -4 10 -9 3 -18z m-90
-125 c0 -5 -5 -10 -11 -10 -5 0 -7 5 -4 10 3 6 8 10 11 10 2 0 4 -4 4 -10z
m-20 -60 c0 -5 -5 -10 -11 -10 -5 0 -7 5 -4 10 3 6 8 10 11 10 2 0 4 -4 4 -10z
m-56 -109 c3 -5 0 -14 -8 -20 -10 -9 -15 -8 -19 3 -4 11 -1 13 10 9 11 -4 14
-2 9 5 -4 7 -5 12 -2 12 3 0 7 -4 10 -9z m-127 -136 c0 -8 -4 -12 -9 -9 -5 3
-6 10 -3 15 9 13 12 11 12 -6z m-126 -162 c12 -16 12 -17 -2 -6 -9 7 -20 9
-24 5 -5 -4 -5 -1 -1 6 9 16 11 15 27 -5z m-54 -48 c0 -8 -3 -13 -5 -10 -3 3
-11 -3 -19 -13 -16 -19 -7 4 10 26 12 15 14 15 14 -3z m-130 -130 c-9 -7 -13
-16 -9 -20 4 -5 1 -5 -7 0 -12 7 -11 10 2 20 9 7 13 16 9 20 -4 5 -1 5 7 0 12
-7 11 -10 -2 -20z m-196 -158 c-10 -9 -11 -8 -5 6 3 10 9 15 12 12 3 -3 0 -11
-7 -18z m-126 -77 c3 -5 1 -10 -4 -10 -6 0 -11 5 -11 10 0 6 2 10 4 10 3 0 8
-4 11 -10z m-109 -77 c-2 -9 -11 -17 -20 -19 -17 -2 -17 -2 0 17 21 23 23 23
20 2z m-149 -49 c-3 -3 -12 -4 -19 -1 -8 3 -5 6 6 6 11 1 17 -2 13 -5z m-760
-19 c0 -8 -4 -12 -9 -9 -5 3 -6 10 -3 15 9 13 12 11 12 -6z m723 5 c8 -5 11
-10 5 -10 -5 0 -17 5 -25 10 -8 5 -10 10 -5 10 6 0 17 -5 25 -10z m-690 -4 c0
-3 -4 -8 -10 -11 -5 -3 -10 -1 -10 4 0 6 5 11 10 11 6 0 10 -2 10 -4z m303
-50 c21 4 21 4 2 -5 -12 -5 -27 -5 -38 1 -9 5 -22 6 -27 3 -6 -3 -7 1 -4 9 5
14 9 14 26 2 10 -8 29 -12 41 -10z m41 8 c5 -14 4 -15 -9 -4 -17 14 -19 20 -6
20 5 0 12 -7 15 -16z m52 -4 c0 -12 -4 -16 -9 -11 -5 5 -6 14 -3 20 10 15 12
14 12 -9z m-211 -9 c3 -5 1 -12 -4 -15 -5 -3 -11 1 -15 9 -6 16 9 21 19 6z"/>
<path d="M5790 8319 c0 -5 5 -7 10 -4 6 3 10 8 10 11 0 2 -4 4 -10 4 -5 0 -10
-5 -10 -11z"/>
<path d="M5710 8245 c-8 -9 -8 -15 -2 -15 12 0 26 19 19 26 -2 2 -10 -2 -17
-11z"/>
<path d="M9161 8213 c-18 -19 -10 -25 12 -8 10 7 15 15 10 18 -4 3 -14 -2 -22
-10z"/>
<path d="M9126 8192 c-3 -6 -1 -14 5 -17 14 -9 20 -2 10 14 -6 8 -11 9 -15 3z"/>
<path d="M3755 8110 c10 -11 20 -20 23 -20 3 0 -3 9 -13 20 -10 11 -20 20 -23
20 -3 0 3 -9 13 -20z"/>
<path d="M8980 8056 c0 -2 7 -9 15 -16 12 -10 15 -10 15 4 0 9 -7 16 -15 16
-8 0 -15 -2 -15 -4z"/>
<path d="M8881 7951 c-10 -6 -9 -10 3 -14 8 -3 18 -2 21 3 8 13 -9 20 -24 11z"/>
<path d="M12015 7920 c-3 -5 -1 -10 4 -10 6 0 11 5 11 10 0 6 -2 10 -4 10 -3
0 -8 -4 -11 -10z"/>
<path d="M4023 7885 c0 -8 4 -12 9 -9 5 3 6 10 3 15 -9 13 -12 11 -12 -6z"/>
<path d="M5382 7867 c-8 -10 -6 -13 11 -14 12 0 16 1 9 4 -6 3 -10 9 -6 14 8
14 -2 11 -14 -4z"/>
<path d="M7430 7866 c0 -2 7 -7 16 -10 8 -3 12 -2 9 4 -6 10 -25 14 -25 6z"/>
<path d="M7470 7840 c0 -5 5 -10 11 -10 5 0 7 5 4 10 -3 6 -8 10 -11 10 -2 0
-4 -4 -4 -10z"/>
<path d="M4114 7819 c-4 -7 -3 -9 4 -5 6 3 15 -2 21 -11 6 -11 11 -13 11 -5 0
10 5 10 22 -2 12 -9 27 -16 33 -16 9 1 -43 33 -55 35 -3 0 -10 4 -17 8 -6 4
-15 2 -19 -4z"/>
<path d="M8630 7796 c0 -2 7 -9 15 -16 13 -11 14 -10 9 4 -5 14 -24 23 -24 12z"/>
<path d="M4236 7765 c4 -8 11 -15 16 -15 6 0 5 6 -2 15 -7 8 -14 15 -16 15 -2
0 -1 -7 2 -15z"/>
<path d="M7593 7765 c0 -8 4 -15 9 -15 4 0 8 4 8 9 0 6 -4 12 -8 15 -5 3 -9
-1 -9 -9z"/>
<path d="M4333 7725 c0 -8 4 -15 9 -15 4 0 8 4 8 9 0 6 -4 12 -8 15 -5 3 -9
-1 -9 -9z"/>
<path d="M8425 7704 c17 -17 22 -17 28 -1 3 7 -5 13 -19 13 -20 2 -21 0 -9
-12z"/>
<path d="M5000 7690 c-8 -5 -12 -12 -9 -15 4 -3 12 1 19 10 14 17 11 19 -10 5z"/>
<path d="M7954 7659 c-4 -7 -3 -9 4 -5 5 3 13 0 15 -6 4 -9 6 -10 6 -1 1 17
-16 25 -25 12z"/>
<path d="M4701 7651 c-9 -6 -10 -11 -2 -15 6 -4 11 -2 11 4 0 6 5 8 10 5 6 -3
10 -1 10 4 0 13 -10 14 -29 2z"/>
<path d="M4780 7650 c-8 -5 -10 -10 -5 -10 6 0 17 5 25 10 8 5 11 10 5 10 -5
0 -17 -5 -25 -10z"/>
<path d="M12186 7454 c-5 -14 -4 -15 9 -4 17 14 19 20 6 20 -5 0 -12 -7 -15
-16z"/>
<path d="M3246 7418 c3 -5 10 -6 15 -3 13 9 11 12 -6 12 -8 0 -12 -4 -9 -9z"/>
<path d="M3300 7320 c0 -6 7 -10 15 -10 8 0 15 2 15 4 0 2 -7 6 -15 10 -8 3
-15 1 -15 -4z"/>
<path d="M12215 7300 c-3 -5 -1 -10 4 -10 6 0 11 5 11 10 0 6 -2 10 -4 10 -3
0 -8 -4 -11 -10z"/>
<path d="M3330 7276 c0 -8 4 -17 9 -20 5 -4 7 3 4 14 -6 23 -13 26 -13 6z"/>
<path d="M12220 7121 c0 -6 4 -13 10 -16 6 -3 7 1 4 9 -7 18 -14 21 -14 7z"/>
<path d="M12225 6960 c-3 -5 -1 -10 4 -10 6 0 11 5 11 10 0 6 -2 10 -4 10 -3
0 -8 -4 -11 -10z"/>
<path d="M12220 6881 c0 -6 4 -13 10 -16 6 -3 7 1 4 9 -7 18 -14 21 -14 7z"/>
<path d="M12227 6816 c-4 -10 -1 -13 8 -9 8 3 12 9 9 14 -7 12 -11 11 -17 -5z"/>
<path d="M12220 6755 c-7 -9 -8 -15 -2 -15 5 0 12 7 16 15 3 8 4 15 2 15 -2 0
-9 -7 -16 -15z"/>
<path d="M12225 6720 c-3 -5 -1 -10 4 -10 6 0 11 5 11 10 0 6 -2 10 -4 10 -3
0 -8 -4 -11 -10z"/>
<path d="M3565 6702 c-12 -8 -13 -28 -2 -36 4 -3 5 -3 2 0 -2 4 0 15 6 25 11
21 9 23 -6 11z"/>
<path d="M12165 6371 c3 -5 1 -12 -5 -16 -15 -9 -12 -22 6 -29 8 -3 13 -2 9 3
-3 5 1 12 7 14 9 4 8 6 -2 6 -12 1 -12 3 -2 10 11 7 10 9 -3 14 -9 4 -13 3
-10 -2z"/>
<path d="M6204 6101 c-5 -5 -27 -8 -104 -15 -25 -2 -56 -8 -70 -13 -18 -8 -27
-7 -32 1 -5 7 -8 7 -8 -3 0 -8 -6 -11 -16 -7 -8 3 -12 2 -9 -4 3 -5 -4 -9 -15
-9 -11 -1 -29 -1 -40 -2 -11 0 -18 -4 -15 -8 2 -5 -7 -7 -20 -5 -14 1 -25 -2
-25 -8 0 -6 -6 -8 -14 -5 -8 3 -22 0 -32 -8 -10 -7 -23 -11 -30 -8 -6 2 -28
-5 -48 -17 -21 -11 -34 -15 -30 -8 4 7 -2 5 -13 -5 -11 -9 -22 -15 -25 -12 -3
3 -18 -1 -33 -9 -16 -8 -32 -13 -37 -10 -4 3 -8 0 -8 -5 0 -6 -9 -11 -20 -11
-11 0 -20 -5 -20 -11 0 -5 -4 -7 -10 -4 -5 3 -10 1 -10 -5 0 -6 -4 -9 -9 -5
-5 3 -15 -1 -23 -8 -7 -8 -18 -12 -24 -10 -7 2 -20 -4 -30 -14 -9 -10 -18 -17
-18 -15 -2 8 -66 -22 -66 -31 0 -6 -3 -7 -6 -4 -4 4 -19 -2 -34 -13 -16 -11
-34 -20 -40 -20 -7 0 -21 -10 -31 -22 -11 -12 -19 -16 -19 -8 0 9 -6 8 -20 -5
-11 -10 -20 -14 -20 -10 0 5 -7 0 -15 -11 -8 -10 -15 -15 -15 -10 0 5 -9 -1
-19 -13 -14 -16 -21 -18 -24 -9 -4 10 -6 10 -6 0 -1 -11 -55 -40 -57 -30 0 2
-12 -10 -27 -25 -14 -16 -31 -26 -36 -22 -6 3 -11 1 -11 -5 0 -6 -11 -15 -25
-22 -13 -6 -22 -15 -18 -21 3 -6 1 -7 -5 -3 -6 4 -20 -1 -30 -11 -10 -10 -25
-19 -33 -21 -8 -2 -18 -8 -24 -15 -5 -7 -22 -18 -37 -26 -16 -8 -28 -18 -28
-23 0 -5 -4 -7 -9 -4 -5 3 -11 -1 -15 -9 -3 -8 -12 -15 -20 -15 -8 0 -22 -10
-30 -22 -9 -12 -16 -18 -16 -13 0 5 -7 0 -15 -11 -8 -10 -15 -16 -15 -11 0 4
-10 -2 -22 -13 -38 -35 -51 -45 -88 -70 -19 -14 -44 -32 -54 -42 -10 -9 -24
-15 -29 -11 -6 3 -7 1 -3 -5 4 -7 3 -12 -1 -12 -5 0 -23 -13 -41 -29 -17 -17
-32 -28 -32 -26 0 4 -17 -11 -105 -94 -16 -15 -34 -29 -40 -30 -5 -1 -15 -12
-22 -24 -7 -12 -12 -19 -13 -14 0 4 -34 -27 -77 -68 -42 -41 -80 -75 -84 -75
-4 0 -11 -9 -14 -20 -4 -11 -11 -18 -16 -15 -5 4 -9 -2 -9 -11 0 -10 -3 -14
-6 -11 -8 7 -44 -31 -44 -45 0 -5 -4 -7 -9 -4 -9 6 -26 -22 -22 -37 1 -5 -3
-6 -8 -3 -5 3 -12 -1 -15 -10 -3 -8 -10 -12 -16 -9 -6 4 -7 -1 -3 -11 4 -10 2
-15 -4 -11 -5 3 -17 -3 -26 -14 -9 -10 -13 -19 -9 -19 4 -1 -4 -7 -18 -15 -14
-8 -22 -14 -18 -15 11 0 -42 -50 -53 -50 -6 0 -8 -4 -5 -8 3 -5 -4 -15 -15
-22 -10 -8 -19 -19 -19 -25 0 -6 -9 -16 -20 -23 -12 -7 -18 -17 -15 -22 3 -5
-4 -11 -15 -15 -11 -4 -18 -10 -15 -15 3 -4 -2 -10 -10 -14 -8 -3 -15 -13 -15
-21 0 -9 -4 -14 -8 -11 -4 2 -23 -18 -41 -45 -19 -27 -38 -49 -43 -49 -4 0 -8
-7 -8 -15 0 -9 -6 -18 -14 -21 -7 -3 -28 -26 -47 -52 -18 -26 -37 -48 -41 -50
-4 -2 -8 -8 -8 -14 0 -5 -7 -16 -15 -25 -8 -8 -12 -19 -9 -25 4 -7 2 -8 -4 -4
-7 4 -17 -3 -24 -18 -6 -14 -16 -26 -21 -26 -6 0 -7 -3 -4 -6 4 -4 -3 -15 -14
-25 -11 -9 -20 -20 -19 -24 1 -6 -33 -54 -58 -81 -7 -8 -10 -14 -5 -14 4 0 0
-5 -10 -11 -9 -6 -15 -14 -12 -20 4 -5 -1 -9 -10 -9 -9 0 -14 -4 -10 -9 3 -5
1 -12 -5 -16 -5 -3 -17 -21 -26 -40 -9 -19 -21 -35 -26 -35 -5 0 -6 -4 -3 -10
3 -5 2 -10 -4 -10 -9 0 -18 -19 -22 -45 -1 -5 -10 -16 -21 -23 -10 -7 -16 -18
-13 -23 4 -5 1 -9 -6 -9 -7 0 -9 -3 -6 -7 4 -3 -4 -16 -18 -28 -13 -13 -21
-26 -17 -30 4 -4 0 -12 -9 -18 -9 -7 -16 -15 -17 -20 -3 -21 -50 -86 -57 -80
-4 5 -5 2 0 -6 5 -9 2 -19 -10 -28 -11 -7 -13 -13 -6 -13 9 0 8 -5 -3 -16 -9
-8 -16 -22 -16 -30 0 -8 -5 -12 -10 -9 -6 4 -9 3 -8 -2 4 -14 -13 -53 -23 -53
-6 0 -8 -4 -4 -9 3 -5 0 -13 -6 -16 -5 -4 -8 -14 -5 -22 3 -8 1 -11 -4 -8 -6
3 -10 0 -10 -9 0 -8 -5 -16 -10 -18 -6 -2 -12 -13 -13 -25 0 -12 -4 -20 -8
-18 -3 3 -14 -16 -24 -40 -9 -25 -21 -45 -26 -45 -5 0 -9 -6 -9 -14 0 -22 -26
-66 -35 -58 -5 4 -5 2 -1 -5 3 -6 -9 -45 -28 -85 -19 -40 -36 -82 -38 -93 -1
-11 -9 -26 -16 -33 -7 -8 -10 -18 -6 -23 3 -5 -2 -12 -10 -15 -9 -3 -13 -10
-10 -15 3 -6 0 -17 -7 -26 -8 -9 -14 -21 -15 -27 -2 -27 -17 -76 -23 -76 -4 0
-7 -9 -8 -19 -1 -11 -11 -38 -21 -60 -11 -23 -16 -41 -10 -41 6 0 5 -7 -3 -16
-7 -9 -14 -22 -16 -30 -5 -23 -10 -38 -17 -56 -4 -9 -5 -22 -1 -28 3 -5 1 -10
-5 -10 -6 0 -8 -4 -5 -10 3 -5 2 -10 -3 -10 -5 0 -9 -6 -9 -12 0 -7 -4 -22 -9
-32 -5 -14 -4 -17 4 -12 8 5 10 2 6 -8 -3 -9 -9 -16 -13 -16 -6 0 -10 -17 -13
-57 -1 -7 -5 -13 -9 -13 -5 0 -6 -6 -3 -14 3 -8 0 -24 -6 -36 -10 -18 -10 -21
2 -14 11 7 11 5 0 -9 -8 -9 -15 -37 -15 -62 -1 -25 -5 -45 -8 -45 -3 0 -6 -6
-7 -12 0 -7 -4 -42 -7 -78 -3 -36 -7 -77 -8 -93 -1 -15 -4 -27 -7 -27 -10 0
-5 -65 5 -72 7 -5 7 -8 0 -8 -11 0 -12 -190 -1 -209 4 -6 3 -11 -2 -11 -5 0
-7 -13 -4 -30 3 -19 8 -27 16 -23 6 4 5 0 -2 -9 -7 -9 -9 -19 -5 -21 5 -3 9
-26 8 -50 0 -25 3 -43 7 -41 5 3 8 2 9 -3 1 -4 3 -24 5 -43 6 -56 7 -60 15
-60 4 0 6 -9 4 -20 -2 -11 1 -20 7 -20 5 0 7 -7 4 -16 -3 -9 -2 -12 5 -9 6 4
9 1 8 -6 -1 -8 4 -27 11 -44 7 -16 13 -33 12 -37 -1 -5 3 -8 9 -8 5 0 7 -5 4
-10 -3 -6 -1 -10 5 -10 7 0 9 -7 6 -16 -4 -10 -2 -13 6 -8 8 5 9 0 5 -15 -3
-13 -3 -20 0 -17 9 8 34 -15 27 -25 -3 -5 0 -9 5 -9 6 0 11 -6 11 -14 0 -8 9
-18 21 -21 16 -5 18 -10 8 -21 -9 -11 -7 -14 10 -14 12 0 20 -4 17 -9 -7 -11
28 -43 37 -34 4 3 7 -3 7 -15 0 -11 5 -24 12 -28 7 -4 8 -3 4 4 -11 17 -2 15
23 -7 14 -13 20 -25 15 -33 -5 -9 -1 -8 11 2 11 9 16 10 11 2 -4 -7 -1 -15 8
-18 9 -3 13 -10 10 -15 -3 -5 4 -9 16 -9 12 0 19 -4 16 -9 -3 -5 1 -12 10 -15
8 -3 12 -2 9 4 -3 6 -1 10 4 10 11 0 15 -15 12 -34 -1 -5 4 -4 12 2 18 16 61
-13 52 -36 -5 -13 -2 -12 15 3 12 11 20 13 20 6 0 -7 5 -9 10 -6 6 4 10 3 9
-2 -3 -19 2 -33 12 -33 5 0 7 4 4 10 -3 6 1 7 10 4 19 -8 13 -30 -6 -26 -8 2
-10 0 -6 -4 10 -11 38 -14 32 -4 -3 4 6 10 20 12 13 3 22 1 19 -3 -3 -5 -1
-16 4 -25 8 -15 10 -15 15 0 5 11 3 15 -5 10 -7 -5 -8 -3 -3 6 6 10 12 8 27
-9 14 -18 26 -22 52 -19 24 3 32 0 29 -9 -5 -12 8 -18 30 -14 4 0 7 -4 7 -9 0
-6 5 -10 11 -10 8 0 7 5 -1 15 -11 13 -11 18 0 28 10 9 11 9 5 -1 -4 -8 0 -19
11 -27 17 -13 17 -16 4 -26 -13 -9 -13 -10 0 -6 9 2 14 14 12 28 -1 13 1 19 5
13 5 -6 16 -10 26 -8 14 2 16 -2 11 -19 -6 -21 -5 -21 8 -4 15 20 53 14 41 -7
-3 -6 -2 -8 2 -3 5 4 16 0 25 -8 15 -14 18 -14 23 -1 4 10 1 13 -7 10 -8 -3
-17 -1 -20 4 -3 5 7 9 23 8 16 0 27 -4 25 -7 -6 -11 18 -16 58 -14 21 1 36 -1
34 -4 -3 -4 4 -7 14 -7 12 0 16 4 10 11 -5 6 1 10 20 10 19 1 26 -3 23 -12 -3
-7 -10 -13 -16 -13 -6 0 -7 -3 -4 -7 4 -3 19 4 34 18 15 13 21 16 14 7 -15
-20 -2 -25 17 -6 6 6 22 13 34 14 13 2 17 0 10 -2 -6 -3 -9 -11 -5 -17 5 -9 3
-9 -8 0 -12 10 -17 8 -29 -10 -12 -21 -12 -21 5 -7 13 11 19 12 22 3 3 -8 10
-7 22 5 10 9 16 21 13 25 -2 5 5 3 16 -4 17 -11 19 -16 9 -29 -10 -13 -10 -13
3 -3 24 18 55 19 75 3 11 -8 16 -10 12 -3 -4 7 1 14 13 18 11 3 19 9 17 13 -1
4 3 8 8 10 6 1 11 -2 11 -8 1 -5 2 -16 3 -22 1 -8 5 -7 11 4 11 18 38 18 49
-1 6 -10 10 -9 14 3 4 9 1 15 -5 13 -6 -1 -13 5 -15 13 -4 13 -3 13 6 0 6 -8
11 -11 11 -6 0 5 6 4 13 -1 6 -5 23 -8 37 -6 14 2 34 4 45 4 19 0 19 1 2 10
-13 7 -22 7 -32 -1 -11 -9 -13 -7 -10 7 1 10 8 17 15 15 7 -1 20 3 29 10 15
12 15 11 1 -6 -14 -18 -13 -19 8 -14 16 5 22 2 23 -10 0 -13 3 -11 9 4 10 27
26 38 35 25 3 -6 13 -8 23 -5 15 5 15 4 2 -6 -13 -10 -12 -11 3 -6 10 3 20 6
22 6 2 0 2 8 0 18 -1 9 0 11 2 4 3 -7 9 -9 15 -6 6 4 8 2 4 -4 -3 -6 -1 -14 5
-18 8 -5 9 -3 4 6 -6 10 -4 12 8 7 22 -8 22 2 0 20 -10 8 -12 12 -5 8 7 -4 21
-1 30 7 15 12 16 11 4 -4 -11 -14 -10 -18 6 -27 14 -7 19 -7 19 4 0 8 -4 12
-9 9 -4 -3 -5 2 -2 11 6 14 8 14 21 -2 13 -16 14 -16 9 -1 -2 9 3 22 12 30 15
11 15 11 6 -2 -7 -9 -8 -23 -3 -35 7 -18 8 -18 9 5 0 22 2 23 11 7 5 -9 7 -23
3 -30 -5 -9 -4 -9 6 0 10 9 11 18 3 36 -9 18 -8 24 2 24 7 0 11 -6 8 -14 -3
-7 0 -13 7 -13 6 0 8 -5 4 -12 -4 -7 -3 -8 4 -4 6 4 9 12 6 19 -2 7 5 13 20
13 18 1 23 -2 19 -14 -4 -10 -2 -13 5 -8 7 4 12 16 12 27 0 13 -4 18 -12 13
-6 -4 -8 -3 -5 3 8 12 41 10 44 -2 1 -6 -1 -12 -4 -15 -4 -3 -3 1 2 9 5 9 4
12 -3 7 -6 -4 -8 -14 -5 -23 4 -11 8 -13 11 -5 2 7 9 9 14 6 7 -4 8 -2 4 4 -4
7 -2 12 3 12 6 0 11 -6 11 -12 0 -7 5 -5 11 5 5 9 16 17 23 17 8 0 16 7 20 15
3 8 12 12 21 9 8 -3 12 -11 9 -16 -4 -6 -10 -5 -15 3 -6 10 -8 7 -6 -8 1 -18
4 -20 17 -10 23 18 29 29 24 46 -2 9 3 3 11 -14 l15 -30 -4 37 c-3 34 -2 36
15 25 16 -10 22 -9 30 3 7 11 8 8 5 -12 -3 -15 -1 -30 3 -33 5 -2 8 5 7 17 0
12 5 23 12 25 8 3 10 -1 5 -13 -4 -12 -3 -15 5 -10 17 10 15 27 -5 43 -16 13
-16 13 4 4 12 -6 24 -16 26 -23 4 -8 6 -7 6 4 1 9 6 20 13 24 7 4 8 3 4 -4 -4
-7 -2 -12 4 -12 6 0 9 -4 6 -8 -3 -5 1 -9 9 -9 11 0 12 4 4 14 -6 7 -8 13 -4
13 4 0 2 6 -4 14 -8 10 -9 16 -1 21 6 4 10 3 9 -2 -3 -19 2 -27 10 -15 7 11 9
10 14 -3 4 -9 3 -13 -3 -10 -6 3 -10 1 -10 -4 0 -14 17 -14 26 0 4 8 9 7 15
-2 7 -12 9 -12 9 0 0 7 6 11 15 7 8 -3 14 -2 14 2 -3 21 3 32 19 32 14 0 15 2
2 10 -9 6 -10 10 -3 10 20 0 24 -18 6 -29 -10 -6 -13 -11 -6 -11 6 0 14 4 18
10 3 5 12 7 19 4 8 -3 17 -1 21 5 3 6 11 11 16 11 6 0 7 -5 3 -12 -4 -7 -3 -8
4 -4 9 5 8 13 -3 30 -14 22 -14 23 2 23 49 0 59 3 43 13 -9 6 -10 10 -3 10 6
0 15 -5 18 -10 4 -6 16 -8 28 -4 20 6 20 5 8 -10 -12 -14 -12 -16 3 -10 9 3
16 10 16 14 0 4 7 11 16 14 12 4 15 2 10 -9 -8 -22 1 -19 14 4 7 14 7 22 -2
27 -7 5 -8 3 -3 -7 5 -8 5 -11 0 -7 -4 4 -16 3 -26 -3 -15 -7 -17 -6 -13 6 3
8 10 13 14 10 5 -3 11 -1 14 4 3 5 15 7 26 4 11 -3 18 -8 16 -12 -3 -4 5 -8
17 -8 18 -2 19 0 7 8 -12 9 -10 10 8 6 12 -3 20 -1 17 3 -3 5 -1 11 5 15 5 3
10 0 10 -7 0 -10 2 -10 9 1 5 7 14 10 21 6 9 -6 9 -3 0 15 -6 12 -9 24 -6 28
3 3 6 -1 7 -9 0 -9 4 -6 10 6 9 19 9 18 5 -2 -2 -13 1 -26 6 -30 7 -3 8 -1 4
6 -6 8 0 10 21 6 23 -4 24 -4 8 4 -11 5 -18 10 -15 11 3 1 15 3 28 6 12 2 32
6 45 8 12 3 23 5 25 7 2 1 15 5 29 8 3 0 -2 10 -12 21 -10 11 -13 20 -7 20 7
0 12 -3 12 -7 0 -5 11 -13 25 -19 l24 -12 -15 32 -15 31 20 -25 c11 -14 21
-21 21 -16 0 5 6 3 14 -3 11 -9 16 -9 22 0 4 7 3 9 -3 6 -6 -4 -15 5 -21 19
-11 24 -11 24 11 12 31 -17 55 -18 61 -1 3 8 2 11 -3 8 -5 -3 -13 -1 -16 5 -4
6 -1 9 7 8 7 -2 12 3 10 10 -1 8 2 11 8 7 6 -3 8 -11 5 -16 -4 -5 -1 -9 6 -9
8 0 9 -4 0 -13 -8 -10 -7 -14 4 -14 8 0 12 4 9 9 -3 4 0 9 5 9 26 3 30 4 37
11 4 4 1 15 -7 24 -13 16 -12 16 8 5 12 -6 21 -17 19 -24 -1 -6 -1 -9 1 -4 3
4 10 4 16 0 8 -4 7 -1 -1 9 -10 13 -10 17 3 22 9 3 14 2 11 -2 -3 -5 1 -9 8
-9 8 0 12 6 9 14 -3 7 0 13 6 13 10 0 15 -14 12 -33 -1 -5 3 -6 8 -3 5 4 8 19
6 34 -2 15 -2 21 1 15 8 -18 25 -16 39 4 9 13 14 13 20 3 5 -8 4 -11 -2 -7 -5
3 -10 0 -10 -8 0 -9 4 -11 11 -6 6 5 16 11 21 13 6 1 9 6 8 10 -4 12 15 10 22
-2 4 -7 14 -6 28 2 12 7 25 12 29 13 3 0 10 4 15 9 5 6 2 6 -7 1 -10 -6 -9 -1
4 13 18 20 20 21 50 5 30 -15 30 -15 16 2 -14 17 -14 17 8 6 21 -11 27 -6 23
21 0 4 8 5 19 3 11 -2 20 2 20 8 0 8 3 8 9 -1 4 -8 12 -13 17 -13 5 1 9 -3 9
-8 0 -5 2 -11 5 -13 3 -2 4 -1 3 1 -1 2 5 10 13 18 8 8 12 18 9 23 -3 5 2 7
10 6 9 -1 14 -6 13 -12 -2 -5 -6 -8 -10 -7 -5 2 -8 -2 -8 -7 0 -13 17 -13 25
0 4 6 11 7 17 4 7 -4 8 -2 4 4 -6 11 0 14 20 11 4 0 10 5 14 11 5 9 9 9 14 1
6 -10 -6 -15 -26 -12 -13 2 -9 -6 9 -20 13 -11 15 -11 9 -1 -6 9 -3 12 10 10
11 -2 18 2 17 10 -2 7 8 12 26 12 16 0 32 6 34 13 4 9 6 9 6 0 1 -7 6 -13 12
-13 6 0 9 7 6 14 -4 10 -1 13 8 9 8 -3 12 -9 9 -14 -3 -6 6 -8 20 -5 13 2 27
1 29 -2 2 -4 2 -1 1 5 -4 16 13 17 18 2 3 -9 10 -9 26 0 19 10 23 9 29 -4 5
-13 7 -14 14 -3 5 7 9 16 9 21 0 8 -43 2 -60 -8 -5 -3 -7 0 -5 8 7 16 59 17
76 0 9 -9 17 -9 32 -2 11 6 30 12 44 14 22 2 23 1 8 -15 -11 -12 -13 -20 -5
-25 6 -3 9 -1 8 6 -2 6 3 14 11 17 9 3 11 0 6 -9 -5 -8 -4 -11 1 -6 5 5 9 14
9 20 0 6 12 12 27 12 15 1 27 -1 26 -4 -2 -19 3 -31 11 -26 5 3 12 1 15 -4 3
-5 15 -7 27 -4 14 4 17 8 9 13 -7 4 -1 8 14 8 15 0 29 -5 32 -10 3 -5 12 -4
20 3 11 9 14 9 14 0 0 -7 5 -9 11 -5 7 4 7 -2 -1 -17 -7 -13 -9 -21 -5 -17 5
4 15 2 24 -5 14 -11 14 -10 2 5 -7 10 -12 19 -10 19 2 1 17 3 34 5 21 2 25 0
15 -6 -8 -5 -18 -6 -24 -3 -5 3 -6 1 -3 -4 8 -12 57 -5 57 8 0 5 5 9 11 9 5 0
8 -4 5 -8 -2 -4 -1 -14 5 -22 6 -10 9 -11 9 -3 0 13 34 13 46 0 4 -3 -3 -5
-14 -2 -12 2 -23 -3 -26 -11 -3 -9 -1 -12 4 -9 19 12 62 16 55 5 -3 -6 0 -7 9
-4 9 3 13 10 10 15 -3 5 2 6 11 3 14 -6 14 -8 -2 -19 -10 -8 -15 -17 -10 -21
4 -4 7 -2 7 4 0 7 11 12 25 12 14 0 25 6 25 13 0 6 5 4 11 -6 6 -9 14 -15 20
-12 5 4 15 3 22 -2 6 -4 19 -8 27 -8 8 0 14 -7 14 -16 -1 -9 4 -16 10 -17 6 0
20 -3 31 -5 11 -2 25 0 32 5 9 7 11 4 8 -9 -2 -11 2 -20 10 -20 7 0 11 9 8 21
-4 21 -4 21 9 1 13 -20 52 -26 76 -12 7 5 11 4 10 -1 -5 -17 44 -53 57 -42 7
6 15 6 23 -2 9 -9 12 -9 12 2 1 11 3 10 11 -3 6 -9 15 -14 21 -11 7 4 8 2 4
-5 -6 -9 -11 -9 -22 0 -8 6 -14 8 -14 4 0 -4 -6 -2 -13 4 -10 8 -14 7 -14 -3
0 -8 8 -13 19 -11 10 2 22 -4 28 -13 5 -10 10 -12 10 -4 0 6 7 12 16 12 9 0
12 -5 8 -12 -6 -10 -4 -10 7 0 7 6 18 12 23 12 6 0 4 -5 -4 -11 -11 -8 -8 -9
17 -5 23 4 33 1 37 -11 5 -13 4 -14 -8 -4 -11 9 -16 9 -22 0 -4 -7 -3 -9 4 -5
6 3 14 1 18 -5 5 -9 11 -7 19 5 12 15 13 15 19 0 3 -9 13 -14 21 -10 8 3 17 1
20 -5 4 -5 11 -6 17 -3 6 4 8 3 5 -3 -4 -6 1 -19 9 -29 9 -10 13 -14 10 -8 -3
7 3 14 13 17 13 3 18 0 15 -7 -3 -8 3 -12 18 -11 13 2 33 -3 45 -11 17 -10 23
-11 27 -1 3 6 3 1 0 -13 -5 -20 -4 -23 6 -13 10 9 19 9 40 -2 15 -8 30 -12 33
-9 3 3 11 -3 18 -15 11 -16 16 -18 28 -8 10 8 12 8 8 1 -4 -7 3 -11 20 -11 15
0 29 -6 31 -12 2 -6 9 -8 15 -4 7 4 6 -1 -2 -10 -15 -19 -8 -22 20 -6 16 8 19
7 17 -3 -2 -7 2 -13 7 -13 6 0 9 3 8 7 -2 5 2 8 7 8 6 0 10 -6 10 -13 0 -8 12
-19 28 -26 l27 -12 -25 21 -25 21 30 -14 c17 -8 38 -13 48 -11 11 1 16 -1 12
-4 -4 -4 -12 -7 -18 -7 -5 0 -11 -6 -13 -13 -1 -7 0 -8 3 -2 3 7 10 4 19 -7
13 -17 14 -17 8 0 -9 24 11 21 29 -6 9 -12 16 -17 16 -10 1 6 -3 15 -9 18 -13
8 -13 25 0 25 5 0 9 -6 7 -12 -1 -8 7 -13 20 -12 18 0 20 -3 12 -17 -6 -12 -5
-20 3 -25 6 -4 8 -3 5 3 -4 6 1 17 10 24 15 12 16 12 10 -3 -3 -10 -1 -20 5
-24 6 -4 9 -3 6 2 -3 5 1 15 8 22 13 11 14 10 10 -12 -3 -14 0 -29 6 -32 6 -4
8 -2 5 3 -4 6 4 11 18 11 14 0 23 -4 20 -8 -5 -9 27 -6 43 4 6 4 12 2 12 -3 0
-6 12 -11 26 -11 20 0 25 -4 20 -16 -5 -14 -4 -15 9 -4 10 8 15 9 15 1 0 -6 4
-11 10 -11 5 0 9 5 7 11 -1 6 5 14 13 16 13 4 13 3 0 -6 -11 -8 -12 -11 -2
-11 8 0 10 -5 6 -12 -5 -8 0 -7 11 2 11 9 16 10 11 3 -4 -8 -1 -13 9 -13 9 0
13 4 10 10 -3 5 -2 10 4 10 5 0 13 -4 16 -10 3 -5 15 -10 26 -10 10 0 19 -4
19 -10 0 -5 5 -10 11 -10 5 0 8 4 5 8 -2 4 6 8 19 8 13 0 21 -4 19 -8 -3 -4 2
-8 10 -8 24 0 30 -1 49 -12 12 -6 23 -6 32 2 10 8 17 6 29 -11 11 -16 27 -24
53 -25 57 -4 78 -10 75 -24 -1 -6 2 -9 8 -5 6 3 8 11 5 16 -4 5 3 9 15 9 13 0
19 4 14 12 -4 7 -3 8 5 4 9 -6 9 -11 1 -21 -8 -10 -8 -15 1 -21 8 -4 9 -3 5 4
-5 8 4 12 28 12 22 0 35 5 33 11 -1 6 4 13 11 15 7 1 8 0 2 -3 -5 -2 -8 -9 -4
-14 3 -5 13 -5 25 1 10 6 19 7 19 3 0 -4 4 -2 9 6 6 9 11 10 15 2 4 -6 4 -11
-1 -12 -4 0 -15 -2 -23 -4 -8 -2 -26 -6 -39 -9 -37 -8 -36 -14 3 -12 20 2 39
6 43 9 3 4 19 7 35 7 15 0 27 5 25 11 -1 6 4 13 11 15 7 1 8 0 2 -3 -5 -2 -8
-9 -4 -14 3 -5 13 -5 25 1 10 6 19 8 19 4 0 -3 6 -1 14 5 9 8 16 8 20 2 4 -6
13 -8 21 -4 8 3 15 0 15 -7 0 -6 -4 -9 -8 -6 -5 3 -9 -1 -9 -8 0 -7 6 -13 13
-13 7 0 11 4 8 9 -3 4 4 8 16 8 13 0 19 -4 14 -11 -5 -8 -1 -8 14 0 30 16 36
14 21 -6 -13 -16 -12 -17 3 -4 10 7 16 17 13 21 -3 5 4 12 16 15 17 6 19 9 8
16 -9 6 -10 9 -2 9 19 0 25 -18 8 -27 -12 -7 -11 -11 8 -22 21 -13 21 -13 7 4
-14 17 -13 18 3 12 12 -4 16 -3 11 4 -5 8 6 10 35 7 32 -3 41 0 41 12 0 13 1
13 10 0 10 -17 50 -23 50 -8 0 6 -7 8 -14 5 -10 -4 -13 -1 -10 7 6 17 43 14
55 -5 7 -11 9 -11 9 4 0 15 3 16 20 7 11 -6 20 -8 20 -4 0 3 6 1 14 -5 17 -15
32 3 28 34 -2 15 -1 16 6 7 5 -8 12 -13 16 -13 20 3 26 0 20 -11 -5 -10 -4
-10 5 -2 7 6 13 21 14 33 1 11 5 21 10 21 5 0 6 -8 3 -18 -4 -12 -1 -19 8 -19
8 0 12 7 9 16 -3 11 0 10 11 -3 9 -11 16 -15 16 -9 0 16 36 23 51 9 9 -8 10
-8 6 0 -4 7 3 14 17 18 25 6 28 19 11 46 -7 12 -6 13 6 4 20 -15 36 -12 51 9
13 18 14 17 14 -2 0 -11 -4 -18 -7 -15 -4 2 -10 0 -13 -5 -4 -5 -2 -12 4 -16
6 -4 7 -12 4 -18 -4 -7 -3 -8 2 -4 5 5 9 14 9 20 0 7 13 12 29 11 25 0 26 1
11 13 -10 7 -22 10 -28 6 -6 -3 -7 -1 -3 6 9 13 37 11 48 -4 5 -6 8 -5 8 4 0
10 3 11 13 3 10 -8 13 -6 14 11 1 12 -1 17 -5 12 -8 -12 -47 -14 -58 -3 -3 4
3 6 15 3 11 -2 28 3 37 12 12 13 18 13 27 3 9 -10 9 -11 0 -6 -9 5 -11 2 -6
-10 4 -12 8 -14 11 -6 3 10 7 10 20 0 10 -7 14 -8 10 -4 -4 5 -3 16 4 23 9 11
9 17 -3 24 -10 6 -11 9 -1 9 7 0 10 5 6 12 -4 7 -3 8 5 4 6 -4 9 -11 7 -15 -3
-4 5 -7 17 -6 12 2 21 8 20 14 -4 15 14 14 20 -1 4 -8 6 -7 6 4 1 9 -4 18 -9
20 -6 2 -1 9 11 16 12 8 18 9 15 3 -4 -5 -2 -12 4 -16 5 -3 10 -1 10 5 0 6 6
8 13 4 6 -4 4 2 -6 13 -16 18 -16 22 -2 33 10 8 15 9 15 1 0 -6 3 -10 8 -9 4
1 18 -4 32 -11 19 -10 17 -6 -10 20 -26 23 -28 28 -9 16 15 -9 31 -12 38 -7
11 6 11 8 0 12 -18 6 -2 28 22 28 10 0 19 4 19 10 0 5 -6 7 -14 4 -18 -7 -30
12 -15 22 8 5 9 3 4 -6 -5 -8 -3 -11 6 -8 8 3 13 11 11 17 -1 7 2 10 8 6 6 -3
8 -10 5 -15 -3 -5 -1 -12 5 -15 6 -4 9 -1 8 7 -2 7 3 12 10 10 8 -1 11 2 7 8
-3 6 -11 8 -16 5 -5 -4 -9 -3 -9 2 0 4 14 14 31 22 16 7 28 15 25 18 -2 2 -15
-1 -28 -8 -20 -11 -21 -10 -11 3 7 8 10 18 6 22 -4 4 1 4 12 0 17 -7 18 -6 7
8 -11 14 -10 16 7 11 13 -3 21 -1 21 6 0 7 -5 9 -12 5 -9 -5 -9 -2 1 9 14 18
26 23 17 8 -4 -5 4 -7 16 -3 l22 5 -23 9 -23 8 20 32 c11 18 20 37 20 41 0 5
3 11 6 14 3 3 4 -4 1 -15 -3 -15 0 -19 12 -15 8 3 11 9 6 12 -13 9 -16 51 -3
51 6 0 9 -4 5 -9 -3 -5 -1 -12 4 -15 11 -7 9 13 -3 33 -7 11 -5 13 7 8 9 -3
21 1 29 11 11 15 11 15 -3 5 -13 -11 -19 -9 -35 10 -10 12 -12 16 -4 9 19 -17
31 -15 23 4 -3 9 0 20 8 25 8 5 9 9 3 9 -7 0 -11 11 -10 24 1 19 4 22 18 15
14 -8 16 -5 12 17 -3 15 -1 23 5 20 6 -4 8 3 5 16 -10 42 -9 53 3 53 6 0 14 3
18 7 4 3 -5 5 -20 4 -19 -3 -23 0 -16 7 17 17 13 27 -6 20 -19 -7 -18 -5 11
17 11 8 17 10 13 4 -3 -6 0 -11 7 -11 11 0 12 4 3 19 -9 14 -9 23 1 39 12 19
11 20 -10 15 -13 -3 -17 -3 -10 0 6 3 10 10 6 15 -10 16 -13 50 -4 44 10 -6 6
57 -4 73 -3 6 -2 14 4 17 8 5 7 12 -2 23 -10 12 -10 14 0 8 6 -4 12 -3 12 3 0
5 -5 13 -10 16 -14 9 -2 27 13 19 7 -3 3 2 -7 10 -11 9 -14 16 -7 16 7 0 9 5
5 12 -5 8 -2 9 9 5 9 -3 19 -2 22 4 4 5 3 9 -2 8 -22 -4 -44 2 -38 11 3 5 13
6 23 3 10 -4 7 2 -8 15 -20 16 -22 23 -13 33 10 10 9 15 -3 24 -14 10 -14 13
3 26 16 13 17 13 4 -4 -9 -11 -10 -17 -2 -17 10 0 14 11 9 27 -2 5 -6 7 -10 6
-3 -1 -11 4 -18 12 -9 11 -7 12 12 8 23 -5 23 -5 3 11 -11 10 -13 15 -5 11 8
-4 6 1 -5 10 -14 11 -15 16 -5 13 9 -2 15 2 15 7 0 6 -2 9 -5 8 -3 0 -11 5
-18 13 -11 13 -10 14 12 10 14 -3 26 0 26 6 0 5 -7 8 -15 5 -8 -4 -17 -2 -20
3 -3 5 3 11 12 13 13 3 14 5 3 6 -8 0 -21 10 -28 22 -8 12 -10 19 -5 16 5 -3
15 4 23 16 12 20 12 21 -3 8 -22 -17 -22 2 -1 23 8 9 12 16 7 16 -5 0 -14 -5
-19 -10 -7 -7 -11 -7 -12 2 0 7 -3 23 -6 36 -3 13 -1 20 5 17 5 -4 7 -10 4
-15 -3 -5 -2 -11 3 -14 4 -2 8 6 8 19 0 13 -2 23 -5 23 -22 -2 -29 6 -28 35 0
17 -4 41 -8 52 -8 17 -6 18 6 8 13 -10 16 -10 16 2 0 8 -4 12 -9 9 -4 -3 -8 0
-8 6 0 6 -4 9 -9 6 -13 -8 -20 28 -9 47 7 13 5 15 -9 10 -16 -6 -17 -5 -3 12
9 11 10 16 3 11 -13 -7 -18 10 -14 43 2 8 -2 10 -11 5 -9 -5 -8 -2 2 11 13 17
13 18 -1 13 -13 -5 -15 -1 -11 19 4 20 2 24 -9 18 -11 -7 -11 -5 1 10 9 11 10
16 3 11 -7 -4 -13 -4 -14 1 0 4 -2 16 -4 26 -2 9 2 17 8 17 7 0 6 4 -3 9 -8 6
-18 7 -23 4 -5 -3 -4 4 2 15 8 16 8 24 -4 36 -8 8 -15 22 -15 31 0 10 -5 13
-12 9 -9 -5 -9 -2 1 9 7 9 9 17 4 17 -5 0 -15 12 -21 26 -7 14 -8 23 -2 19 15
-9 12 4 -4 20 -7 8 -17 11 -22 7 -5 -4 -2 1 5 11 10 12 10 17 2 17 -7 0 -10 4
-7 9 3 5 -1 12 -10 15 -9 3 -14 13 -10 21 3 8 -1 21 -9 28 -9 9 -10 18 -4 24
6 6 4 15 -8 24 -16 13 -17 12 -4 -3 9 -12 10 -18 2 -18 -6 0 -11 3 -12 8 0 4
-2 15 -4 25 -2 9 1 15 5 12 5 -3 12 -1 15 5 4 6 3 10 -2 9 -19 -3 -34 2 -29
10 3 5 -1 11 -9 14 -8 4 -12 15 -10 27 3 16 0 20 -10 16 -9 -3 -12 0 -8 9 3 8
10 12 16 8 6 -3 7 -1 3 5 -4 6 -14 8 -23 5 -11 -4 -14 -3 -9 6 4 6 0 23 -9 37
-9 13 -13 29 -10 34 3 6 -1 10 -9 10 -9 0 -16 7 -16 16 0 8 -7 23 -16 31 -8 9
-13 24 -11 35 3 10 1 16 -4 12 -5 -3 -9 0 -9 6 0 6 -4 8 -10 5 -5 -3 -10 -2
-10 4 0 5 6 12 13 14 10 4 10 6 0 6 -7 1 -13 8 -13 16 0 8 -4 15 -10 15 -5 0
-10 7 -10 15 0 8 -6 15 -12 15 -9 0 -8 4 2 10 13 9 13 10 0 11 -8 1 -19 1 -24
0 -5 -1 -3 6 5 15 12 15 12 17 0 9 -11 -6 -13 -4 -8 8 4 12 1 17 -11 17 -12 0
-13 3 -5 8 9 6 7 12 -7 22 -11 8 -20 22 -20 32 0 10 -9 23 -20 30 -11 7 -20
16 -20 21 0 4 5 5 11 1 8 -4 8 0 0 15 -7 11 -14 21 -17 21 -3 0 -2 -5 2 -12 5
-7 3 -8 -5 -3 -7 4 -11 16 -8 26 3 11 2 17 -3 14 -4 -3 -13 2 -20 10 -12 14
-7 19 13 16 5 -1 6 3 2 8 -3 6 -12 8 -20 4 -9 -3 -15 1 -15 11 0 9 -4 16 -10
16 -5 0 -10 5 -10 11 0 7 -8 18 -17 26 -11 8 -12 11 -3 7 13 -7 13 -5 2 9 -8
9 -11 21 -7 26 3 6 0 8 -9 5 -17 -6 -36 24 -28 45 3 9 0 11 -8 6 -10 -6 -12
-4 -7 8 4 11 2 14 -9 10 -9 -3 -14 2 -14 16 0 12 -5 21 -11 21 -6 0 -9 7 -5
15 5 14 -5 20 -27 16 -5 -1 -6 3 -2 9 3 5 1 10 -4 10 -15 0 -14 27 2 34 6 3 1
3 -12 0 -20 -5 -23 -3 -17 12 4 10 4 15 0 12 -8 -9 -45 36 -49 60 -1 9 -8 16
-16 14 -10 -3 -10 0 1 13 11 13 10 15 -3 9 -10 -3 -20 3 -28 17 -6 13 -16 28
-21 33 -4 6 -17 22 -28 35 -11 13 -17 28 -14 32 3 5 -2 9 -11 9 -9 0 -14 4
-10 10 3 5 -6 17 -20 26 -20 13 -23 19 -13 25 10 7 10 9 -2 9 -19 0 -56 40
-37 41 6 0 2 4 -10 9 -13 5 -23 16 -23 25 0 8 -6 15 -14 15 -9 0 -13 7 -11 19
3 15 -1 19 -15 16 -13 -3 -17 1 -13 11 3 8 0 14 -7 14 -6 0 -8 5 -5 10 3 6 -1
10 -10 10 -9 0 -13 5 -10 10 3 6 -1 10 -10 10 -9 0 -13 5 -10 10 3 6 1 10 -5
10 -6 0 -8 5 -5 10 4 6 3 9 -2 8 -15 -5 -64 50 -50 55 7 3 5 6 -4 6 -9 1 -20
8 -23 17 -3 9 -11 12 -18 8 -7 -4 -10 -4 -6 0 3 4 -6 21 -20 38 -15 17 -26 34
-25 39 2 4 -5 5 -14 2 -11 -4 -14 -3 -9 5 4 7 2 12 -4 12 -6 0 -8 5 -5 10 3 6
0 10 -8 10 -7 0 -20 11 -27 25 -7 13 -21 27 -32 31 -10 3 -18 12 -18 20 0 8
-4 13 -9 9 -5 -3 -12 4 -16 15 -3 11 -13 20 -22 20 -13 0 -13 3 -3 15 11 13
10 14 -5 9 -13 -5 -16 -4 -11 5 4 6 4 11 -1 10 -4 -1 -15 -1 -23 0 -13 1 -13
2 0 11 13 8 12 10 -2 10 -10 0 -18 5 -18 10 0 6 -7 10 -17 10 -9 0 -13 3 -10
6 4 4 -8 19 -25 34 -17 15 -28 32 -24 39 5 7 1 9 -8 5 -16 -6 -46 17 -46 36 0
6 -4 9 -8 6 -5 -3 -16 6 -26 20 -11 13 -25 24 -33 24 -8 0 -12 4 -9 9 3 5 -6
16 -19 25 -14 10 -23 22 -19 28 4 7 3 8 -4 4 -7 -4 -22 4 -36 18 -13 14 -27
26 -31 26 -4 0 -20 14 -35 30 -15 17 -33 30 -40 30 -6 0 -8 5 -5 10 3 6 2 10
-3 10 -4 0 -24 14 -42 30 -18 17 -40 30 -47 30 -8 0 -11 5 -8 10 3 6 0 10 -8
10 -8 0 -18 7 -21 16 -3 8 -10 13 -15 9 -5 -3 -12 4 -16 14 -4 14 -11 18 -23
14 -15 -6 -16 -5 -2 12 8 10 10 16 3 12 -16 -10 -44 3 -36 16 3 5 2 7 -4 4 -5
-3 -20 4 -34 17 -24 23 -31 26 -50 26 -5 0 -7 5 -4 10 3 6 -1 10 -9 10 -8 0
-18 5 -22 12 -5 7 -3 8 6 3 9 -5 11 -4 6 4 -4 6 -11 9 -15 6 -5 -2 -21 6 -37
20 -15 13 -32 21 -37 18 -6 -3 -8 -2 -5 3 3 5 0 15 -8 22 -9 8 -14 9 -14 2 0
-7 -5 -6 -14 2 -8 7 -12 16 -9 21 2 4 1 6 -4 5 -11 -3 -54 21 -73 41 -9 11
-11 12 -5 2 6 -10 0 -8 -16 4 -15 11 -25 23 -22 27 2 4 -3 5 -11 2 -9 -3 -16
-1 -16 5 0 6 -6 10 -12 8 -7 -1 -12 4 -10 11 1 8 -2 11 -8 7 -5 -3 -10 -1 -10
5 0 6 -4 9 -9 6 -5 -3 -14 1 -21 9 -7 8 -19 15 -27 15 -8 0 -12 4 -9 9 4 5 -2
8 -11 7 -10 -2 -20 0 -23 3 -11 14 -73 53 -86 55 -8 1 -20 8 -26 14 -7 7 -18
12 -26 12 -7 0 -20 7 -29 15 -8 8 -19 13 -24 10 -5 -4 -9 -1 -9 5 0 6 -4 8
-10 5 -5 -3 -10 -1 -10 5 0 7 -7 10 -15 6 -8 -3 -15 -2 -15 3 0 5 -11 12 -25
15 -16 4 -23 11 -19 18 4 6 3 8 -3 5 -6 -4 -29 2 -51 13 -23 11 -48 20 -57 20
-8 0 -15 4 -15 9 0 5 -11 8 -25 7 -13 -2 -23 2 -22 8 1 6 -6 10 -17 8 -10 -2
-15 1 -12 6 3 6 -2 8 -14 5 -11 -3 -20 -1 -20 5 0 6 -12 9 -26 7 -18 -2 -24 2
-20 11 3 8 2 13 -2 13 -28 -4 -72 3 -67 10 3 6 -4 8 -17 6 -12 -3 -33 2 -46
11 -18 12 -22 12 -16 3 6 -12 5 -12 -9 0 -9 7 -24 11 -32 7 -8 -3 -15 -1 -15
3 0 5 -7 12 -16 15 -10 4 -13 2 -8 -7 6 -9 5 -9 -7 0 -8 6 -29 10 -47 9 -18
-1 -36 3 -40 9 -9 14 -45 14 -54 0 -5 -6 -8 -5 -8 4 0 9 -9 12 -29 9 -17 -2
-30 -2 -29 1 2 18 -4 21 -22 11 -15 -8 -20 -8 -20 1 0 8 -4 8 -15 -1 -8 -7
-15 -8 -15 -3 0 9 -327 13 -336 4z m4204 -4777 c-1 -5 -9 -9 -16 -10 -10 -2
-11 1 -1 12 12 14 24 13 17 -2z m-3978 -122 c0 -4 -9 -13 -21 -20 -12 -8 -18
-9 -15 -4 3 6 3 12 -1 15 -5 2 -3 2 4 1 7 -2 15 1 18 6 7 12 15 13 15 2z
m-168 -19 c-6 -2 -9 -10 -6 -15 4 -7 2 -8 -5 -4 -13 9 -5 26 12 25 9 0 8 -2
-1 -6z m328 -25 c0 -6 -6 -5 -15 2 -8 7 -15 14 -15 16 0 2 7 1 15 -2 8 -4 15
-11 15 -16z m-806 -73 c-10 -26 -41 -37 -48 -18 -4 9 -4 18 -1 21 3 3 5 0 5
-6 0 -17 27 -15 34 3 3 8 8 15 10 15 3 0 3 -7 0 -15z m-64 -9 c0 -2 -7 -7 -16
-10 -8 -3 -12 -2 -9 4 6 10 25 14 25 6z m1389 -20 c10 -12 9 -14 -6 -11 -10 2
-22 4 -28 4 -5 1 -3 6 5 11 19 12 15 12 29 -4z m-1601 -59 c8 -10 6 -13 -7
-13 -11 0 -17 6 -14 13 3 7 6 13 8 13 1 0 7 -6 13 -13z m-226 -89 c-7 -7 -12
-8 -12 -2 0 14 12 26 19 19 2 -3 -1 -11 -7 -17z m4948 18 c0 -3 -4 -8 -10 -11
-5 -3 -10 -1 -10 4 0 6 5 11 10 11 6 0 10 -2 10 -4z m-5000 -20 c0 -3 -4 -8
-10 -11 -5 -3 -10 -1 -10 4 0 6 5 11 10 11 6 0 10 -2 10 -4z m-100 -48 c0 -6
-3 -8 -7 -5 -3 4 -12 2 -20 -5 -7 -6 -16 -8 -20 -4 -3 3 -1 6 6 6 7 0 10 4 7
8 -2 4 4 9 15 9 10 1 19 -3 19 -9z m-60 -18 c0 -5 -2 -10 -4 -10 -3 0 -8 5
-11 10 -3 6 -1 10 4 10 6 0 11 -4 11 -10z m-95 -20 c-3 -5 -14 -10 -23 -9 -14
0 -13 2 3 9 27 11 27 11 20 0z m-119 -69 c-9 -14 -26 -14 -26 0 0 5 5 7 12 3
8 -5 9 -1 4 12 -5 14 -4 16 5 7 6 -6 8 -16 5 -22z m-89 -10 c0 -11 -5 -17 -9
-15 -4 3 -8 1 -8 -4 0 -5 -7 -9 -15 -9 -11 0 -9 6 8 23 12 12 23 22 24 23 1 1
1 -8 0 -18z m5264 -18 c13 -16 12 -17 -3 -4 -10 7 -18 15 -18 17 0 8 8 3 21
-13z m-41 -38 c0 -12 -19 -12 -23 0 -4 9 -1 12 9 8 7 -3 14 -7 14 -8z m-5486
-31 c3 -8 2 -12 -4 -9 -6 3 -10 10 -10 16 0 14 7 11 14 -7z m3723 -9 c0 -8 -4
-12 -9 -9 -4 3 -8 9 -8 15 0 5 4 9 8 9 5 0 9 -7 9 -15z m-3822 -5 c-3 -5 -1
-10 4 -10 6 0 11 5 11 12 0 6 2 9 5 6 3 -3 3 -13 -1 -22 -5 -13 -9 -14 -20 -5
-12 10 -11 29 2 29 3 0 2 -4 -1 -10z m3866 -7 c13 -16 12 -17 -3 -4 -10 7 -18
15 -18 17 0 8 8 3 21 -13z m1471 -32 c8 12 9 12 6 0 -2 -8 -14 -15 -26 -16
-18 -1 -20 1 -10 13 9 10 13 11 16 2 3 -9 7 -9 14 1z m-6657 -11 c3 -5 1 -10
-4 -10 -6 0 -11 5 -11 10 0 6 2 10 4 10 3 0 8 -4 11 -10z m6603 -15 c-3 -3 -9
2 -12 12 -6 14 -5 15 5 6 7 -7 10 -15 7 -18z m-6531 -17 c-3 -8 -6 -5 -6 6 -1
11 2 17 5 13 3 -3 4 -12 1 -19z m6458 12 c3 -6 -1 -7 -9 -4 -18 7 -21 14 -7
14 6 0 13 -4 16 -10z m-54 -30 c6 0 7 -5 3 -11 -8 -14 -24 8 -23 31 1 11 3 10
6 -2 2 -10 9 -18 14 -18z m-794 -5 c0 -8 -4 -12 -9 -9 -5 3 -6 10 -3 15 9 13
12 11 12 -6z m763 5 c0 -5 -2 -10 -4 -10 -3 0 -8 5 -11 10 -3 6 -1 10 4 10 6
0 11 -4 11 -10z m-6079 -14 c7 4 9 3 5 -4 -9 -15 -43 -11 -43 5 0 9 4 10 13 2
7 -6 19 -7 25 -3z m373 -16 c-6 -6 -10 -3 -10 10 0 13 4 16 10 10 7 -7 7 -13
0 -20z m4908 15 c16 0 15 -11 -2 -12 -10 -1 -21 5 -24 13 -4 10 -2 13 7 7 6
-4 15 -8 19 -8z m-5028 -10 c3 -8 1 -15 -4 -15 -6 0 -10 7 -10 15 0 8 2 15 4
15 2 0 6 -7 10 -15z m5120 -4 c-8 -8 -34 -10 -38 -2 -3 4 6 7 19 7 14 0 22 -2
19 -5z m433 3 c-3 -3 -12 -4 -19 -1 -8 3 -5 6 6 6 11 1 17 -2 13 -5z m-5487
-8 c0 -2 -7 -6 -15 -10 -8 -3 -15 -1 -15 4 0 6 7 10 15 10 8 0 15 -2 15 -4z
m5455 -6 c3 -5 2 -10 -4 -10 -5 0 -13 5 -16 10 -3 6 -2 10 4 10 5 0 13 -4 16
-10z"/>
<path d="M3665 6010 c-3 -6 1 -7 9 -4 18 7 21 14 7 14 -6 0 -13 -4 -16 -10z"/>
<path d="M12060 6000 c0 -5 9 -8 20 -7 21 1 18 10 -5 13 -8 1 -15 -2 -15 -6z"/>
<path d="M3680 5900 c-9 -6 -10 -10 -3 -10 6 0 15 5 18 10 8 12 4 12 -15 0z"/>
<path d="M11906 5621 c-3 -5 1 -11 9 -14 9 -4 12 -1 8 9 -6 16 -10 17 -17 5z"/>
<path d="M11821 5456 c-10 -12 -8 -13 8 -9 12 3 18 9 15 14 -7 12 -10 11 -23
-5z"/>
<path d="M11735 5291 c-3 -5 -2 -12 3 -15 5 -3 9 1 9 9 0 17 -3 19 -12 6z"/>
<path d="M11642 5189 c3 -8 -4 -24 -15 -36 -15 -17 -17 -23 -6 -23 12 0 11 -2
-1 -11 -13 -9 -13 -10 0 -6 8 2 15 12 15 23 0 10 6 18 13 16 8 -1 11 2 8 7 -4
5 -2 11 3 13 5 1 2 9 -6 17 -14 12 -15 12 -11 0z"/>
<path d="M11586 5092 c-3 -5 1 -9 9 -9 8 0 12 4 9 9 -3 4 -7 8 -9 8 -2 0 -6
-4 -9 -8z"/>
<path d="M3516 5047 c3 -10 9 -15 12 -12 3 3 0 11 -7 18 -10 9 -11 8 -5 -6z"/>
<path d="M1315 4990 c10 -11 20 -20 23 -20 3 0 -3 9 -13 20 -10 11 -20 20 -23
20 -3 0 3 -9 13 -20z"/>
<path d="M11490 4959 c0 -5 5 -7 10 -4 6 3 10 8 10 11 0 2 -4 4 -10 4 -5 0
-10 -5 -10 -11z"/>
<path d="M1590 4716 c0 -2 7 -7 16 -10 8 -3 12 -2 9 4 -6 10 -25 14 -25 6z"/>
<path d="M11196 4701 c-13 -5 -16 -10 -9 -14 7 -4 14 -3 18 3 4 6 11 7 17 4 7
-4 8 -2 4 4 -4 7 -8 12 -9 11 -1 0 -11 -4 -21 -8z"/>
<path d="M9515 4690 c3 -5 8 -10 11 -10 2 0 4 5 4 10 0 6 -5 10 -11 10 -5 0
-7 -4 -4 -10z"/>
<path d="M3215 4628 c4 -9 -2 -24 -12 -34 -17 -17 -17 -18 0 -11 10 4 21 7 23
7 3 0 2 5 -1 10 -3 6 1 10 9 10 9 0 16 5 16 12 0 6 -3 8 -7 5 -3 -4 -12 -2
-20 5 -10 8 -12 8 -8 -4z"/>
<path d="M1735 4610 c10 -11 20 -20 23 -20 3 0 -3 9 -13 20 -10 11 -20 20 -23
20 -3 0 3 -9 13 -20z"/>
<path d="M10997 4562 c-15 -16 -15 -18 1 -18 10 0 18 8 18 18 0 10 -1 18 -2
18 0 0 -8 -8 -17 -18z"/>
<path d="M9660 4556 c0 -2 8 -10 18 -17 15 -13 16 -12 3 4 -13 16 -21 21 -21
13z"/>
<path d="M1850 4520 c0 -5 5 -10 11 -10 5 0 7 5 4 10 -3 6 -8 10 -11 10 -2 0
-4 -4 -4 -10z"/>
<path d="M1945 4490 c-4 -6 -4 -14 -1 -17 3 -4 6 0 6 8 0 9 7 5 19 -10 17 -22
18 -22 25 -5 4 10 4 15 0 11 -4 -4 -15 0 -25 9 -12 11 -19 12 -24 4z"/>
<path d="M9790 4460 c0 -6 7 -10 15 -10 8 0 15 2 15 4 0 2 -7 6 -15 10 -8 3
-15 1 -15 -4z"/>
<path d="M9834 4449 c-4 -7 -3 -9 4 -5 5 3 13 0 15 -6 4 -9 6 -10 6 -1 1 17
-16 25 -25 12z"/>
<path d="M2053 4435 c0 -8 4 -15 9 -15 4 0 8 4 8 9 0 6 -4 12 -8 15 -5 3 -9
-1 -9 -9z"/>
<path d="M2976 4441 c-3 -5 1 -11 9 -14 9 -4 12 -1 8 9 -6 16 -10 17 -17 5z"/>
<path d="M2875 4397 c-14 -11 -15 -16 -5 -22 9 -6 11 -4 5 5 -6 9 -4 12 7 8 9
-4 15 0 15 8 0 17 1 17 -22 1z"/>
<path d="M2320 4360 c-9 -6 -10 -10 -3 -10 6 0 15 5 18 10 8 12 4 12 -15 0z"/>
<path d="M10450 4365 c0 -5 5 -17 10 -25 5 -8 10 -10 10 -5 0 6 -5 17 -10 25
-5 8 -10 11 -10 5z"/>
<path d="M9990 3201 c0 -6 4 -13 10 -16 6 -3 7 1 4 9 -7 18 -14 21 -14 7z"/>
<path d="M10099 2993 c-13 -16 -12 -17 4 -4 16 13 21 21 13 21 -2 0 -10 -8
-17 -17z"/>
<path d="M10276 2542 c-3 -5 1 -9 9 -9 8 0 12 4 9 9 -3 4 -7 8 -9 8 -2 0 -6
-4 -9 -8z"/>
<path d="M10335 2341 c-3 -5 -2 -12 3 -15 5 -3 9 1 9 9 0 17 -3 19 -12 6z"/>
<path d="M10363 2215 c0 -7 6 -11 14 -8 7 3 13 6 13 8 0 2 -6 5 -13 8 -8 3
-14 -1 -14 -8z"/>
<path d="M10420 1820 c0 -5 5 -10 11 -10 5 0 7 5 4 10 -3 6 -8 10 -11 10 -2 0
-4 -4 -4 -10z"/>
<path d="M10442 1683 c24 -25 38 -32 18 -8 -6 8 -9 18 -7 22 3 5 -3 9 -13 9
-18 0 -18 -2 2 -23z"/>
<path d="M10434 1662 c3 -6 2 -13 -4 -17 -6 -4 -7 -13 -1 -23 4 -9 7 -25 6
-34 -2 -9 7 -25 18 -35 21 -18 21 -17 7 1 -17 22 -20 58 -5 68 6 5 2 8 -9 8
-15 0 -16 3 -7 14 9 11 9 16 0 22 -7 4 -9 3 -5 -4z"/>
<path d="M10426 1542 c-2 -4 -1 -14 3 -21 6 -10 10 -9 14 3 6 16 -8 32 -17 18z"/>
<path d="M6429 1163 c-13 -16 -12 -17 4 -4 9 7 17 15 17 17 0 8 -8 3 -21 -13z"/>
<path d="M6509 1166 c6 -7 9 -15 6 -18 -3 -2 1 -5 9 -5 20 0 13 30 -8 33 -13
2 -14 -1 -7 -10z"/>
<path d="M6660 1140 c-8 -5 -10 -10 -5 -10 6 0 17 5 25 10 8 5 11 10 5 10 -5
0 -17 -5 -25 -10z"/>
<path d="M6780 1115 c-11 -13 -10 -14 4 -9 9 3 16 10 16 15 0 13 -6 11 -20 -6z"/>
<path d="M5913 1103 c-3 -8 -3 -17 1 -20 3 -4 6 2 6 13 0 16 2 17 10 4 9 -13
10 -13 10 0 0 12 2 12 9 2 7 -11 9 -11 14 0 3 10 -3 14 -20 14 -14 0 -27 -6
-30 -13z"/>
<path d="M5817 1093 c-8 -12 10 -29 20 -19 3 3 13 0 22 -7 14 -11 14 -10 2 5
-7 10 -17 16 -21 13 -5 -3 -10 0 -12 7 -3 9 -6 9 -11 1z"/>
<path d="M6987 1067 c-3 -7 3 -13 13 -13 10 0 16 6 13 13 -3 7 -9 13 -13 13
-4 0 -10 -6 -13 -13z"/>
<path d="M7030 1059 c0 -5 5 -7 10 -4 6 3 10 8 10 11 0 2 -4 4 -10 4 -5 0 -10
-5 -10 -11z"/>
<path d="M10320 1040 c-9 -16 -8 -18 5 -14 8 3 13 10 10 14 -3 5 1 11 7 13 10
4 10 6 1 6 -7 1 -17 -8 -23 -19z"/>
<path d="M5651 1004 c0 -11 3 -14 6 -6 3 7 2 16 -1 19 -3 4 -6 -2 -5 -13z"/>
<path d="M7211 994 c0 -11 3 -14 6 -6 3 7 2 16 -1 19 -3 4 -6 -2 -5 -13z"/>
<path d="M7230 1001 c0 -5 7 -12 16 -15 14 -5 15 -4 4 9 -14 17 -20 19 -20 6z"/>
<path d="M7530 879 c0 -5 5 -7 10 -4 6 3 10 8 10 11 0 2 -4 4 -10 4 -5 0 -10
-5 -10 -11z"/>
<path d="M7651 843 c-1 -17 16 -25 25 -12 4 7 3 9 -4 5 -5 -3 -13 0 -15 6 -4
9 -6 10 -6 1z"/>
<path d="M7729 807 c6 -8 7 -18 3 -22 -4 -5 -1 -5 6 -1 10 6 10 11 1 22 -6 8
-14 14 -16 14 -3 0 0 -6 6 -13z"/>
<path d="M7771 784 c6 -7 16 -11 21 -8 11 7 3 17 -18 20 -12 2 -13 -1 -3 -12z"/>
<path d="M4917 779 c-9 -5 -23 -7 -30 -4 -6 4 -3 -1 8 -10 18 -14 21 -14 31 0
6 8 15 11 19 7 5 -4 5 -1 1 6 -8 14 -6 14 -29 1z"/>
<path d="M10105 779 c7 -11 35 -12 35 -1 0 4 -9 8 -20 9 -11 1 -18 -2 -15 -8z"/>
<path d="M7846 762 c-3 -4 4 -9 15 -9 23 -2 25 3 4 10 -8 4 -16 3 -19 -1z"/>
<path d="M2830 686 c0 -3 9 -10 20 -16 11 -6 20 -8 20 -6 0 3 -9 10 -20 16
-11 6 -20 8 -20 6z"/>
<path d="M10010 679 c0 -5 5 -7 10 -4 6 3 10 8 10 11 0 2 -4 4 -10 4 -5 0 -10
-5 -10 -11z"/>
<path d="M4551 653 c7 -10 15 -20 16 -22 2 -2 3 3 3 11 0 9 -7 19 -16 22 -15
6 -15 4 -3 -11z"/>
<path d="M2894 639 c-4 -7 -3 -9 4 -5 5 3 13 0 15 -6 4 -9 6 -10 6 -1 1 17
-16 25 -25 12z"/>
<path d="M9795 611 c-3 -5 -1 -12 5 -16 5 -3 10 1 10 9 0 18 -6 21 -15 7z"/>
<path d="M8280 600 c-9 -6 -10 -10 -3 -10 6 0 15 5 18 10 8 12 4 12 -15 0z"/>
<path d="M8450 559 c0 -5 4 -8 9 -4 5 3 12 1 16 -5 3 -5 11 -10 18 -10 6 0 2
7 -9 15 -23 17 -34 19 -34 4z"/>
<path d="M8537 553 c-13 -13 -7 -20 18 -20 14 0 25 0 23 1 -2 1 -10 7 -19 14
-9 6 -19 9 -22 5z"/>
<path d="M4033 535 c-3 -9 -3 -19 1 -22 3 -4 6 -1 6 6 0 7 4 9 10 6 6 -3 7 1
4 9 -8 20 -13 20 -21 1z"/>
<path d="M8595 529 c-4 -6 -4 -13 -1 -16 3 -4 6 0 6 7 0 9 5 7 16 -6 14 -18
15 -18 4 4 -12 25 -16 27 -25 11z"/>
<path d="M8654 525 c-4 -9 -4 -19 0 -22 3 -4 6 2 6 13 0 16 2 17 10 4 6 -9 10
-10 10 -3 0 19 -20 26 -26 8z"/>
<path d="M3270 520 c0 -5 5 -10 11 -10 5 0 7 5 4 10 -3 6 -8 10 -11 10 -2 0
-4 -4 -4 -10z"/>
<path d="M9115 501 c-3 -6 -10 -9 -14 -7 -11 7 -36 -12 -28 -21 5 -4 12 -1 17
7 8 13 10 13 10 1 0 -11 4 -10 16 5 15 19 16 19 9 -1 -5 -16 -4 -18 6 -7 9 9
10 15 2 23 -8 8 -13 8 -18 0z"/>
<path d="M3645 489 c-4 -6 -5 -12 -2 -15 2 -3 7 2 10 11 7 17 1 20 -8 4z"/>
<path d="M3396 478 c3 -5 10 -6 15 -3 13 9 11 12 -6 12 -8 0 -12 -4 -9 -9z"/>
</g>
</svg>
