<?xml version="1.0" standalone="no"?>
<!DOCTYPE svg PUBLIC "-//W3C//DTD SVG 20010904//EN"
 "http://www.w3.org/TR/2001/REC-SVG-20010904/DTD/svg10.dtd">
<svg version="1.0" xmlns="http://www.w3.org/2000/svg"
 width="250.000000pt" height="250.000000pt" viewBox="0 0 250.000000 250.000000"
 preserveAspectRatio="xMidYMid meet">
<metadata>
Created by potrace 1.11, written by Peter Selinger 2001-2013
</metadata>
<g transform="translate(0.000000,250.000000) scale(0.100000,-0.100000)"
fill="#000000" stroke="none">
<path d="M755 2349 c-22 -12 -47 -27 -56 -35 -9 -8 -19 -11 -24 -7 -4 5 -5 2
-1 -4 4 -7 2 -13 -4 -13 -6 0 -9 -4 -6 -9 7 -11 -22 -23 -35 -16 -5 4 -6 -1
-3 -9 3 -9 10 -13 15 -10 5 3 0 -11 -11 -30 -11 -20 -20 -38 -20 -41 0 -3 -1
-8 -1 -12 -1 -5 -2 -14 -3 -22 0 -8 -11 -15 -23 -16 -24 -2 -45 -15 -25 -15 7
0 12 -5 12 -11 0 -5 -4 -7 -10 -4 -5 3 -10 1 -10 -5 0 -7 6 -10 13 -7 6 2 11
12 11 21 -2 21 3 20 16 -4 6 -11 7 -20 3 -19 -22 4 -25 -3 -7 -16 10 -8 15
-15 9 -14 -26 4 -55 -2 -55 -11 0 -5 7 -6 17 -3 10 4 14 2 9 -5 -3 -6 -2 -13
4 -17 5 -3 10 2 10 11 0 10 3 15 6 11 4 -3 4 -13 0 -22 -4 -12 -10 -14 -25 -5
-17 9 -19 7 -15 -15 3 -16 0 -25 -8 -25 -8 0 -6 -5 5 -11 9 -5 17 -15 17 -21
0 -7 -4 -7 -13 1 -10 8 -14 7 -14 -4 0 -8 4 -12 9 -9 8 5 12 -11 9 -30 -1 -5
2 -12 7 -15 5 -3 12 -16 16 -28 6 -18 4 -22 -7 -17 -8 3 -17 -2 -21 -12 -6
-15 -4 -15 10 -3 15 12 16 11 11 -11 -4 -14 -4 -19 -1 -12 8 16 25 5 18 -12
-3 -8 4 -16 18 -19 22 -6 22 -6 3 9 -19 14 -19 15 3 11 12 -2 28 -9 35 -17 8
-9 8 -11 0 -6 -6 3 -14 2 -18 -3 -3 -5 -14 -8 -25 -6 -12 2 -18 0 -15 -6 4 -5
10 -7 15 -4 4 3 11 -2 14 -11 9 -23 8 -26 -6 -18 -7 4 -5 -2 5 -13 9 -11 14
-23 10 -28 -5 -4 3 -2 17 5 18 9 25 10 28 1 2 -6 9 -8 15 -4 7 4 6 -1 -2 -10
-14 -18 -26 -23 -16 -8 3 5 1 12 -5 16 -5 3 -10 -1 -10 -9 0 -8 5 -18 10 -21
6 -4 7 -11 4 -17 -4 -6 -12 -2 -19 12 -10 19 -13 20 -18 6 -4 -10 -3 -15 2
-12 5 3 12 -1 15 -10 4 -9 11 -12 18 -8 7 5 26 9 43 10 21 2 25 0 15 -6 -11
-7 -12 -10 -2 -10 7 0 10 -4 7 -10 -6 -10 7 -14 32 -11 6 1 14 -3 18 -9 4 -6
-1 -7 -12 -4 -17 5 -17 5 -1 -9 14 -11 15 -16 5 -27 -10 -10 -8 -10 11 -1 12
7 28 8 35 4 22 -14 49 -14 41 -1 -6 10 -4 10 7 2 8 -6 22 -10 32 -9 9 2 15 -1
12 -5 -3 -5 -14 -7 -25 -5 -24 5 -42 -16 -30 -35 6 -10 10 -11 10 -3 0 7 6 11
13 9 6 -1 9 -1 4 1 -13 8 3 22 18 17 8 -4 12 -11 8 -17 -3 -6 -1 -7 6 -3 6 4
9 11 6 16 -6 10 1 15 38 24 22 5 27 4 21 -6 -4 -7 2 -5 13 5 16 14 22 15 26 5
4 -8 6 -7 6 5 1 15 12 22 34 18 5 -1 6 3 3 8 -4 5 0 13 8 18 28 17 76 102 94
170 18 68 21 160 8 226 -3 15 -8 39 -11 53 -10 47 -52 141 -83 187 -88 127
-219 179 -317 126z m-165 -387 c13 -11 13 -12 0 -7 -13 4 -16 -2 -16 -27 1
-36 15 -59 31 -50 6 3 4 -2 -4 -11 -14 -18 -26 -24 -17 -8 3 5 -1 14 -8 20 -8
7 -13 24 -11 39 2 15 0 31 -3 37 -3 5 -7 18 -7 29 -2 16 0 16 10 5 6 -8 17
-20 25 -27z m20 -67 c0 -5 -5 -3 -10 5 -5 8 -10 20 -10 25 0 6 5 3 10 -5 5 -8
10 -19 10 -25z m0 -69 c0 -8 6 -17 13 -20 6 -2 2 -4 -10 -2 -28 3 -37 11 -28
25 9 16 25 13 25 -3z m40 -80 c0 -2 -7 -7 -16 -10 -8 -3 -12 -2 -9 4 6 10 25
14 25 6z m5 -36 c-17 -19 -41 -18 -29 1 3 5 10 7 15 4 5 -4 9 -1 9 4 0 6 5 11
12 11 6 0 3 -8 -7 -20z m52 -55 c0 -8 -4 -12 -9 -9 -4 3 -8 0 -8 -6 0 -6 -5
-8 -11 -5 -8 5 10 28 27 35 0 0 1 -7 1 -15z m98 -85 c3 -5 1 -10 -4 -10 -6 0
-11 5 -11 10 0 6 2 10 4 10 3 0 8 -4 11 -10z"/>
<path d="M1560 2360 c0 -5 -60 -34 -72 -35 -3 0 -10 -4 -15 -9 -5 -5 -2 -6 7
-1 8 4 -2 -9 -22 -30 -21 -20 -38 -40 -38 -45 0 -5 -7 -7 -15 -4 -10 4 -13 0
-10 -14 4 -23 -39 -77 -54 -67 -5 3 -13 0 -17 -6 -4 -8 -3 -9 4 -5 7 4 12 1
12 -6 0 -9 3 -9 10 2 5 8 10 10 10 4 0 -5 -6 -18 -13 -29 -11 -14 -16 -15 -22
-5 -5 9 -4 11 3 6 7 -4 12 -2 12 3 0 6 -7 11 -16 11 -11 0 -14 -5 -10 -16 3
-9 6 -20 6 -25 0 -6 5 -7 10 -4 6 3 10 2 10 -3 0 -6 -7 -13 -16 -16 -22 -8
-24 -8 -18 7 3 8 -3 20 -13 28 -16 12 -17 12 -6 -2 7 -9 10 -19 6 -22 -10 -10
18 -38 31 -30 6 3 3 -3 -6 -14 -21 -23 -24 -38 -5 -27 9 6 9 5 0 -8 -7 -8 -11
-17 -8 -20 3 -3 -5 -13 -17 -24 -13 -10 -17 -12 -11 -4 10 13 8 18 -10 30 -20
12 -21 12 -9 -2 7 -9 12 -20 11 -24 -1 -5 -1 -17 0 -28 1 -18 2 -18 19 1 9 10
13 13 9 6 -5 -6 -6 -16 -3 -22 10 -15 -25 -6 -36 10 -8 11 -9 11 -5 -3 6 -17
-14 -42 -27 -33 -3 3 -1 -1 5 -8 9 -9 12 -9 16 1 3 6 9 10 14 6 5 -3 5 -12 -1
-23 -5 -10 -6 -21 -3 -25 3 -3 -1 -6 -10 -6 -9 0 -17 -4 -17 -10 0 -5 6 -7 14
-4 11 4 13 -3 10 -30 -2 -21 1 -36 8 -36 6 0 5 -7 -3 -17 -10 -11 -10 -14 -1
-9 6 4 12 2 12 -3 0 -6 5 -11 11 -11 8 0 7 6 -2 17 -10 11 -10 14 -1 9 6 -4
12 -2 12 3 0 6 -4 11 -9 11 -6 0 -8 9 -6 20 3 13 0 18 -7 14 -7 -4 -8 -2 -4 5
6 8 12 9 20 2 7 -6 17 -7 22 -3 4 4 3 0 -3 -8 -14 -20 -10 -63 7 -68 8 -3 10
0 5 9 -5 8 -4 10 0 6 14 -12 15 -40 2 -56 -10 -12 -8 -13 13 -7 21 6 22 5 7
-4 -20 -13 -41 -4 -31 12 4 7 2 8 -4 4 -7 -4 -9 1 -7 15 2 12 1 18 -3 15 -4
-4 -8 -12 -8 -17 -1 -5 -2 -10 -4 -11 -1 -2 -3 -11 -5 -21 -3 -14 0 -16 10 -7
10 9 16 7 24 -9 16 -29 13 -39 -5 -16 -15 20 -15 20 -5 -34 1 -2 8 2 16 9 17
14 21 0 4 -17 -9 -9 -5 -11 13 -9 14 2 30 6 37 10 7 5 20 -1 30 -13 10 -11 20
-18 23 -16 2 3 5 -2 5 -10 0 -12 -5 -11 -22 5 -12 11 -25 17 -30 13 -4 -5 -4
-1 0 7 8 13 7 13 -8 1 -9 -7 -16 -21 -16 -30 1 -12 2 -12 6 3 4 16 8 15 37
-13 34 -33 71 -47 81 -30 4 5 11 6 17 3 7 -4 8 -2 4 5 -4 6 -12 8 -18 5 -7 -5
-8 -2 -3 7 5 9 1 8 -11 -3 -13 -12 -24 -14 -34 -8 -13 9 -7 14 12 11 4 0 5 5
2 13 -3 8 -1 17 5 21 7 3 8 0 5 -9 -3 -9 -1 -16 5 -16 6 0 11 6 11 13 0 6 5 4
11 -5 5 -10 15 -18 20 -18 6 0 8 4 5 8 -3 5 1 9 9 9 8 0 11 -5 7 -11 -10 -17
-11 -37 -1 -30 5 3 7 9 4 14 -11 18 59 31 84 15 9 -5 12 -4 7 3 -7 12 27 35
38 25 3 -3 6 0 6 7 0 7 2 11 5 8 3 -3 23 12 45 33 140 136 207 377 154 557
-21 74 -35 99 -77 144 -47 50 -98 70 -169 66 -32 -2 -58 -5 -58 -8z m-255
-472 c4 4 2 -3 -4 -15 -6 -13 -15 -23 -20 -23 -4 0 -8 -7 -8 -15 0 -20 7 -19
23 3 7 9 14 12 14 5 0 -6 -5 -15 -10 -18 -6 -4 -8 -10 -6 -14 3 -3 -3 -7 -13
-7 -17 0 -18 8 -12 59 1 5 6 5 11 2 17 -10 11 7 -7 22 -16 13 -16 13 3 4 12
-6 25 -7 29 -3z m45 -269 c0 -5 8 -10 18 -10 16 -1 16 -2 0 -6 -10 -2 -18 -9
-18 -14 0 -5 -5 -9 -11 -9 -8 0 -8 5 1 15 7 9 8 15 2 15 -5 0 -12 7 -15 14 -4
10 -1 13 9 9 7 -3 14 -9 14 -14z m55 -79 c10 -11 16 -20 13 -20 -3 0 -13 9
-23 20 -10 11 -16 20 -13 20 3 0 13 -9 23 -20z"/>
<path d="M1406 2278 c3 -5 10 -6 15 -3 13 9 11 12 -6 12 -8 0 -12 -4 -9 -9z"/>
<path d="M1356 2232 c-2 -4 2 -15 9 -25 7 -10 16 -14 19 -9 3 6 -1 13 -10 16
-8 3 -12 10 -9 16 3 5 4 10 1 10 -3 0 -7 -3 -10 -8z"/>
<path d="M576 2218 c3 -4 12 -8 20 -8 8 0 12 -5 9 -11 -4 -6 -13 -8 -21 -5
-11 4 -12 2 -4 -14 8 -15 6 -21 -7 -30 -16 -10 -16 -11 -1 -6 9 3 19 2 21 -2
2 -4 2 -2 1 5 -2 7 1 15 7 18 5 4 7 10 4 15 -3 5 -1 11 4 15 16 9 3 31 -19 31
-10 0 -16 -4 -14 -8z"/>
<path d="M1350 2189 c0 -6 -7 -8 -16 -5 -8 3 -12 2 -9 -3 9 -15 44 -9 38 6 -6
16 -13 17 -13 2z"/>
<path d="M516 2037 c3 -10 9 -15 12 -12 3 3 0 11 -7 18 -10 9 -11 8 -5 -6z"/>
<path d="M1285 2040 c3 -6 3 -15 -1 -22 -5 -8 -10 -6 -15 8 -6 15 -8 16 -8 3
-1 -9 7 -27 17 -39 14 -18 19 -19 19 -7 0 9 -4 14 -9 11 -14 -9 -9 8 7 26 14
16 14 18 0 24 -9 3 -13 2 -10 -4z"/>
<path d="M515 2000 c-3 -5 -1 -10 4 -10 6 0 11 5 11 10 0 6 -2 10 -4 10 -3 0
-8 -4 -11 -10z"/>
<path d="M1235 1960 c3 -5 8 -10 11 -10 2 0 4 5 4 10 0 6 -5 10 -11 10 -5 0
-7 -4 -4 -10z"/>
<path d="M535 1860 c3 -5 8 -10 11 -10 2 0 4 5 4 10 0 6 -5 10 -11 10 -5 0 -7
-4 -4 -10z"/>
<path d="M547 1779 c7 -7 15 -10 18 -7 3 3 -2 9 -12 12 -14 6 -15 5 -6 -5z"/>
<path d="M575 1720 c3 -5 8 -10 11 -10 2 0 4 5 4 10 0 6 -5 10 -11 10 -5 0 -7
-4 -4 -10z"/>
<path d="M1244 1699 c-4 -7 -3 -9 4 -5 5 3 13 0 15 -6 4 -9 6 -10 6 -1 1 17
-16 25 -25 12z"/>
<path d="M596 1687 c3 -10 9 -15 12 -12 3 3 0 11 -7 18 -10 9 -11 8 -5 -6z"/>
<path d="M1305 1690 c3 -5 8 -10 11 -10 2 0 4 5 4 10 0 6 -5 10 -11 10 -5 0
-7 -4 -4 -10z"/>
<path d="M318 1675 c-21 -7 -40 -10 -44 -6 -4 3 -3 0 1 -8 6 -11 4 -13 -9 -8
-9 4 -15 3 -11 -2 3 -5 -6 -18 -20 -29 -13 -11 -21 -22 -18 -26 6 -5 -20 -10
-40 -7 -4 0 -6 -5 -5 -11 2 -7 -2 -12 -7 -11 -6 1 -11 -6 -12 -15 -1 -10 -3
-23 -5 -31 -2 -7 4 -16 12 -18 13 -4 13 -3 0 6 -10 7 -11 11 -3 11 7 0 10 6 7
13 -2 7 4 21 14 30 18 16 19 16 17 -2 -1 -11 -8 -27 -16 -37 -8 -9 -13 -19
-11 -21 7 -10 0 -22 -12 -17 -18 7 -30 -13 -31 -51 0 -16 -4 -36 -8 -42 -5 -7
-5 -13 -1 -13 4 0 0 -6 -11 -13 -17 -13 -17 -14 1 -28 24 -18 29 -39 12 -52
-10 -6 -9 -8 4 -4 13 5 16 0 14 -18 -1 -13 -9 -32 -17 -42 -13 -16 -12 -17 3
-5 11 9 18 10 23 2 3 -5 0 -10 -7 -10 -7 -1 -2 -7 12 -14 25 -15 53 -10 29 5
-7 4 -16 6 -20 3 -4 -2 -6 4 -4 13 1 10 -2 24 -8 31 -5 6 -8 12 -6 13 31 6 39
6 39 -2 0 -5 -4 -9 -9 -9 -14 0 -7 -30 9 -40 8 -5 19 -6 25 -3 5 4 2 -3 -8
-14 -10 -12 -26 -20 -35 -18 -9 2 -17 4 -17 5 0 1 -8 3 -18 5 -9 2 -15 -1 -11
-6 3 -5 9 -7 14 -4 12 7 26 -17 24 -42 0 -12 3 -20 7 -17 5 3 12 -2 15 -10 3
-9 10 -16 16 -16 5 0 6 5 3 10 -3 6 -2 10 3 10 5 0 7 11 4 25 -2 14 -8 22 -14
19 -5 -3 -6 -15 -2 -27 6 -21 6 -21 -12 -4 -19 18 -19 19 0 32 23 17 36 11 36
-16 0 -14 4 -18 13 -13 8 5 8 2 -2 -9 -18 -22 4 -54 24 -37 21 17 25 -1 16
-65 -1 -5 -5 -3 -10 4 -6 9 -6 22 0 32 13 26 11 33 -6 19 -8 -7 -12 -17 -8
-23 3 -6 1 -7 -6 -3 -6 4 -9 11 -6 16 6 9 -25 23 -33 15 -3 -3 0 -5 8 -5 10 0
10 -3 0 -15 -11 -13 -10 -14 5 -9 13 5 16 4 11 -5 -4 -6 -4 -10 1 -9 4 2 9 -1
10 -6 3 -18 28 -25 43 -11 13 11 18 11 34 -1 11 -8 15 -14 10 -14 -6 0 -15 5
-21 11 -8 8 -13 7 -18 -1 -4 -6 -2 -17 4 -23 15 -15 14 -30 -1 -21 -8 4 -10 3
-5 -2 5 -5 12 -9 15 -9 4 0 13 -4 21 -9 16 -11 8 7 -17 37 -14 16 -14 17 0 12
9 -4 19 -13 22 -21 3 -9 11 -12 17 -8 6 3 15 1 19 -7 7 -10 12 -10 27 2 16 12
17 12 6 -2 -7 -9 -9 -19 -5 -23 4 -4 0 -6 -8 -4 -8 2 -20 10 -27 18 -11 13
-12 13 -13 -2 0 -10 6 -18 13 -18 8 0 7 -4 -3 -10 -9 -6 -10 -10 -3 -10 6 0
14 4 18 10 3 6 15 5 31 -2 18 -9 21 -14 12 -20 -10 -7 -9 -9 2 -5 8 2 15 8 15
13 1 21 17 35 29 25 7 -6 16 -8 19 -4 4 3 7 2 7 -4 0 -9 71 -9 110 -1 65 15
127 102 145 203 15 87 11 135 -16 229 -28 93 -62 157 -120 220 -83 91 -188
130 -271 101z m-155 -225 c8 0 7 -4 -1 -12 -15 -15 -16 -31 0 -22 7 4 8 3 4
-4 -9 -15 -33 -5 -33 13 0 8 4 12 9 9 4 -3 8 -1 8 5 0 5 -5 13 -10 16 -6 4 -7
12 -3 18 5 8 9 7 11 -5 2 -10 9 -18 15 -18z m-28 -59 c-3 -5 -1 -12 5 -16 5
-3 10 -1 10 5 0 6 5 8 11 4 8 -4 7 -9 -2 -15 -12 -8 -11 -11 1 -20 12 -8 9 -9
-10 -3 -22 6 -23 5 -11 -9 7 -9 17 -15 20 -12 4 2 8 -2 8 -10 0 -8 -4 -12 -9
-9 -4 3 -8 1 -8 -5 0 -5 8 -12 18 -14 16 -4 16 -5 0 -6 -17 -1 -42 32 -32 42
3 3 -4 11 -16 17 -18 10 -20 14 -9 21 8 4 15 13 15 19 2 17 4 20 10 20 3 0 3
-4 -1 -9z m115 -285 c0 -3 -4 -8 -10 -11 -5 -3 -10 -1 -10 4 0 6 5 11 10 11 6
0 10 -2 10 -4z m95 -116 c-3 -5 -12 -10 -18 -10 -7 0 -6 4 3 10 19 12 23 12
15 0z m65 -49 c0 -6 -4 -12 -8 -15 -5 -3 -9 1 -9 9 0 8 4 15 9 15 4 0 8 -4 8
-9z"/>
<path d="M2046 1678 c-21 -4 -51 -18 -67 -29 -25 -18 -32 -19 -47 -7 -15 11
-16 11 -4 -3 11 -15 9 -20 -14 -38 -14 -11 -30 -18 -35 -16 -4 3 -6 -4 -4 -15
2 -12 0 -18 -6 -15 -5 4 -14 -7 -20 -23 -6 -17 -17 -33 -25 -36 -9 -3 -13 -10
-10 -14 3 -5 -2 -18 -12 -28 -10 -10 -17 -26 -17 -34 1 -8 -5 -24 -12 -36 -7
-11 -11 -24 -8 -27 3 -4 2 -5 -2 -2 -3 3 -12 -3 -19 -13 -7 -9 -21 -17 -31
-17 -13 0 -18 -7 -18 -25 0 -14 -4 -32 -9 -40 -7 -12 -6 -12 4 -3 7 6 18 9 25
7 7 -3 16 -1 20 5 3 7 0 8 -9 5 -9 -3 -16 -2 -17 2 0 5 -2 17 -4 27 -2 11 1
16 8 14 7 -2 11 -12 9 -22 -2 -11 1 -14 8 -10 6 4 9 13 6 20 -2 7 2 16 9 19
11 4 12 0 4 -22 -6 -15 -10 -28 -10 -29 4 -15 -2 -23 -18 -23 -11 0 -23 -5
-26 -10 -4 -7 5 -9 27 -5 22 4 28 2 19 -4 -10 -6 -12 -14 -5 -23 5 -8 1 -5 -8
5 -10 11 -19 15 -19 11 -1 -5 -2 -13 -3 -19 0 -5 -7 -20 -14 -33 -13 -23 -13
-23 10 -11 31 16 38 24 13 15 -15 -5 -17 -4 -8 4 7 8 17 9 28 3 14 -8 13 -11
-10 -21 -14 -6 -25 -16 -25 -22 0 -6 -4 -8 -10 -5 -6 4 -7 -1 -3 -11 5 -15 7
-15 17 2 6 11 17 20 24 22 8 1 11 -2 8 -7 -4 -5 0 -12 6 -15 7 -3 3 -3 -9 0
-17 4 -23 1 -23 -11 0 -10 5 -13 12 -9 7 4 8 3 4 -4 -4 -6 -14 -9 -24 -6 -15
5 -15 5 1 -6 9 -6 23 -8 30 -4 6 4 8 3 4 -1 -4 -5 3 -15 15 -22 13 -7 17 -12
11 -13 -7 0 -13 -4 -13 -9 0 -5 6 -11 13 -14 6 -2 5 -3 -3 -2 -8 2 -23 6 -32
10 -13 5 -17 2 -15 -14 1 -14 5 -17 13 -10 8 7 14 6 19 -1 4 -6 16 -8 28 -5
17 5 19 4 7 -4 -11 -8 -12 -11 -2 -11 7 0 10 -5 7 -10 -3 -6 3 -10 14 -10 11
0 23 -5 27 -11 11 -18 -38 1 -59 22 -20 22 -26 23 -47 8 -12 -8 -10 -9 9 -4
16 5 21 4 17 -4 -4 -6 -2 -10 5 -9 6 2 14 -4 17 -12 2 -8 1 -12 -3 -8 -5 4
-14 3 -22 -3 -10 -9 -13 -8 -13 5 0 9 -3 16 -7 16 -5 1 -37 28 -73 61 -83 77
-193 151 -267 180 -88 34 -207 32 -293 -5 -36 -15 -70 -28 -77 -28 -7 -1 -14
-7 -17 -15 -3 -7 -12 -13 -20 -13 -8 0 -16 -3 -18 -8 -4 -10 -88 -75 -88 -68
0 3 -18 -13 -39 -36 -22 -22 -44 -37 -50 -34 -6 4 -9 1 -6 -6 5 -14 -96 -127
-130 -146 -11 -6 -16 -14 -12 -19 5 -4 13 0 18 10 6 9 15 17 20 17 6 0 4 -7
-3 -15 -7 -8 -19 -21 -26 -30 -9 -10 -22 -14 -35 -10 -17 5 -19 4 -7 -4 8 -6
11 -11 6 -11 -5 0 -3 -6 3 -14 9 -10 8 -16 -4 -26 -8 -7 -12 -16 -9 -21 3 -5
-1 -6 -9 -3 -8 3 -18 0 -23 -7 -4 -7 -3 -10 4 -5 12 7 11 -13 -3 -34 -9 -15
-11 -20 -14 -40 0 -5 -5 -10 -10 -10 -10 0 -9 19 1 35 4 6 -3 12 -15 12 -16 2
-18 0 -8 -6 11 -7 9 -11 -8 -20 -18 -10 -19 -15 -10 -33 10 -18 9 -20 -7 -14
-15 5 -16 4 -7 -5 18 -18 35 -2 22 23 -9 16 -8 19 3 16 16 -6 24 -48 8 -48 -8
0 -10 -10 -8 -25 3 -14 1 -28 -4 -31 -4 -3 -5 -10 -2 -16 4 -7 2 -8 -4 -4 -9
5 -11 -4 -7 -31 3 -28 2 -34 -6 -21 -6 11 -16 15 -26 11 -11 -4 -14 -3 -9 5 5
8 1 10 -10 5 -11 -4 -13 -8 -6 -11 15 -5 16 -32 0 -32 -6 0 -9 -2 -6 -5 8 -8
39 6 33 15 -3 5 0 12 7 16 7 4 10 3 5 -1 -4 -5 0 -16 9 -26 10 -11 12 -19 5
-23 -6 -4 -8 -13 -5 -20 3 -8 1 -17 -5 -21 -17 -10 -13 -25 7 -25 14 0 15 -2
2 -10 -8 -5 -17 -7 -19 -4 -10 9 -7 83 3 77 5 -3 6 -1 2 6 -6 9 -11 9 -22 0
-7 -6 -11 -15 -8 -21 3 -5 0 -16 -8 -25 -11 -14 -11 -16 1 -8 11 6 13 4 8 -8
-4 -10 0 -20 11 -26 25 -14 7 -24 -20 -11 -20 10 -21 9 -6 -3 14 -11 15 -16 5
-27 -10 -12 -9 -12 4 -2 9 7 24 10 33 6 9 -3 24 0 33 7 12 10 10 4 -5 -17 -21
-31 -21 -32 -2 -49 11 -10 16 -24 13 -33 -4 -10 -3 -14 1 -11 9 8 17 51 8 45
-4 -2 -8 8 -9 22 -1 27 -1 27 11 4 7 -12 16 -19 21 -15 4 4 4 1 -1 -7 -17 -29
-13 -47 13 -59 29 -13 43 -7 23 12 -10 9 -11 9 -6 0 5 -9 2 -11 -8 -7 -12 5
-12 8 2 23 13 13 19 14 25 5 4 -7 16 -11 27 -9 11 2 22 0 24 -4 4 -6 171 -7
171 -1 0 2 12 5 51 13 11 3 38 12 59 21 31 13 40 14 47 4 6 -10 8 -8 8 5 0 9
4 17 10 17 5 0 8 -6 6 -12 -1 -7 -1 -10 1 -6 2 4 10 6 16 4 7 -1 9 -1 5 1 -5
3 -8 9 -8 14 0 6 4 8 9 5 5 -4 11 -2 13 2 1 5 16 12 32 16 24 6 28 5 20 -6 -5
-8 -2 -6 8 4 9 10 19 18 22 18 9 0 2 -24 -9 -33 -6 -5 -4 -7 5 -4 8 2 16 9 16
15 1 7 2 16 3 21 0 5 13 8 27 5 15 -3 23 -1 20 5 -3 5 5 8 19 6 14 -1 28 1 31
6 10 17 44 -15 39 -38 -2 -13 0 -21 4 -18 12 7 33 -20 23 -30 -4 -5 -1 -5 6
-1 10 6 10 11 2 21 -7 8 -9 19 -5 24 3 6 0 9 -7 8 -7 -2 -10 -2 -5 0 4 3 4 10
1 16 -5 9 -3 8 6 0 9 -9 19 -9 33 -2 15 9 18 8 12 -2 -6 -9 -3 -10 10 -5 15 5
16 4 5 -9 -10 -12 -10 -15 4 -15 9 0 16 -5 16 -10 0 -7 -6 -7 -19 -1 -10 6
-21 7 -25 3 -4 -3 -4 1 0 11 3 10 1 17 -6 17 -15 0 -8 -35 8 -36 6 -1 17 -2
23 -3 5 0 8 -5 5 -9 -3 -5 1 -9 9 -9 8 0 12 4 9 8 -2 4 2 14 10 22 8 8 12 18
8 22 -4 4 5 0 21 -10 15 -9 27 -14 27 -10 0 3 8 -1 17 -11 16 -16 16 -18 -5
-35 -12 -9 -18 -20 -13 -23 5 -3 11 1 15 9 8 21 27 19 20 -2 -5 -17 -5 -17 6
0 6 9 9 21 6 25 -2 4 5 8 17 9 12 0 16 -1 10 -4 -7 -3 -13 -8 -13 -12 0 -11
44 -8 53 3 5 7 7 4 3 -7 -4 -13 -1 -17 12 -15 9 2 21 8 25 13 5 6 7 3 3 -8 -3
-9 -1 -17 5 -17 6 0 8 -4 5 -8 -2 -4 0 -14 5 -22 6 -11 8 -4 4 20 -5 34 -5 35
9 10 8 -13 13 -32 11 -41 -3 -17 17 -20 32 -5 4 4 3 6 -2 4 -6 -2 -10 2 -10 7
0 10 4 10 40 2 16 -4 21 0 22 15 2 20 1 20 -12 2 -10 -14 -14 -15 -15 -5 0 8
-3 11 -7 8 -3 -4 -12 -2 -20 4 -10 9 -13 8 -13 -2 0 -11 -2 -11 -9 1 -15 22
-1 33 18 16 10 -9 21 -13 25 -9 4 4 35 9 69 10 85 4 91 5 97 14 3 4 14 9 25
11 32 5 73 48 91 95 13 34 16 62 11 126 -8 121 -51 227 -154 386 -42 64 -51
86 -41 92 22 14 31 10 17 -8 -7 -10 -9 -15 -5 -11 5 4 15 3 23 -4 7 -6 17 -8
20 -4 11 11 12 36 1 36 -6 0 -7 -7 -4 -16 4 -9 1 -14 -6 -12 -6 2 -12 12 -14
22 -1 10 0 15 3 12 3 -3 15 -1 26 5 11 7 17 7 13 1 -3 -5 1 -15 8 -21 10 -8
16 -9 21 -1 3 6 12 7 18 3 20 -12 80 -10 114 3 25 11 33 11 36 1 3 -7 6 -4 6
6 1 10 6 15 11 12 6 -3 10 -1 10 5 0 7 7 10 15 6 8 -3 14 -1 12 3 -1 5 12 22
29 38 17 15 45 47 61 70 17 23 34 39 38 35 5 -4 5 -2 2 4 -3 6 1 24 10 40 9
16 26 62 39 103 19 60 23 91 20 165 -7 197 -105 297 -260 264z m-288 -593 c-3
-3 -9 2 -12 12 -6 14 -5 15 5 6 7 -7 10 -15 7 -18z m28 -150 c-24 -18 -36 -19
-36 -2 0 7 12 14 28 15 26 1 26 1 8 -13z m-1286 -614 c0 -5 -7 -12 -16 -15
-14 -5 -15 -4 -4 9 14 17 20 19 20 6z m67 -96 c0 -8 -6 -16 -14 -19 -11 -4
-11 -1 -3 14 13 24 17 25 17 5z"/>
<path d="M683 1613 c-7 -3 -13 -9 -13 -14 0 -6 5 -7 10 -4 6 3 10 -1 10 -9 0
-17 15 -22 24 -7 8 12 -17 39 -31 34z"/>
<path d="M719 1563 c-13 -16 -12 -17 4 -4 18 14 24 2 7 -15 -7 -7 -6 -11 4
-11 8 0 13 4 10 8 -2 4 1 9 7 11 7 2 6 8 -4 16 -11 10 -17 9 -28 -5z"/>
<path d="M1835 1570 c3 -5 8 -10 11 -10 2 0 4 5 4 10 0 6 -5 10 -11 10 -5 0
-7 -4 -4 -10z"/>
<path d="M786 1532 c-2 -4 0 -14 5 -22 8 -12 12 -12 16 -2 2 6 9 10 13 7 5 -3
12 0 16 6 4 7 3 9 -4 5 -6 -3 -13 -2 -17 4 -7 12 -22 13 -29 2z"/>
<path d="M1370 1520 c0 -5 5 -10 11 -10 5 0 7 5 4 10 -3 6 -8 10 -11 10 -2 0
-4 -4 -4 -10z"/>
<path d="M1549 1525 c-1 -3 -2 -8 -3 -12 -1 -5 -5 -15 -10 -23 -6 -9 -1 -8 12
4 12 10 19 23 16 27 -6 10 -13 12 -15 4z"/>
<path d="M1820 1520 c0 -5 -6 -8 -12 -6 -7 1 -9 1 -5 -2 4 -2 3 -10 -4 -18 -6
-8 -15 -11 -20 -8 -5 3 -6 -2 -3 -11 5 -11 2 -14 -12 -9 -16 5 -16 4 -4 -5 21
-15 30 -14 30 5 0 9 5 12 13 8 6 -4 9 -3 4 1 -4 5 3 19 15 32 12 13 16 23 10
23 -7 0 -12 -4 -12 -10z"/>
<path d="M950 1510 c0 -5 5 -10 11 -10 5 0 7 5 4 10 -3 6 -8 10 -11 10 -2 0
-4 -4 -4 -10z"/>
<path d="M1735 1440 c3 -6 14 -10 23 -10 13 0 14 -2 3 -9 -11 -7 -11 -9 0 -14
10 -4 10 -6 2 -6 -7 -1 -13 -8 -13 -17 0 -10 -6 -14 -14 -11 -10 4 -13 1 -9
-9 4 -10 0 -13 -13 -8 -16 5 -16 4 -4 -5 12 -9 21 -5 41 20 31 36 31 59 0 71
-14 5 -20 4 -16 -2z"/>
<path d="M99 1433 c0 -5 -2 -16 -4 -26 -2 -11 -1 -16 3 -13 8 8 14 46 7 46 -3
0 -5 -3 -6 -7z"/>
<path d="M94 1310 c0 -13 4 -16 10 -10 7 7 7 13 0 20 -6 6 -10 3 -10 -10z"/>
<path d="M1674 1212 c4 -7 2 -21 -5 -30 -12 -15 -11 -15 6 0 16 15 17 20 6 30
-11 11 -13 10 -7 0z"/>
<path d="M913 1125 c0 -8 4 -12 9 -9 5 3 6 10 3 15 -9 13 -12 11 -12 -6z"/>
<path d="M880 1100 c-9 -6 -10 -10 -3 -10 6 0 15 5 18 10 8 12 4 12 -15 0z"/>
<path d="M1677 1079 c7 -7 15 -10 18 -7 3 3 -2 9 -12 12 -14 6 -15 5 -6 -5z"/>
<path d="M1710 1059 c0 -5 5 -7 10 -4 6 3 10 1 10 -5 0 -6 5 -8 11 -4 8 4 7 9
-2 15 -19 12 -29 11 -29 -2z"/>
<path d="M233 987 c0 -8 6 -14 14 -14 9 0 10 4 2 14 -6 7 -12 13 -14 13 -1 0
-2 -6 -2 -13z"/>
<path d="M735 980 c-3 -5 -1 -10 4 -10 6 0 11 5 11 10 0 6 -2 10 -4 10 -3 0
-8 -4 -11 -10z"/>
<path d="M713 943 c0 -9 4 -10 14 -2 7 6 13 12 13 14 0 1 -6 2 -13 2 -8 0 -14
-6 -14 -14z"/>
<path d="M429 923 c-1 -5 -1 -12 0 -17 1 -4 -4 -14 -10 -22 -7 -9 -8 -14 -1
-14 6 0 13 9 17 19 4 13 12 18 21 14 13 -5 13 -7 2 -14 -8 -5 -9 -9 -2 -9 6 0
18 8 25 18 7 9 9 14 4 9 -4 -4 -19 0 -32 8 -13 9 -24 12 -24 8z"/>
<path d="M678 908 c2 -10 6 -18 7 -18 1 0 5 8 7 18 3 11 0 19 -7 19 -7 0 -10
-8 -7 -19z"/>
<path d="M1853 892 c-1 -22 0 -24 9 -8 6 10 6 22 2 26 -5 5 -10 -3 -11 -18z"/>
<path d="M1887 913 c-13 -12 -7 -25 8 -19 8 3 19 -2 24 -12 9 -15 10 -14 8 5
0 12 -3 20 -6 18 -2 -3 -9 0 -16 5 -7 5 -15 7 -18 3z"/>
<path d="M2010 910 c-9 -6 -10 -10 -3 -10 6 0 15 5 18 10 8 12 4 12 -15 0z"/>
<path d="M496 894 c-8 -20 -8 -24 2 -24 4 0 8 9 9 20 2 24 -3 26 -11 4z"/>
<path d="M526 897 c3 -10 9 -15 12 -12 3 3 0 11 -7 18 -10 9 -11 8 -5 -6z"/>
<path d="M1940 898 c0 -4 4 -8 9 -8 6 0 12 4 15 8 3 5 -1 9 -9 9 -8 0 -15 -4
-15 -9z"/>
<path d="M1970 879 c0 -5 5 -7 10 -4 6 3 10 8 10 11 0 2 -4 4 -10 4 -5 0 -10
-5 -10 -11z"/>
<path d="M439 853 c-13 -16 -12 -17 4 -4 9 7 17 15 17 17 0 8 -8 3 -21 -13z"/>
<path d="M595 760 c-4 -6 -11 -7 -17 -4 -7 4 -8 2 -4 -5 6 -9 11 -9 22 0 14
11 18 19 10 19 -3 0 -8 -5 -11 -10z"/>
<path d="M515 711 c-3 -5 -2 -12 3 -15 5 -3 9 1 9 9 0 17 -3 19 -12 6z"/>
<path d="M550 689 c0 -5 5 -7 10 -4 6 3 10 8 10 11 0 2 -4 4 -10 4 -5 0 -10
-5 -10 -11z"/>
<path d="M480 570 c-11 -7 -11 -10 -2 -10 7 0 10 -5 7 -10 -4 -6 -10 -8 -14
-6 -4 3 -6 -5 -5 -17 1 -12 3 -25 3 -29 1 -5 6 -8 12 -8 8 0 8 4 1 13 -8 10
-6 16 9 25 15 10 18 16 10 26 -6 7 -8 16 -4 19 9 10 0 8 -17 -3z"/>
<path d="M1225 311 c-3 -6 -11 -8 -18 -5 -7 2 -22 -5 -32 -16 -16 -18 -17 -20
-2 -14 9 3 17 10 17 15 0 5 5 9 11 9 5 0 8 -4 5 -9 -3 -4 3 -16 14 -26 11 -10
20 -14 21 -9 0 5 2 19 5 31 4 23 -10 40 -21 24z m12 -26 c0 -8 -4 -15 -8 -15
-11 0 -20 16 -12 24 11 11 20 7 20 -9z"/>
<path d="M1145 289 c-4 -6 -5 -12 -2 -15 2 -3 7 2 10 11 7 17 1 20 -8 4z"/>
<path d="M457 282 c-3 -4 -1 -16 4 -27 6 -16 8 -16 8 -3 1 9 6 18 13 20 8 3 6
7 -5 11 -9 3 -18 3 -20 -1z"/>
<path d="M1040 259 c0 -5 5 -7 10 -4 6 3 10 8 10 11 0 2 -4 4 -10 4 -5 0 -10
-5 -10 -11z"/>
<path d="M1176 262 c-3 -5 1 -9 9 -9 8 0 12 4 9 9 -3 4 -7 8 -9 8 -2 0 -6 -4
-9 -8z"/>
<path d="M1397 263 c-11 -10 -8 -25 3 -18 6 3 10 1 10 -4 0 -6 -4 -11 -10 -11
-5 0 -10 -4 -10 -8 0 -5 7 -9 15 -9 8 0 11 5 8 10 -4 6 0 8 9 5 8 -4 21 -3 28
2 9 6 7 11 -9 19 -11 7 -21 8 -21 4 0 -4 -4 -2 -8 5 -5 7 -11 9 -15 5z"/>
<path d="M940 225 c-7 -9 -8 -15 -2 -15 5 0 12 7 16 15 3 8 4 15 2 15 -2 0 -9
-7 -16 -15z"/>
<path d="M591 192 c8 -12 15 -18 17 -12 2 6 8 8 13 4 5 -3 4 -14 -2 -27 -11
-22 -11 -22 10 1 24 24 21 42 -7 37 -9 -1 -23 3 -31 9 -12 9 -12 8 0 -12z"/>
<path d="M855 200 c-3 -5 -1 -10 4 -10 6 0 11 5 11 10 0 6 -2 10 -4 10 -3 0
-8 -4 -11 -10z"/>
<path d="M1490 198 c0 -11 12 -10 30 2 12 7 10 9 -8 7 -12 0 -22 -5 -22 -9z"/>
<path d="M1535 192 c-3 -3 -5 -10 -5 -16 0 -6 5 -4 10 4 5 8 10 10 10 5 0 -6
9 -11 21 -12 11 -1 19 3 17 9 -4 12 -44 19 -53 10z"/>
<path d="M665 182 c3 -3 0 -11 -6 -19 -9 -9 -8 -13 0 -13 6 0 11 5 11 10 0 6
7 10 16 8 10 -2 19 4 21 12 4 13 3 13 -6 0 -6 -8 -11 -10 -11 -4 0 6 -7 11
-15 11 -8 0 -13 -3 -10 -5z"/>
<path d="M722 170 c-18 -29 -15 -38 4 -12 9 13 14 25 12 27 -2 2 -9 -5 -16
-15z"/>
<path d="M747 171 c-4 -17 -3 -21 5 -13 5 5 8 16 6 23 -3 8 -7 3 -11 -10z"/>
<path d="M790 180 c0 -5 5 -10 11 -10 5 0 7 5 4 10 -3 6 -8 10 -11 10 -2 0 -4
-4 -4 -10z"/>
<path d="M1750 183 c0 -5 5 -15 10 -23 7 -12 9 -10 7 8 -1 19 -17 33 -17 15z"/>
<path d="M1785 180 c-2 -3 7 -6 21 -6 13 0 24 3 24 7 0 9 -40 8 -45 -1z"/>
<path d="M1730 160 c0 -5 5 -10 11 -10 5 0 7 5 4 10 -3 6 -8 10 -11 10 -2 0
-4 -4 -4 -10z"/>
</g>
</svg>
