<?xml version="1.0" standalone="no"?>
<!DOCTYPE svg PUBLIC "-//W3C//DTD SVG 20010904//EN"
 "http://www.w3.org/TR/2001/REC-SVG-20010904/DTD/svg10.dtd">
<svg version="1.0" xmlns="http://www.w3.org/2000/svg"
 width="260.000000pt" height="260.000000pt" viewBox="0 0 260.000000 260.000000"
 preserveAspectRatio="xMidYMid meet">
<metadata>
Created by potrace 1.11, written by Peter Selinger 2001-2013
</metadata>
<g transform="translate(0.000000,260.000000) scale(0.100000,-0.100000)"
fill="#000000" stroke="none">
<path d="M762 2480 c-74 -33 -150 -132 -167 -216 -5 -22 -10 -46 -13 -54 -10
-35 -2 -183 13 -237 9 -32 18 -69 21 -83 3 -13 10 -30 16 -37 6 -7 7 -13 2
-13 -5 0 -4 -4 1 -8 6 -4 16 -17 23 -29 6 -13 18 -33 25 -45 6 -13 20 -29 30
-37 12 -8 17 -21 13 -34 -3 -13 -2 -17 5 -10 7 7 22 -1 46 -25 32 -31 35 -37
23 -56 -9 -16 -9 -18 0 -9 7 6 20 9 29 6 14 -4 14 -3 1 6 -13 9 -13 11 3 11 9
0 17 -7 17 -15 0 -8 -5 -15 -12 -15 -6 0 -1 -9 12 -20 15 -13 31 -18 43 -14
14 4 17 3 12 -6 -6 -9 -4 -11 5 -5 9 6 12 4 8 -6 -4 -11 3 -15 27 -15 19 0 32
3 29 7 -2 4 3 10 12 13 8 3 13 9 10 14 -2 4 5 8 17 9 12 0 16 -1 9 -4 -10 -4
-10 -8 -2 -19 10 -10 8 -12 -9 -9 -12 2 -21 0 -21 -6 0 -5 10 -7 23 -5 12 2
21 9 20 15 -2 6 2 11 8 11 5 0 7 5 3 12 -4 7 -3 8 5 4 6 -4 9 -16 6 -27 -4
-12 -2 -19 6 -19 7 0 9 3 6 6 -4 4 8 14 26 23 17 9 34 14 37 11 3 -4 13 2 23
12 9 10 12 18 6 18 -5 0 -7 5 -3 12 5 7 2 8 -7 3 -8 -5 -11 -5 -7 0 4 4 3 14
-2 20 -7 9 -5 17 7 26 14 12 16 12 9 0 -6 -9 -5 -12 4 -9 7 2 14 18 16 36 3
26 1 30 -14 26 -14 -5 -14 -4 -2 4 18 14 30 6 30 -20 0 -12 3 -18 7 -15 3 4
13 1 21 -6 11 -8 14 -8 9 0 -4 6 -2 13 5 15 7 3 5 7 -6 11 -11 5 -15 3 -10 -5
4 -7 3 -8 -5 -4 -6 4 -9 12 -5 17 3 5 10 7 15 4 5 -4 8 4 6 16 -1 12 4 24 11
26 6 3 12 0 12 -7 0 -6 -4 -8 -10 -5 -6 4 -7 -1 -3 -11 5 -14 7 -14 18 5 6 12
14 19 18 16 4 -3 4 -2 1 2 -8 11 -75 13 -68 2 3 -5 0 -9 -5 -9 -16 0 -13 20 4
26 8 4 12 11 8 18 -4 6 1 5 10 -3 10 -8 17 -9 17 -3 0 6 -8 16 -17 21 -16 9
-16 12 -3 21 8 5 20 10 25 10 6 0 4 -4 -4 -9 -7 -5 -10 -14 -7 -20 10 -16 26
-14 20 3 -3 8 0 17 5 21 6 3 9 11 6 16 -4 5 2 9 11 9 10 0 15 3 11 6 -3 4 -14
3 -24 -1 -10 -5 -27 -9 -38 -11 -11 -1 -14 0 -7 2 6 3 9 11 5 17 -4 7 1 6 10
-2 15 -12 17 -11 17 13 0 14 -5 26 -12 26 -6 0 -9 3 -6 6 4 3 17 0 30 -6 19
-10 21 -10 11 1 -7 7 -13 17 -13 22 0 4 6 5 13 1 6 -4 4 2 -6 13 -17 19 -16
21 4 49 12 17 5 12 -17 -11 -20 -22 -32 -33 -26 -24 9 12 8 19 -1 28 -9 10 -8
11 6 6 13 -6 17 -2 17 15 0 14 4 19 13 14 8 -5 8 -2 -2 9 -9 11 -10 17 -2 17
6 0 11 5 11 10 0 6 -6 9 -12 8 -8 -2 -13 6 -12 19 1 13 -2 20 -6 18 -9 -6 -8
-25 3 -42 5 -8 4 -13 -2 -13 -6 0 -11 3 -12 8 0 4 -2 15 -4 25 -2 9 3 24 12
32 18 18 3 20 -16 3 -11 -11 -13 -10 -7 5 3 10 6 23 6 28 0 6 5 7 12 3 7 -4 8
-3 4 5 -6 9 -11 9 -22 0 -9 -7 -14 -8 -13 -3 1 5 0 11 -1 14 -6 15 -11 47 -11
64 0 10 -3 15 -7 12 -3 -4 -11 3 -18 16 -10 18 -9 24 5 35 14 10 13 11 -8 6
-20 -5 -23 -3 -18 11 4 10 3 15 -3 11 -9 -6 -14 8 -11 28 1 5 -3 6 -8 2 -10
-6 -37 33 -33 47 1 5 -1 7 -6 5 -4 -1 -20 10 -36 25 -84 78 -200 105 -284 68z
m482 -475 c-4 -8 -8 -15 -10 -15 -2 0 -4 7 -4 15 0 8 4 15 10 15 5 0 7 -7 4
-15z m11 -85 c-3 -5 -14 -10 -23 -10 -15 0 -15 2 -2 10 20 13 33 13 25 0z
m-151 -315 c-3 -8 -16 -14 -29 -13 -13 1 -21 6 -19 10 3 4 11 5 18 2 8 -3 17
-1 21 5 9 16 15 13 9 -4z m-231 -23 c-6 -15 -5 -16 12 -2 11 9 16 10 11 3 -4
-7 -2 -14 3 -14 26 -3 30 -4 37 -11 4 -5 16 -8 28 -8 16 0 17 -2 8 -12 -18
-18 -35 -16 -51 5 -7 10 -20 16 -28 13 -18 -7 -48 20 -33 29 6 4 7 11 4 17 -4
7 -2 8 4 4 6 -4 8 -14 5 -24z m253 13 c-3 -10 1 -15 11 -15 15 0 10 -15 -5
-15 -4 -1 -18 -7 -30 -14 -36 -19 -39 -5 -6 28 34 34 38 36 30 16z m-160 -23
c-10 -2 -22 0 -28 6 -6 6 0 7 19 4 21 -5 23 -7 9 -10z"/>
<path d="M1693 2491 c-220 -56 -374 -421 -291 -691 13 -41 69 -140 80 -140 5
0 8 -10 8 -22 0 -19 2 -20 10 -8 8 12 10 12 10 1 0 -8 3 -12 6 -8 4 3 21 -5
39 -18 17 -14 34 -23 36 -20 3 2 6 -5 6 -17 2 -19 1 -19 -11 -3 -10 14 -15 15
-21 5 -5 -8 -4 -11 3 -6 6 3 14 -3 17 -15 4 -11 13 -18 20 -15 20 7 26 -5 12
-23 -10 -14 -10 -14 5 -3 9 8 21 11 26 8 5 -3 9 1 9 8 0 8 -5 13 -11 12 -6 -2
-8 -1 -5 1 4 2 6 12 4 21 -1 9 0 11 2 3 4 -12 6 -12 15 0 8 11 9 11 4 -3 -8
-25 27 -28 41 -3 7 11 12 14 13 8 0 -7 5 -13 11 -13 5 0 7 5 4 10 -3 6 -2 10
4 10 5 0 8 -14 6 -31 -3 -24 -1 -28 9 -20 7 6 15 9 18 6 2 -3 5 2 5 10 0 12
-3 12 -16 2 -14 -10 -14 -10 -3 5 8 9 11 22 8 27 -4 5 -1 13 5 17 8 4 9 3 5
-4 -4 -7 -4 -12 1 -13 4 0 18 -2 31 -3 19 -2 22 1 19 23 -2 14 -2 20 1 12 3
-10 11 -5 29 15 13 16 21 23 17 15 -5 -10 -1 -11 17 -6 21 7 22 6 10 -9 -10
-12 -17 -14 -27 -5 -10 8 -14 8 -14 0 0 -6 5 -11 11 -11 5 0 7 -5 3 -11 -5 -8
-9 -8 -14 1 -5 8 -10 8 -14 2 -3 -5 1 -12 9 -16 8 -3 17 -1 20 5 4 5 12 6 18
3 7 -4 9 -3 4 1 -4 5 3 19 15 32 12 13 17 23 13 23 -5 0 0 7 12 15 14 10 19
22 16 35 -3 11 -9 18 -12 15 -4 -2 -8 2 -8 10 0 8 2 15 4 15 8 0 32 -28 28
-32 -3 -3 2 -5 10 -5 20 0 19 7 -2 24 -17 14 -17 14 0 9 9 -3 17 -1 17 4 0 6
-5 10 -11 10 -5 0 -7 5 -4 10 3 6 -2 10 -12 11 -15 0 -14 2 4 9 14 6 21 15 17
23 -3 8 1 17 9 20 7 3 14 -1 14 -9 0 -7 -3 -11 -7 -9 -4 2 -7 -2 -7 -10 0 -8
4 -15 8 -15 4 0 9 -8 12 -17 2 -10 4 0 4 22 0 22 1 47 4 55 2 9 -2 15 -13 14
-9 -1 -19 5 -22 13 -3 8 -1 11 5 8 5 -4 16 -2 24 5 10 8 15 8 21 -1 4 -8 3 -9
-4 -5 -7 4 -12 3 -12 -1 0 -5 9 -14 20 -21 12 -7 20 -8 20 -2 0 5 -4 10 -9 10
-5 0 -8 12 -6 26 2 18 -1 24 -12 20 -8 -3 -11 -1 -8 4 3 6 0 10 -7 10 -9 0 -9
3 2 10 8 5 20 10 25 10 6 0 4 -4 -3 -9 -11 -6 -9 -10 7 -14 18 -4 19 -2 10 14
-5 10 -14 19 -19 19 -5 0 -8 9 -7 19 0 11 5 17 9 15 5 -3 6 -10 3 -15 -4 -5
-2 -9 4 -9 11 0 6 84 -6 103 -14 22 -13 39 2 27 10 -8 12 -2 10 27 -1 21 2 41
7 44 6 3 3 9 -5 12 -11 4 -14 -2 -12 -22 1 -18 -3 -28 -11 -28 -9 0 -10 4 -5
11 16 19 16 23 5 37 -6 8 -10 25 -9 39 1 14 -3 29 -9 33 -7 6 -6 7 4 4 10 -2
14 -15 13 -36 0 -18 2 -29 5 -26 8 8 10 74 2 73 -18 -2 -32 3 -27 9 4 3 0 17
-9 31 -13 20 -14 26 -3 33 11 7 10 9 -3 9 -10 0 -20 10 -24 25 -3 14 -10 22
-15 19 -5 -3 -9 0 -9 5 0 18 -43 62 -86 87 -46 27 -121 38 -171 25z m345 -466
c-3 -3 -9 2 -12 12 -6 14 -5 15 5 6 7 -7 10 -15 7 -18z m7 -25 c3 -5 1 -10 -4
-10 -6 0 -11 5 -11 10 0 6 2 10 4 10 3 0 8 -4 11 -10z m-35 -110 c0 -5 -2 -10
-4 -10 -3 0 -8 5 -11 10 -3 6 -1 10 4 10 6 0 11 -4 11 -10z m-67 -207 c4 -3
-2 -13 -13 -20 -11 -8 -17 -19 -14 -25 4 -6 2 -8 -4 -5 -11 8 -11 25 1 45 9
13 20 16 30 5z m-53 -24 c0 -5 -4 -9 -8 -9 -5 0 -9 7 -9 15 0 8 4 12 9 9 4 -3
8 -9 8 -15z m-35 -18 c-9 -8 -36 -10 -30 -2 2 4 11 8 20 8 8 0 13 -3 10 -6z
m-229 -74 c0 -13 -6 -24 -13 -24 -7 0 -11 3 -9 6 2 3 6 14 9 24 9 24 15 21 13
-6z"/>
<path d="M2027 2279 c7 -7 15 -10 18 -7 3 3 -2 9 -12 12 -14 6 -15 5 -6 -5z"/>
<path d="M1215 2180 c3 -5 8 -10 11 -10 2 0 4 5 4 10 0 6 -5 10 -11 10 -5 0
-7 -4 -4 -10z"/>
<path d="M2075 2139 c-4 -6 -5 -12 -2 -15 2 -3 7 2 10 11 7 17 1 20 -8 4z"/>
<path d="M2070 2099 c0 -5 5 -7 10 -4 6 3 10 8 10 11 0 2 -4 4 -10 4 -5 0 -10
-5 -10 -11z"/>
<path d="M2080 2075 c-7 -9 -19 -14 -25 -11 -16 6 11 -50 28 -60 8 -5 8 -3 0
7 -18 18 -16 39 4 61 9 10 14 18 11 18 -3 0 -11 -7 -18 -15z"/>
<path d="M2070 1980 c0 -5 5 -10 11 -10 5 0 7 5 4 10 -3 6 -8 10 -11 10 -2 0
-4 -4 -4 -10z"/>
<path d="M2031 1804 c0 -11 3 -14 6 -6 3 7 2 16 -1 19 -3 4 -6 -2 -5 -13z"/>
<path d="M254 1738 c-47 -12 -110 -81 -135 -146 -27 -70 -33 -188 -14 -260 7
-29 11 -52 9 -52 -3 0 2 -13 10 -29 9 -16 12 -31 9 -35 -4 -3 -2 -6 4 -6 5 0
16 -18 23 -40 7 -22 18 -40 23 -40 6 0 7 -3 4 -7 -4 -3 0 -11 9 -17 8 -6 16
-21 16 -33 2 -14 7 -19 17 -15 8 3 12 1 8 -5 -4 -6 0 -14 9 -17 8 -3 12 -11 8
-17 -4 -8 -3 -9 5 -5 6 4 14 0 17 -8 3 -9 11 -16 18 -16 6 0 19 -7 29 -14 16
-13 16 -15 2 -30 -9 -9 -12 -16 -6 -16 5 0 12 4 15 9 15 24 67 -10 61 -39 -2
-11 1 -19 8 -17 7 1 11 -6 9 -15 -4 -24 5 -23 19 3 9 17 8 20 -3 13 -11 -6
-11 -5 0 8 14 18 27 18 58 0 16 -8 24 -8 34 1 10 9 11 9 6 0 -4 -7 2 -17 14
-23 11 -6 18 -15 15 -20 -3 -6 1 -7 9 -4 9 3 16 10 16 16 0 5 -5 6 -12 2 -6
-4 1 9 16 29 16 20 31 37 33 37 3 0 0 -7 -7 -15 -18 -22 -21 -75 -4 -68 8 3
14 9 14 15 0 5 -4 7 -9 4 -5 -4 -7 3 -4 14 3 11 10 23 15 26 6 4 7 -2 3 -16
-6 -19 -5 -20 13 -11 12 6 22 7 28 1 6 -6 10 -3 10 8 0 10 -6 19 -13 19 -7 0
-13 -5 -13 -10 0 -6 -3 -8 -6 -5 -3 4 -1 15 5 26 9 17 8 22 -7 26 -10 3 -6 4
8 3 17 -1 24 2 22 13 -3 11 2 10 17 -4 12 -11 21 -15 21 -9 0 5 10 15 23 21
12 6 16 11 8 11 -11 1 -10 6 3 26 13 20 14 25 3 25 -8 0 -14 -7 -15 -15 -1 -8
-3 -22 -4 -30 -2 -22 -25 -26 -40 -7 -12 16 -11 16 6 2 18 -14 19 -13 13 3 -4
11 -3 16 3 12 6 -3 10 -3 11 2 0 4 2 18 5 31 2 13 0 21 -5 18 -5 -3 -12 1 -15
9 -4 12 -2 13 13 6 10 -6 22 -7 26 -3 5 4 5 0 0 -8 -5 -8 -5 -12 0 -8 4 4 14
3 22 -3 8 -7 13 -8 13 -1 0 5 -6 12 -14 15 -9 4 -12 14 -9 26 3 12 10 18 17
14 6 -4 5 0 -2 9 -9 12 -10 18 -2 23 8 5 8 11 1 19 -7 9 -7 16 2 25 9 9 9 14
-1 20 -8 5 -13 11 -13 15 1 3 1 7 0 9 -7 23 -5 37 4 34 7 -2 12 -9 12 -15 0
-5 3 -13 7 -17 3 -4 6 -1 4 7 -3 26 -18 39 -36 33 -21 -7 -36 10 -19 21 8 4 9
3 5 -4 -4 -7 -2 -12 3 -12 17 0 13 21 -6 37 -17 13 -16 14 4 8 12 -3 24 -1 28
4 3 6 0 8 -8 5 -8 -3 -20 3 -28 12 -9 11 -9 15 -2 10 9 -5 11 -2 7 8 -3 9 -10
13 -15 10 -5 -3 -9 0 -9 5 0 6 6 11 13 11 6 0 4 5 -5 11 -10 5 -18 19 -18 29
0 11 -5 20 -11 20 -5 0 -8 4 -5 9 7 10 -16 61 -27 61 -5 0 -6 4 -2 9 3 5 -2
16 -10 24 -8 9 -15 21 -15 27 0 6 -4 8 -10 5 -5 -3 -10 0 -10 8 0 15 -43 61
-105 112 -65 54 -166 76 -251 53z m494 -529 c-2 -3 3 -13 10 -22 9 -11 10 -17
2 -22 -8 -5 -8 -10 0 -20 8 -9 8 -15 0 -20 -6 -3 -8 -10 -5 -15 3 -5 1 -11 -5
-15 -6 -4 -8 -11 -5 -16 10 -15 -5 -10 -23 8 -16 15 -16 16 0 11 24 -9 31 3
10 19 -16 12 -16 13 2 6 15 -5 17 -3 10 8 -12 19 -13 58 -1 66 5 3 3 10 -4 15
-11 8 -11 9 -1 6 8 -2 12 -6 10 -9z m-326 -297 c-7 -2 -9 -9 -6 -14 4 -7 2 -8
-4 -4 -6 4 -9 13 -6 21 4 8 11 12 17 8 8 -5 7 -8 -1 -11z m147 -19 c-6 -7 -17
-13 -23 -12 -7 0 -6 2 2 6 6 2 10 8 8 12 -3 4 1 8 9 8 11 0 12 -4 4 -14z"/>
<path d="M743 1175 c0 -8 4 -12 9 -9 5 3 6 10 3 15 -9 13 -12 11 -12 -6z"/>
<path d="M2161 1724 c-66 -29 -170 -133 -208 -206 -51 -99 -74 -186 -75 -283
-1 -93 3 -119 22 -154 6 -12 8 -21 4 -21 -3 0 -1 -7 6 -15 6 -8 8 -20 4 -27
-4 -7 -4 -10 1 -6 9 8 35 -15 35 -31 0 -6 5 -11 10 -11 6 0 10 -7 10 -15 0 -9
6 -12 17 -8 12 5 14 3 8 -7 -6 -10 -4 -12 9 -7 10 4 19 1 22 -8 4 -8 10 -12
15 -9 5 3 9 1 9 -5 0 -21 -19 -20 -25 0 -7 20 -8 21 -17 5 -5 -10 -7 -20 -4
-23 3 -4 6 0 6 8 0 12 2 12 10 -1 6 -9 5 -20 -3 -30 -10 -13 -10 -13 4 -3 9 7
20 9 24 5 5 -4 5 -1 1 6 -4 7 -1 12 8 12 9 0 19 0 23 1 4 0 9 -5 11 -13 3 -11
2 -11 -6 0 -7 11 -11 10 -16 -4 -3 -9 -4 -19 -1 -22 3 -3 5 0 5 5 0 6 8 10 18
8 9 -1 16 -8 15 -13 -2 -6 4 -9 12 -6 8 4 15 1 15 -5 0 -6 5 -11 11 -11 8 0 8
4 0 13 -8 11 -5 14 19 14 25 0 28 -3 17 -16 -6 -8 1 -5 17 7 24 18 32 20 45
10 8 -7 5 2 -8 20 -12 17 -18 32 -12 32 6 0 11 -5 11 -10 0 -6 11 -3 25 6 21
14 23 19 13 32 -10 12 -6 11 15 -2 15 -10 27 -21 27 -24 0 -3 -3 -3 -6 1 -4 3
-20 -1 -37 -10 -28 -14 -29 -17 -14 -28 9 -6 13 -16 9 -20 -4 -5 -1 -5 6 -1
10 6 10 11 1 22 -7 9 -8 14 -1 14 6 0 19 3 29 7 16 6 16 5 4 -10 -7 -9 -9 -17
-3 -17 5 0 12 7 16 15 3 9 12 12 21 8 10 -3 7 5 -9 22 -14 15 -26 32 -26 37 0
5 -6 6 -12 2 -9 -5 -9 -2 1 9 7 9 16 17 19 17 3 0 2 -3 -1 -6 -10 -10 13 -45
24 -39 5 4 8 2 7 -3 -3 -9 2 -12 17 -12 3 0 1 9 -5 20 -6 11 -16 17 -22 14 -7
-4 -8 -2 -4 5 8 12 30 1 48 -24 4 -5 9 -7 12 -4 3 3 -3 15 -14 26 -16 18 -17
22 -4 27 9 3 12 11 8 17 -4 8 -3 9 4 5 7 -4 12 -2 12 3 0 6 5 11 11 11 5 0 7
-5 3 -12 -4 -7 -3 -8 4 -4 7 4 12 2 12 -5 0 -7 9 -2 20 11 11 13 20 28 20 33
0 6 -8 1 -18 -10 -13 -16 -20 -18 -28 -9 -14 15 5 45 27 43 24 -3 22 18 -3 24
l-23 5 23 6 c12 3 22 2 22 -3 0 -5 4 -9 10 -9 5 0 7 8 4 18 -5 14 -3 14 11 -3
17 -20 17 -20 11 2 -4 12 -2 24 4 28 6 3 8 10 5 15 -3 5 2 13 11 18 15 8 15
10 0 15 -10 4 -15 3 -11 -3 4 -6 -1 -7 -11 -3 -15 6 -15 7 0 15 14 8 15 12 4
26 -7 9 -8 13 -2 9 7 -4 14 3 17 18 2 15 -1 29 -8 33 -9 5 -6 12 13 26 14 11
22 14 18 8 -4 -7 -3 -12 1 -12 5 0 14 10 22 23 13 20 13 21 -2 9 -11 -9 -17
-10 -22 -2 -5 8 -11 6 -19 -5 -10 -15 -12 -14 -12 4 0 11 4 19 9 18 5 -1 12 4
15 12 2 8 0 11 -5 8 -5 -3 -9 3 -9 13 0 10 4 16 8 14 4 -3 8 0 8 5 0 6 -6 11
-12 11 -9 0 -8 4 2 10 13 9 13 10 0 10 -13 0 -13 1 0 10 8 5 10 10 5 10 -6 0
-11 14 -11 31 -1 16 0 28 2 26 5 -5 15 -46 16 -66 1 -10 4 -10 13 3 7 8 15 14
18 11 4 -3 4 -2 1 3 -3 4 -10 7 -16 7 -6 0 -12 8 -14 18 -1 10 -10 27 -20 38
-14 15 -15 21 -4 34 7 9 10 18 6 22 -3 3 -6 1 -6 -7 0 -10 -3 -10 -15 0 -12
10 -13 16 -3 28 10 12 10 14 1 9 -8 -5 -19 6 -32 30 -37 71 -91 105 -179 108
-54 3 -78 -1 -121 -21z m332 -469 c-3 -9 -8 -14 -10 -11 -3 3 -2 9 2 15 9 16
15 13 8 -4z m2 -104 c-1 -8 -8 -17 -15 -19 -9 -3 -11 1 -6 13 5 13 2 16 -9 11
-9 -3 -13 -2 -10 3 9 15 43 8 40 -8z m-157 -166 c-3 -3 -9 2 -12 12 -6 14 -5
15 5 6 7 -7 10 -15 7 -18z m-91 -50 c0 -8 -4 -12 -9 -9 -5 3 -6 10 -3 15 9 13
12 11 12 -6z m-142 -25 c-7 -11 35 -31 49 -22 5 3 6 0 2 -6 -3 -5 0 -13 6 -15
9 -4 10 -6 1 -6 -6 -1 -15 4 -18 9 -3 6 -14 10 -23 10 -15 0 -15 -2 -2 -11 13
-9 13 -10 0 -6 -8 2 -15 8 -15 13 0 5 -3 14 -7 20 -4 6 -5 14 -1 18 10 9 15 7
8 -4z m100 -41 c-8 -12 -35 7 -35 24 0 6 7 2 16 -9 14 -18 15 -18 9 6 -5 21
-4 22 5 7 6 -9 8 -22 5 -28z"/>
<path d="M696 1703 c-6 -14 -5 -15 5 -6 7 7 10 15 7 18 -3 3 -9 -2 -12 -12z"/>
<path d="M1184 1651 c8 -13 -21 -34 -35 -25 -8 4 -9 3 -5 -4 4 -7 14 -12 22
-12 8 0 12 -4 9 -10 -3 -5 -1 -10 5 -10 7 0 9 8 4 22 -6 20 -5 21 10 9 10 -9
16 -10 16 -2 0 6 -6 11 -12 11 -10 0 -10 2 0 9 11 7 10 9 -3 14 -9 4 -14 3
-11 -2z"/>
<path d="M1514 1608 c-4 -6 -3 -9 2 -6 5 3 15 0 22 -8 10 -10 10 -14 1 -14 -7
0 -10 -3 -6 -6 3 -3 12 -2 20 3 12 7 11 11 -8 26 -17 12 -26 14 -31 5z"/>
<path d="M1790 1539 c13 -23 22 -25 13 -3 -5 14 -3 15 15 5 11 -6 24 -11 29
-11 13 1 -25 21 -47 25 -17 3 -19 1 -10 -16z"/>
<path d="M1706 1535 c-3 -8 -12 -12 -21 -9 -8 3 -15 2 -15 -4 0 -6 8 -9 18 -7
9 1 22 -1 27 -6 7 -5 11 -1 12 11 2 24 -13 35 -21 15z"/>
<path d="M2516 1538 c3 -5 10 -6 15 -3 13 9 11 12 -6 12 -8 0 -12 -4 -9 -9z"/>
<path d="M714 1426 c2 -15 6 -29 9 -32 3 -4 5 6 3 20 -1 14 -5 29 -9 32 -3 3
-4 -6 -3 -20z"/>
<path d="M2545 1422 c-12 -8 -13 -42 -2 -59 5 -8 3 -13 -4 -13 -7 0 -10 -3 -6
-6 3 -3 14 -1 24 5 14 8 14 10 3 11 -13 0 -13 1 0 10 12 8 12 10 1 10 -9 0
-12 8 -9 25 3 14 5 25 4 25 0 0 -5 -4 -11 -8z"/>
<path d="M2516 1292 c-3 -6 -2 -13 4 -17 11 -7 9 -33 -3 -52 -5 -8 -3 -13 5
-13 9 0 9 -3 -2 -10 -12 -7 -10 -9 8 -7 14 1 18 5 12 11 -12 12 -13 29 -1 22
4 -3 8 7 7 22 0 16 4 26 12 25 7 -2 12 2 12 8 0 6 -6 9 -14 6 -7 -3 -18 -1
-24 5 -6 6 -12 6 -16 0z"/>
<path d="M1204 1250 c-114 -29 -261 -114 -368 -213 -22 -20 -43 -34 -47 -31
-5 3 -6 -3 -2 -12 4 -12 2 -15 -8 -12 -8 3 -13 11 -11 17 1 7 -2 10 -8 6 -7
-5 -8 -11 -1 -19 6 -7 6 -17 1 -26 -6 -8 -10 -10 -10 -5 0 6 -6 -1 -13 -15
-12 -23 -49 -42 -46 -23 5 27 -1 35 -16 23 -16 -13 -21 -35 -6 -26 5 3 14 -1
21 -9 9 -11 7 -19 -13 -39 -14 -14 -22 -27 -19 -30 3 -3 0 -6 -6 -6 -7 0 -12
-6 -12 -14 0 -8 -3 -16 -7 -18 -17 -7 -129 -224 -139 -269 -21 -89 -30 -150
-28 -189 3 -52 23 -120 36 -120 4 0 8 -5 8 -11 0 -15 51 -59 61 -54 4 3 12 -2
19 -10 6 -7 18 -11 26 -8 8 3 14 0 14 -7 0 -7 8 -19 18 -27 15 -13 15 -13 -5
-3 -13 6 -23 16 -23 23 0 8 -3 8 -9 -2 -7 -11 -9 -11 -14 0 -4 9 -6 8 -6 -5
-1 -11 4 -16 12 -13 7 3 21 -1 31 -9 15 -11 17 -16 7 -28 -8 -10 -9 -16 -1
-21 6 -4 9 -3 8 2 -4 13 20 50 37 57 10 4 14 2 9 -5 -4 -8 1 -9 15 -4 22 7 29
-9 9 -21 -6 -4 -9 -3 -6 2 4 5 -5 10 -19 11 -16 0 -21 -2 -13 -7 10 -6 9 -9
-1 -14 -8 -3 -3 -3 10 0 13 4 21 2 18 -3 -4 -5 0 -10 8 -10 8 0 12 4 10 7 -3
4 7 8 20 8 22 0 24 -3 13 -17 -11 -14 -11 -14 3 -4 11 9 19 9 26 2 8 -8 13 -7
18 2 5 7 4 10 -3 5 -6 -3 -13 -2 -17 4 -3 5 -2 10 4 10 5 0 13 10 16 21 6 17
9 19 16 8 5 -8 9 -18 9 -24 0 -5 -5 -3 -10 5 -5 8 -10 11 -10 5 0 -5 9 -20 18
-33 18 -23 19 -23 33 -5 13 16 12 17 -2 5 -14 -10 -18 -10 -22 2 -8 21 31 28
43 8 9 -16 9 -6 1 37 -1 2 -8 -2 -16 -9 -9 -7 -18 -10 -22 -6 -3 3 -1 6 6 6 7
0 10 4 7 8 -2 4 4 9 15 9 10 1 19 -3 19 -8 0 -6 4 -8 10 -4 5 3 7 13 4 23 -5
14 -4 15 5 2 10 -13 12 -13 20 0 5 8 8 17 5 21 -2 4 3 12 11 19 8 7 15 9 15 5
0 -4 8 -1 18 6 15 13 16 12 4 -3 -8 -10 -19 -16 -24 -15 -9 2 -17 -18 -20 -50
-1 -6 -7 -9 -14 -6 -18 7 -29 -18 -13 -28 24 -15 34 -10 13 6 -13 11 -15 15
-4 13 22 -3 60 12 60 24 0 6 -6 6 -15 -2 -10 -9 -15 -9 -15 -1 0 6 5 11 11 11
5 0 8 4 5 8 -5 8 18 12 69 13 l30 0 -28 24 c-15 14 -24 25 -19 25 5 0 17 -9
27 -20 10 -11 27 -18 39 -16 11 2 33 -2 47 -10 17 -8 30 -9 40 -3 12 8 12 10
-1 8 -27 -3 -41 1 -36 9 3 5 23 8 44 8 24 -1 39 3 39 10 0 7 -6 10 -14 7 -7
-3 -13 1 -13 8 0 7 3 9 7 6 8 -8 34 13 28 22 -5 9 32 7 41 -2 10 -10 34 12 35
32 0 11 2 12 6 3 3 -7 -1 -20 -8 -29 -12 -14 -11 -15 9 -9 12 4 22 3 22 -2 0
-6 7 -13 16 -16 8 -3 13 -2 9 3 -3 5 -2 11 2 14 5 2 3 2 -4 1 -7 -2 -10 3 -6
13 4 10 2 14 -4 10 -5 -3 -10 0 -10 8 0 11 4 12 13 4 7 -6 19 -7 25 -3 8 4 9
3 5 -5 -4 -6 -2 -18 4 -26 15 -19 37 -21 23 -2 -12 14 -13 48 -2 41 5 -2 5
-12 2 -21 -5 -12 -3 -14 7 -8 9 6 11 4 5 -5 -5 -8 -3 -11 6 -8 8 3 13 12 11
19 -3 11 -1 12 10 1 11 -11 10 -14 -1 -21 -11 -7 -11 -9 0 -13 8 -3 1 -5 -16
-4 -16 1 -36 5 -42 9 -7 5 -13 4 -13 -1 0 -14 27 -22 47 -15 10 4 14 2 10 -4
-7 -11 22 -11 40 0 8 5 18 -4 28 -25 8 -18 13 -24 10 -12 -4 15 -1 20 13 19 9
0 23 -4 29 -8 7 -5 21 1 33 13 19 19 20 19 17 0 -2 -11 -7 -23 -12 -27 -4 -5
-4 -1 0 7 8 13 7 13 -11 0 -29 -22 -30 -24 -10 -16 14 5 17 3 12 -11 -5 -15
-4 -15 9 1 15 20 15 20 30 0 12 -15 16 -16 24 -5 5 7 14 10 21 6 9 -6 9 -10
-1 -17 -11 -8 -11 -9 1 -5 8 2 14 11 12 20 -1 8 3 19 9 23 8 4 9 3 5 -4 -8
-14 53 -74 69 -68 6 2 22 -2 36 -10 13 -7 29 -13 34 -13 6 0 -1 6 -15 14 -15
9 -19 14 -10 15 13 0 13 1 0 10 -8 5 -26 7 -40 5 -20 -4 -26 0 -27 15 -1 11 3
20 8 20 6 0 8 -4 4 -9 -3 -6 3 -10 12 -10 43 -1 53 -5 59 -23 3 -10 12 -18 20
-18 27 0 29 -1 41 -23 l12 -22 -2 23 c-1 12 -6 22 -11 22 -5 0 -6 3 -3 6 9 9
38 -16 32 -26 -3 -5 -1 -11 4 -15 6 -3 8 3 6 15 -2 13 1 20 11 20 8 0 13 -4
10 -9 -4 -5 5 -4 19 2 14 7 25 16 25 20 0 5 -6 5 -12 1 -7 -4 -10 -4 -6 1 4 4
2 15 -5 24 -10 13 -10 14 3 5 8 -6 27 -9 43 -8 15 2 27 -1 27 -6 0 -5 -11 -7
-25 -4 -32 6 -32 1 1 -21 18 -12 29 -13 38 -6 7 6 16 7 21 3 4 -4 0 6 -10 21
-10 15 -15 30 -11 34 3 3 6 0 6 -8 1 -8 8 -2 16 14 8 15 12 32 9 37 -3 5 -1
11 4 14 5 4 7 -6 5 -21 -3 -16 -6 -36 -7 -45 -1 -9 -6 -14 -11 -11 -5 3 -6 1
-2 -5 11 -18 29 -14 22 4 -6 14 -4 15 9 4 9 -7 15 -9 14 -4 -4 21 2 28 11 14
8 -13 10 -12 10 3 0 10 4 16 9 13 11 -7 8 20 -3 31 -4 4 -6 3 -4 -2 2 -6 -2
-12 -7 -14 -6 -2 -15 -11 -22 -20 -7 -9 -13 -12 -13 -7 0 6 10 20 21 33 15 15
19 27 13 36 -5 7 -2 5 8 -5 18 -20 38 -24 38 -7 0 5 -4 7 -10 4 -5 -3 -10 1
-10 9 0 9 -5 16 -12 16 -6 0 -9 3 -6 6 4 3 16 1 27 -5 17 -10 20 -9 15 4 -8
19 14 47 29 38 6 -3 7 -1 3 6 -6 9 -11 9 -21 1 -10 -9 -12 -3 -10 30 2 30 -2
43 -15 50 -12 6 -17 19 -15 40 1 16 -1 30 -6 30 -5 0 -6 7 -3 15 3 8 2 20 -2
27 -4 7 -9 19 -10 28 -1 8 -5 24 -10 35 -7 17 -6 18 8 5 9 -8 14 -18 12 -21
-2 -4 6 -15 19 -25 22 -19 22 -19 5 1 -9 11 -16 24 -15 28 1 4 -8 19 -21 32
-20 21 -21 25 -6 33 15 8 15 9 0 15 -10 4 -15 3 -11 -3 3 -6 1 -10 -4 -10 -10
0 -16 29 -12 53 0 4 -6 7 -15 7 -8 0 -12 5 -8 11 3 6 3 14 -2 18 -9 6 -28 36
-52 84 -7 15 -18 27 -23 27 -5 0 -9 7 -9 15 0 8 -9 24 -20 35 -11 11 -19 21
-18 23 3 3 -40 53 -66 78 -10 10 -15 23 -11 30 5 8 4 10 -3 5 -7 -4 -12 -2
-12 3 0 6 -4 11 -8 11 -5 0 -32 21 -59 48 -88 83 -139 121 -231 171 -136 74
-230 91 -348 61z m963 -936 c0 -7 -6 -10 -14 -7 -7 3 -13 8 -13 12 0 4 6 8 13
8 8 0 14 -6 14 -13z m3 -34 c0 -5 -5 -10 -11 -10 -5 0 -7 5 -4 10 3 6 8 10 11
10 2 0 4 -4 4 -10z m-6 -42 c-3 -5 -12 -2 -20 6 -20 21 -17 28 5 14 11 -7 17
-16 15 -20z m-957 -8 c-1 -11 -5 -20 -9 -20 -10 0 -10 4 -2 24 8 22 13 20 11
-4z m83 14 c0 -8 -19 -13 -24 -6 -3 5 1 9 9 9 8 0 15 -2 15 -3z m850 -8 c0 -2
-7 -7 -16 -10 -8 -3 -12 -2 -9 4 6 10 25 14 25 6z m-963 -46 c-1 -18 -27 -24
-27 -7 0 6 -8 3 -17 -5 -19 -16 -43 -14 -43 4 0 7 5 6 14 -1 10 -9 16 -8 25 3
7 8 20 12 29 9 14 -5 14 -2 -3 17 l-20 23 22 -14 c12 -7 21 -20 20 -29z m310
33 c-4 -3 -2 -12 4 -20 10 -11 15 -11 28 -1 14 12 15 11 1 -6 -14 -18 -13 -18
8 -12 15 5 22 3 22 -6 0 -10 3 -9 10 2 6 9 10 10 10 3 0 -16 -17 -26 -25 -14
-3 6 -12 8 -20 5 -7 -3 -22 3 -31 15 -16 19 -18 19 -31 3 -11 -14 -12 -13 -2
11 7 15 17 27 22 27 6 0 7 -3 4 -7z m-404 -18 c-3 -9 -8 -14 -10 -11 -3 3 -2
9 2 15 9 16 15 13 8 -4z m47 6 c0 -6 -4 -12 -8 -15 -5 -3 -9 1 -9 9 0 8 4 15
9 15 4 0 8 -4 8 -9z m515 -61 c9 7 17 11 19 9 2 -2 -8 -13 -22 -23 -14 -11
-22 -14 -18 -8 4 7 2 12 -3 12 -6 0 -11 10 -10 23 l0 22 10 -24 c8 -19 12 -21
24 -11z m-738 5 c0 -8 -4 -12 -9 -9 -5 3 -6 10 -3 15 9 13 12 11 12 -6z m1100
-20 c0 -8 -4 -12 -9 -9 -5 3 -6 10 -3 15 9 13 12 11 12 -6z m-1164 -15 c-3
-12 -8 -19 -11 -16 -5 6 5 36 12 36 2 0 2 -9 -1 -20z m872 11 c3 -5 2 -12 -3
-15 -5 -3 -9 1 -9 9 0 17 3 19 12 6z m-1040 -11 c3 -5 1 -10 -4 -10 -6 0 -11
5 -11 10 0 6 2 10 4 10 3 0 8 -4 11 -10z m75 0 c0 -5 -5 -10 -11 -10 -5 0 -7
5 -4 10 3 6 8 10 11 10 2 0 4 -4 4 -10z m1078 -15 c-3 -3 -9 2 -12 12 -6 14
-5 15 5 6 7 -7 10 -15 7 -18z m-1068 -15 c-6 -11 -13 -20 -16 -20 -2 0 0 9 6
20 6 11 13 20 16 20 2 0 0 -9 -6 -20z m1144 9 c-3 -6 -12 -8 -20 -5 -7 3 -18
-3 -23 -12 -10 -16 -10 -16 -11 0 0 17 10 23 42 25 10 1 16 -3 12 -8z m43 -16
c0 -9 -4 -10 -10 -4 -7 7 -16 7 -26 -2 -14 -10 -14 -10 -4 4 15 19 40 21 40 2z
m-1157 3 c0 -3 -4 -8 -10 -11 -5 -3 -10 -1 -10 4 0 6 5 11 10 11 6 0 10 -2 10
-4z m1251 -9 c-7 -7 -14 -8 -21 -1 -6 6 -2 10 12 11 16 2 18 -1 9 -10z"/>
<path d="M793 1125 c0 -8 4 -12 9 -9 5 3 6 10 3 15 -9 13 -12 11 -12 -6z"/>
<path d="M2427 1053 c-4 -3 -7 -11 -7 -17 0 -6 5 -5 12 2 6 6 9 14 7 17 -3 3
-9 2 -12 -2z"/>
<path d="M2470 1049 c0 -5 5 -7 10 -4 6 3 10 8 10 11 0 2 -4 4 -10 4 -5 0 -10
-5 -10 -11z"/>
<path d="M2382 988 c-13 -13 1 -38 21 -38 6 0 2 7 -9 16 -18 15 -18 15 11 9
16 -4 28 -5 25 -3 -3 2 -12 9 -21 16 -12 9 -18 9 -27 0z"/>
<path d="M302 966 c7 -8 15 -12 17 -11 5 6 -10 25 -20 25 -5 0 -4 -6 3 -14z"/>
<path d="M716 933 c-6 -14 -5 -15 5 -6 7 7 10 15 7 18 -3 3 -9 -2 -12 -12z"/>
<path d="M345 926 c-15 -11 -16 -13 -1 -13 9 0 16 5 16 11 0 6 4 4 10 -4 5 -8
12 -12 15 -9 3 4 -1 11 -8 17 -10 9 -18 8 -32 -2z"/>
<path d="M1976 917 c3 -10 9 -15 12 -12 3 3 0 11 -7 18 -10 9 -11 8 -5 -6z"/>
<path d="M355 890 c-3 -6 1 -7 9 -4 18 7 21 14 7 14 -6 0 -13 -4 -16 -10z"/>
<path d="M445 875 c0 -13 3 -21 7 -19 4 2 9 0 13 -5 3 -6 13 -7 22 -4 10 4 14
2 10 -4 -9 -14 19 -11 34 4 7 7 5 14 -6 23 -8 7 -15 9 -15 6 0 -4 -10 -1 -22
6 -35 19 -43 17 -43 -7z m58 -10 c15 -4 24 -11 21 -17 -3 -5 -11 -4 -19 2 -8
7 -19 9 -25 5 -5 -3 -10 -4 -10 -1 0 2 -3 13 -6 23 -4 11 -3 14 3 6 4 -6 20
-15 36 -18z"/>
<path d="M2060 686 c0 -2 8 -10 18 -17 15 -13 16 -12 3 4 -13 16 -21 21 -21
13z"/>
<path d="M2142 454 c10 -10 20 -16 22 -13 3 3 -5 11 -17 18 -21 13 -21 12 -5
-5z"/>
<path d="M2150 420 c0 -5 5 -10 10 -10 6 0 10 5 10 10 0 6 -4 10 -10 10 -5 0
-10 -4 -10 -10z"/>
<path d="M2170 400 c0 -5 5 -10 11 -10 5 0 7 5 4 10 -3 6 -8 10 -11 10 -2 0
-4 -4 -4 -10z"/>
<path d="M2159 372 c9 -7 10 -11 2 -15 -7 -4 -8 -5 0 -4 15 3 13 21 -3 25 -10
3 -10 2 1 -6z"/>
<path d="M2188 343 c7 -3 16 -2 19 1 4 3 -2 6 -13 5 -11 0 -14 -3 -6 -6z"/>
<path d="M2193 309 c-2 -23 3 -25 10 -4 4 8 3 16 -1 19 -4 3 -9 -4 -9 -15z"/>
<path d="M1237 207 c-12 -8 -14 -17 -7 -27 5 -8 12 -11 17 -7 4 5 1 12 -7 17
-8 6 -10 10 -4 10 6 0 14 -3 17 -7 4 -4 26 -7 50 -8 23 -1 34 0 24 2 -9 3 -15
8 -13 12 3 4 -5 7 -17 6 -12 -1 -27 2 -33 6 -6 5 -18 3 -27 -4z"/>
<path d="M1260 166 c0 -2 7 -7 16 -10 8 -3 12 -2 9 4 -6 10 -25 14 -25 6z"/>
<path d="M561 133 c-18 -19 -10 -25 12 -8 10 7 15 15 10 18 -4 3 -14 -2 -22
-10z"/>
<path d="M1066 134 c-13 -9 -23 -10 -31 -4 -16 13 -45 2 -45 -17 0 -8 5 -11
10 -8 6 3 10 1 10 -4 0 -6 5 -11 11 -11 8 0 7 5 -1 15 -7 9 -10 19 -6 22 4 4
11 1 15 -6 5 -8 14 -10 21 -6 7 4 17 1 22 -6 8 -11 9 -10 4 4 -6 19 4 23 20 7
7 -7 11 -6 11 4 0 8 -4 13 -8 10 -4 -2 -9 0 -11 5 -1 5 -12 3 -22 -5z"/>
<path d="M1675 90 c-3 -5 -1 -10 4 -10 6 0 11 5 11 10 0 6 -2 10 -4 10 -3 0
-8 -4 -11 -10z"/>
<path d="M586 81 c8 -8 43 -8 38 0 -2 4 -13 7 -24 6 -10 -1 -17 -3 -14 -6z"/>
<path d="M970 79 c0 -5 5 -7 10 -4 6 3 10 8 10 11 0 2 -4 4 -10 4 -5 0 -10 -5
-10 -11z"/>
<path d="M1990 60 c0 -5 5 -10 11 -10 5 0 7 5 4 10 -3 6 -8 10 -11 10 -2 0 -4
-4 -4 -10z"/>
<path d="M1770 56 c0 -2 8 -10 18 -17 15 -13 16 -12 3 4 -13 16 -21 21 -21 13z"/>
<path d="M1970 51 c0 -7 -5 -9 -12 -5 -7 5 -8 3 -3 -5 5 -9 10 -10 18 -2 6 6
8 14 4 18 -4 3 -7 1 -7 -6z"/>
</g>
</svg>
